{
.appVersion = "3134";
.formatVersion = 3;
DisplayStrings = (
"Aa Bb Cc Dd Ee Ff Gg Hh Ii Jj Kk Ll Mm Nn Oo Pp Qq Rr Ss Tt Uu Vv Ww Xx Yy Zz
1234567890
!@#&

Amoeba Grotesque

Build Business
Build System
Build People

For one thing, time is the very thing that we are least willing to allow.?"
);
customParameters = (
{
name = vendorID;
value = AMMP;
},
{
name = panose;
value = (
0,
0,
8,
0,
0,
0,
0,
0,
0,
0
);
},
{
name = unicodeRanges;
value = (
0,
1,
2,
29
);
},
{
name = codePageRanges;
value = (
"1252",
"1250",
"1254",
"1257",
"1258",
"bit 29"
);
},
{
name = blueScale;
value = 0.037;
},
{
name = glyphOrder;
value = (
.notdef,
space,
A,
Aacute,
Abreve,
uni1EAE,
uni1EB6,
uni1EB0,
uni1EB2,
uni1EB4,
uni01CD,
Acircumflex,
uni1EA4,
uni1EAC,
uni1EA6,
uni1EA8,
uni1EAA,
Adieresis,
uni1EA0,
Agrave,
uni1EA2,
Amacron,
Aogonek,
Aring,
Atilde,
AE,
B,
C,
Cacute,
Ccaron,
Ccedilla,
Cdotaccent,
D,
Eth,
Dcaron,
Dcroat,
E,
Eacute,
Ecaron,
Ecircumflex,
uni1EBE,
uni1EC6,
uni1EC0,
uni1EC2,
uni1EC4,
Edieresis,
Edotaccent,
uni1EB8,
Egrave,
uni1EBA,
Emacron,
Eogonek,
uni1EBC,
F,
G,
Gbreve,
uni0122,
Gdotaccent,
H,
Hbar,
I,
Iacute,
uni01CF,
Icircumflex,
Idieresis,
Idotaccent,
uni1ECA,
Igrave,
uni1EC8,
Imacron,
Iogonek,
Itilde,
J,
K,
uni0136,
L,
Lacute,
Lcaron,
uni013B,
Lslash,
M,
N,
Nacute,
Ncaron,
uni0145,
Eng,
Ntilde,
O,
Oacute,
uni01D1,
Ocircumflex,
uni1ED0,
uni1ED8,
uni1ED2,
uni1ED4,
uni1ED6,
Odieresis,
uni1ECC,
Ograve,
uni1ECE,
Ohorn,
uni1EDA,
uni1EE2,
uni1EDC,
uni1EDE,
uni1EE0,
Ohungarumlaut,
Omacron,
Oslash,
Otilde,
OE,
P,
Thorn,
Q,
R,
Racute,
Rcaron,
uni0156,
S,
Sacute,
Scaron,
Scedilla,
uni0218,
uni1E9E,
T,
Tbar,
Tcaron,
uni0162,
uni021A,
U,
Uacute,
uni01D3,
Ucircumflex,
Udieresis,
uni01D7,
uni01D9,
uni01DB,
uni01D5,
uni1EE4,
Ugrave,
uni1EE6,
Uhorn,
uni1EE8,
uni1EF0,
uni1EEA,
uni1EEC,
uni1EEE,
Uhungarumlaut,
Umacron,
Uogonek,
Uring,
Utilde,
V,
W,
Wacute,
Wcircumflex,
Wdieresis,
Wgrave,
X,
Y,
Yacute,
Ycircumflex,
Ydieresis,
uni1EF4,
Ygrave,
uni1EF6,
uni1EF8,
Z,
Zacute,
Zcaron,

glyphs = (
{
glyphname = .notdef;
lastChange = "2022-12-26 08:52:18 +0000";
layers = (
{
hints = (
{
horizontal = 1;
place = (-123, -72);
place = (-123, -72);
type = Stem;
},
{
horizontal = 1;
place = (297, -72);
place = (297, -72);
type = Stem;
},
{
place = (-51, -73);
place = (-51, -73);
type = Stem;
},
{
place = (302, -72);
place = (302, -72);
type = Stem;
}
);
layerId = m01;
shapes = (
{
closed = 1;
nodes = (
(-51,0,l),
(353,0,l),
(436,471,l),
(32,471,l)
);
},
{
closed = 1;
nodes = (
(8,51,l),
(73,420,l),
(376,420,l),
(311,51,l)
);
}
);
width = 547;
}
);
note = ".notdef";
},
{
glyphname = A;
kernLeft = A;
kernRight = A;
lastChange = "2022-12-26 08:52:18 +0000";
layers = (
{
hints = (
{
horizontal = 1;
place = (-123, 21);
target = up;
type = BottomGhost;
},
{
horizontal = 1;
place = (21, -8);
place = (21, -8);
type = Stem;
},
{
horizontal = 1;
place = (574, -20);
target = down;
type = TopGhost;
},
{
place = (-119, 528);
place = (-119, 528);
type = Stem;
}
);
layerId = m01;
shapes = (
{
closed = 1;
nodes = (
(376,697,o),
(327,697,qs),
(283,697,l),
(-119,0,l),
(17,0,l),
(95,144,l),
(368,144,l),
(396,0,l),
(532,0,l),
(388,650,ls)
);
},
{
closed = 1;
nodes = (
(298,513,l),
(347,259,l),
(159,259,l)
);
}
);
width = 659;
}
);
note = A;
unicode = 65;
},
{
glyphname = Aacute;
kernLeft = A;
kernRight = A;
lastChange = "2022-12-26 08:52:18 +0000";
layers = (
{
hints = (
{
horizontal = 1;
place = (-123, 21);
target = up;
type = BottomGhost;
},
{
horizontal = 1;
place = (21, -8);
place = (21, -8);
type = Stem;
},
{
horizontal = 1;
place = (574, -20);
target = down;
type = TopGhost;
},
{
horizontal = 1;
place = (636, 19);
place = (636, 19);
type = Stem;
},
{
place = (-119, 528);
place = (-119, 528);
type = Stem;
}
);
layerId = m01;
shapes = (
{
closed = 1;
nodes = (
(562,901,l),
(433,901,l),
(297,759,l),
(385,759,l)
);
},
{
closed = 1;
nodes = (
(396,0,l),
(532,0,l),
(377,697,l),
(283,697,l),
(-119,0,l),
(17,0,l),
(95,144,l),
(368,144,l)
);
},
{
closed = 1;
nodes = (
(159,259,l),
(298,513,l),
(347,259,l)
);
}
);
width = 659;
}
);
note = Aacute;
unicode = 193;
},
{
glyphname = Abreve;
kernLeft = A;
kernRight = A;
lastChange = "2022-12-26 08:52:18 +0000";
layers = (
{
hints = (
{
horizontal = 1;
place = (-123, 21);
target = up;
type = BottomGhost;
},
{
horizontal = 1;
place = (21, -8);
place = (21, -8);
type = Stem;
},
{
horizontal = 1;
place = (574, -20);
target = down;
type = TopGhost;
},
{
horizontal = 1;
place = (645, -53);
place = (645, -53);
type = Stem;
},
{
place = (51, -38);
place = (51, -38);
type = Stem;
},
{
place = (278, -38);
place = (278, -38);
type = Stem;
},
{
horizontal = 1;
place = (645, 10);
place = (645, 10);
type = Stem;
}
);
layerId = m01;
shapes = (
{
closed = 1;
nodes = (
(446,768,o),
(506,811,o),
(522,901,c),
(437,901,l),
(430,860,o),
(396,838,o),
(355,838,cs),
(316,838,o),
(287,858,o),
(295,901,c),
(210,901,l),
(195,815,o),
(235,768,o),
(343,768,cs)
);
},
{
closed = 1;
nodes = (
(396,0,l),
(532,0,l),
(377,697,l),
(283,697,l),
(-119,0,l),
(17,0,l),
(95,144,l),
(368,144,l)
);
},
{
closed = 1;
nodes = (
(159,259,l),
(298,513,l),
(347,259,l)
);
}
);
width = 659;
}
);
note = Abreve;
unicode = 258;
},
{
glyphname = uni1EAE;
kernLeft = A;
kernRight = A;
lastChange = "2022-12-26 08:52:18 +0000";
layers = (
{
hints = (
{
horizontal = 1;
place = (-123, 21);
target = up;
type = BottomGhost;
},
{
horizontal = 1;
place = (21, -8);
place = (21, -8);
type = Stem;
},
{
horizontal = 1;
place = (574, -20);
target = down;
type = TopGhost;
},
{
horizontal = 1;
place = (645, -53);
place = (645, -53);
type = Stem;
},
{
horizontal = 1;
place = (840, 19);
place = (840, 19);
type = Stem;
},
{
place = (51, -38);
place = (51, -38);
type = Stem;
},
{
place = (278, -38);
place = (278, -38);
type = Stem;
},
{
horizontal = 1;
place = (645, 10);
place = (645, 10);
type = Stem;
}
);
layerId = m01;
shapes = (
{
closed = 1;
nodes = (
(598,1105,l),
(469,1105,l),
(333,963,l),
(421,963,l)
);
},
{
closed = 1;
nodes = (
(446,768,o),
(506,811,o),
(522,901,c),
(437,901,l),
(430,860,o),
(396,838,o),
(355,838,cs),
(316,838,o),
(287,858,o),
(295,901,c),
(210,901,l),
(195,815,o),
(235,768,o),
(343,768,cs)
);
},
{
closed = 1;
nodes = (
(396,0,l),
(532,0,l),
(377,697,l),
(283,697,l),
(-119,0,l),
(17,0,l),
(95,144,l),
(368,144,l)
);
},
{
closed = 1;
nodes = (
(159,259,l),
(298,513,l),
(347,259,l)
);
}
);
width = 659;
}
);
note = uni1EAE;
unicode = 7854;
},
{
glyphname = uni1EB6;
kernLeft = A;
kernRight = A;
lastChange = "2022-12-26 08:52:18 +0000";
layers = (
{
hints = (
{
horizontal = 1;
place = (-296, -12);
place = (-296, -12);
type = Stem;
},
{
horizontal = 1;
place = (-123, 21);
target = up;
type = BottomGhost;
},
{
horizontal = 1;
place = (21, -8);
place = (21, -8);
type = Stem;
},
{
horizontal = 1;
place = (574, -20);
target = down;
type = TopGhost;
},
{
horizontal = 1;
place = (645, -53);
place = (645, -53);
type = Stem;
},
{
place = (51, -38);
place = (51, -38);
type = Stem;
},
{
place = (144, 3);
place = (144, 3);
type = Stem;
},
{
horizontal = 1;
place = (645, 10);
place = (645, 10);
type = Stem;
},
{
place = (278, -38);
place = (278, -38);
type = Stem;
}
);
layerId = m01;
shapes = (
{
closed = 1;
nodes = (
(446,768,o),
(506,811,o),
(522,901,c),
(437,901,l),
(430,860,o),
(396,838,o),
(355,838,cs),
(316,838,o),
(287,858,o),
(295,901,c),
(210,901,l),
(195,815,o),
(235,768,o),
(343,768,cs)
);
},
{
closed = 1;
nodes = (
(532,0,l),
(377,697,l),
(283,697,l),
(-119,0,l),
(17,0,l),
(95,144,l),
(368,144,l),
(396,0,l)
);
},
{
closed = 1;
nodes = (
(159,259,l),
(298,513,l),
(347,259,l)
);
},
{
closed = 1;
nodes = (
(114,-173,l),
(240,-173,l),
(259,-62,l),
(133,-62,l)
);
}
);
width = 659;
}
);
note = uni1EB6;
unicode = 7862;
},
{
glyphname = uni1EB0;
kernLeft = A;
kernRight = A;
lastChange = "2022-12-26 08:52:18 +0000";
layers = (
{
hints = (
{
horizontal = 1;
place = (-123, 21);
target = up;
type = BottomGhost;
},
{
horizontal = 1;
place = (21, -8);
place = (21, -8);
type = Stem;
},
{
horizontal = 1;
place = (574, -20);
target = down;
type = TopGhost;
},
{
horizontal = 1;
place = (645, -53);
place = (645, -53);
type = Stem;
},
{
horizontal = 1;
place = (840, 19);
place = (840, 19);
type = Stem;
},
{
place = (51, -38);
place = (51, -38);
type = Stem;
},
{
place = (278, -38);
place = (278, -38);
type = Stem;
},
{
horizontal = 1;
place = (645, 10);
place = (645, 10);
type = Stem;
}
);
layerId = m01;
shapes = (
{
closed = 1;
nodes = (
(422,963,l),
(343,1105,l),
(215,1105,l),
(332,963,l)
);
},
{
closed = 1;
nodes = (
(210,901,l),
(195,815,o),
(235,768,o),
(343,768,cs),
(446,768,o),
(506,811,o),
(522,901,c),
(437,901,l),
(430,860,o),
(396,838,o),
(355,838,cs),
(316,838,o),
(287,858,o),
(295,901,c)
);
},
{
closed = 1;
nodes = (
(396,0,l),
(532,0,l),
(377,697,l),
(283,697,l),
(-119,0,l),
(17,0,l),
(95,144,l),
(368,144,l)
);
},
{
closed = 1;
nodes = (
(159,259,l),
(298,513,l),
(347,259,l)
);
}
);
width = 659;
}
);
note = uni1EB0;
unicode = 7856;
},
{
glyphname = uni1EB2;
kernLeft = A;
kernRight = A;
lastChange = "2022-12-26 08:52:18 +0000";
layers = (
{
hints = (
{
horizontal = 1;
place = (-123, 21);
target = up;
type = BottomGhost;
},
{
horizontal = 1;
place = (21, -8);
place = (21, -8);
type = Stem;
},
{
horizontal = 1;
place = (574, -20);
target = down;
type = TopGhost;
},
{
horizontal = 1;
place = (645, -53);
place = (645, -53);
type = Stem;
},
{
horizontal = 1;
place = (937, -57);
place = (937, -57);
type = Stem;
},
{
place = (51, -38);
place = (51, -38);
type = Stem;
},
{
place = (244, -47);
place = (244, -47);
type = Stem;
},
{
horizontal = 1;
place = (645, 10);
place = (645, 10);
type = Stem;
},
{
place = (278, -38);
place = (278, -38);
type = Stem;
}
);
layerId = m01;
shapes = (
{
closed = 1;
nodes = (
(420,997,o),
(388,993,o),
(357,989,c),
(363,940,l),
(415,948,o),
(489,960,o),
(502,1029,cs),
(513,1092,o),
(458,1126,o),
(369,1126,cs),
(354,1126,l),
(342,1060,l),
(357,1060,ls),
(393,1060,o),
(431,1060,o),
(425,1027,cs)
);
},
{
closed = 1;
nodes = (
(446,768,o),
(506,811,o),
(522,901,c),
(437,901,l),
(430,860,o),
(396,838,o),
(355,838,cs),
(316,838,o),
(287,858,o),
(295,901,c),
(210,901,l),
(195,815,o),
(235,768,o),
(343,768,cs)
);
},
{
closed = 1;
nodes = (
(396,0,l),
(532,0,l),
(377,697,l),
(283,697,l),
(-119,0,l),
(17,0,l),
(95,144,l),
(368,144,l)
);
},
{
closed = 1;
nodes = (
(159,259,l),
(298,513,l),
(347,259,l)
);
}
);
width = 659;
}
);
note = uni1EB2;
unicode = 7858;
},
{
glyphname = uni1EB4;
kernLeft = A;
kernRight = A;
lastChange = "2022-12-26 08:52:18 +0000";
layers = (
{
hints = (
{
horizontal = 1;
place = (-123, 21);
target = up;
type = BottomGhost;
},
{
horizontal = 1;
place = (21, -8);
place = (21, -8);
type = Stem;
},
{
horizontal = 1;
place = (574, -20);
target = down;
type = TopGhost;
},
{
horizontal = 1;
place = (645, -53);
place = (645, -53);
type = Stem;
},
{
horizontal = 1;
place = (911, -49);
place = (911, -49);
type = Stem;
},
{
place = (40, -54);
place = (40, -54);
type = Stem;
},
{
place = (301, -51);
place = (301, -51);
type = Stem;
},
{
horizontal = 1;
place = (841, -49);
place = (841, -49);
type = Stem;
},
{
place = (51, -38);
place = (51, -38);
type = Stem;
},
{
place = (278, -38);
place = (278, -38);
type = Stem;
},
{
horizontal = 1;
place = (645, 10);
place = (645, 10);
type = Stem;
}
);
layerId = m01;
shapes = (
{
closed = 1;
nodes = (
(360,1034,o),
(362,964,o),
(440,964,cs),
(503,964,o),
(552,1014,o),
(568,1105,c),
(496,1105,l),
(488,1062,o),
(471,1038,o),
(454,1038,cs),
(419,1038,o),
(410,1108,o),
(341,1108,cs),
(276,1108,o),
(226,1057,o),
(211,967,c),
(280,967,l),
(287,1010,o),
(303,1034,o),
(323,1034,cs)
);
},
{
closed = 1;
nodes = (
(316,838,o),
(287,858,o),
(295,901,c),
(210,901,l),
(195,815,o),
(235,768,o),
(343,768,cs),
(446,768,o),
(506,811,o),
(522,901,c),
(437,901,l),
(430,860,o),
(396,838,o),
(355,838,cs)
);
},
{
closed = 1;
nodes = (
(396,0,l),
(532,0,l),
(377,697,l),
(283,697,l),
(-119,0,l),
(17,0,l),
(95,144,l),
(368,144,l)
);
},
{
closed = 1;
nodes = (
(159,259,l),
(298,513,l),
(347,259,l)
);
}
);
width = 659;
}
);
note = uni1EB4;
unicode = 7860;
},
{
glyphname = uni01CD;
kernLeft = A;
kernRight = A;
lastChange = "2022-12-26 08:52:18 +0000";
layers = (
{
hints = (
{
horizontal = 1;
place = (-123, 21);
target = up;
type = BottomGhost;
},
{
horizontal = 1;
place = (21, -8);
place = (21, -8);
type = Stem;
},
{
horizontal = 1;
place = (574, -20);
target = down;
type = TopGhost;
},
{
place = (-119, 528);
place = (-119, 528);
type = Stem;
}
);
layerId = m01;
shapes = (
{
closed = 1;
nodes = (
(522,901,l),
(429,901,l),
(354,834,l),
(303,901,l),
(210,901,l),
(337,737,l)
);
},
{
closed = 1;
nodes = (
(396,0,l),
(532,0,l),
(377,697,l),
(283,697,l),
(-119,0,l),
(17,0,l),
(95,144,l),
(368,144,l)
);
},
{
closed = 1;
nodes = (
(159,259,l),
(298,513,l),
(347,259,l)
);
}
);
width = 659;
}
);
note = uni01CD;
unicode = 461;
},
{
glyphname = Acircumflex;
kernLeft = A;
kernRight = A;
lastChange = "2022-12-26 08:52:18 +0000";
layers = (
{
hints = (
{
horizontal = 1;
place = (-123, 21);
target = up;
type = BottomGhost;
},
{
horizontal = 1;
place = (21, -8);
place = (21, -8);
type = Stem;
},
{
horizontal = 1;
place = (574, -20);
target = down;
type = TopGhost;
},
{
place = (-119, 528);
place = (-119, 528);
type = Stem;
}
);
layerId = m01;
shapes = (
{
closed = 1;
nodes = (
(351,817,l),
(401,745,l),
(494,745,l),
(369,919,l),
(182,745,l),
(275,745,l)
);
},
{
closed = 1;
nodes = (
(396,0,l),
(532,0,l),
(377,697,l),
(283,697,l),
(-119,0,l),
(17,0,l),
(95,144,l),
(368,144,l)
);
},
{
closed = 1;
nodes = (
(159,259,l),
(298,513,l),
(347,259,l)
);
}
);
width = 659;
}
);
note = Acircumflex;
unicode = 194;
},
{
glyphname = uni1EA4;
kernLeft = A;
kernRight = A;
lastChange = "2022-12-26 08:52:18 +0000";
layers = (
{
hints = (
{
horizontal = 1;
place = (-123, 21);
target = up;
type = BottomGhost;
},
{
horizontal = 1;
place = (21, -8);
place = (21, -8);
type = Stem;
},
{
horizontal = 1;
place = (574, -20);
target = down;
type = TopGhost;
},
{
horizontal = 1;
place = (824, 19);
place = (824, 19);
type = Stem;
},
{
place = (-119, 528);
place = (-119, 528);
type = Stem;
}
);
layerId = m01;
shapes = (
{
closed = 1;
nodes = (
(595,1089,l),
(466,1089,l),
(330,947,l),
(418,947,l)
);
},
{
closed = 1;
nodes = (
(351,817,l),
(401,745,l),
(494,745,l),
(369,919,l),
(182,745,l),
(275,745,l)
);
},
{
closed = 1;
nodes = (
(396,0,l),
(532,0,l),
(377,697,l),
(283,697,l),
(-119,0,l),
(17,0,l),
(95,144,l),
(368,144,l)
);
},
{
closed = 1;
nodes = (
(159,259,l),
(298,513,l),
(347,259,l)
);
}
);
width = 659;
}
);
note = uni1EA4;
unicode = 7844;
},
{
glyphname = uni1EAC;
kernLeft = A;
kernRight = A;
lastChange = "2022-12-26 08:52:18 +0000";
layers = (
{
hints = (
{
horizontal = 1;
place = (-296, -12);
place = (-296, -12);
type = Stem;
},
{
horizontal = 1;
place = (-123, 21);
target = up;
type = BottomGhost;
},
{
horizontal = 1;
place = (21, -8);
place = (21, -8);
type = Stem;
},
{
horizontal = 1;
place = (574, -20);
target = down;
type = TopGhost;
},
{
place = (144, 3);
place = (144, 3);
type = Stem;
}
);
layerId = m01;
shapes = (
{
closed = 1;
nodes = (
(351,817,l),
(401,745,l),
(494,745,l),
(369,919,l),
(182,745,l),
(275,745,l)
);
},
{
closed = 1;
nodes = (
(532,0,l),
(377,697,l),
(283,697,l),
(-119,0,l),
(17,0,l),
(95,144,l),
(368,144,l),
(396,0,l)
);
},
{
closed = 1;
nodes = (
(159,259,l),
(298,513,l),
(347,259,l)
);
},
{
closed = 1;
nodes = (
(114,-173,l),
(240,-173,l),
(259,-62,l),
(133,-62,l)
);
}
);
width = 659;
}
);
note = uni1EAC;
unicode = 7852;
},
{
glyphname = uni1EA6;
kernLeft = A;
kernRight = A;
lastChange = "2022-12-26 08:52:18 +0000";
layers = (
{
hints = (
{
horizontal = 1;
place = (-123, 21);
target = up;
type = BottomGhost;
},
{
horizontal = 1;
place = (21, -8);
place = (21, -8);
type = Stem;
},
{
horizontal = 1;
place = (574, -20);
target = down;
type = TopGhost;
},
{
horizontal = 1;
place = (824, 19);
place = (824, 19);
type = Stem;
},
{
place = (-119, 528);
place = (-119, 528);
type = Stem;
}
);
layerId = m01;
shapes = (
{
closed = 1;
nodes = (
(419,947,l),
(340,1089,l),
(212,1089,l),
(329,947,l)
);
},
{
closed = 1;
nodes = (
(182,745,l),
(275,745,l),
(351,817,l),
(401,745,l),
(494,745,l),
(369,919,l)
);
},
{
closed = 1;
nodes = (
(396,0,l),
(532,0,l),
(377,697,l),
(283,697,l),
(-119,0,l),
(17,0,l),
(95,144,l),
(368,144,l)
);
},
{
closed = 1;
nodes = (
(159,259,l),
(298,513,l),
(347,259,l)
);
}
);
width = 659;
}
);
note = uni1EA6;
unicode = 7846;
},
{
glyphname = uni1EA8;
kernLeft = A;
kernRight = A;
lastChange = "2022-12-26 08:52:18 +0000";
layers = (
{
hints = (
{
horizontal = 1;
place = (-123, 21);
target = up;
type = BottomGhost;
},
{
horizontal = 1;
place = (21, -8);
place = (21, -8);
type = Stem;
},
{
horizontal = 1;
place = (574, -20);
target = down;
type = TopGhost;
},
{
horizontal = 1;
place = (921, -57);
place = (921, -57);
type = Stem;
},
{
place = (244, -47);
place = (244, -47);
type = Stem;
}
);
layerId = m01;
shapes = (
{
closed = 1;
nodes = (
(417,981,o),
(385,977,o),
(355,973,c),
(360,924,l),
(412,932,o),
(487,944,o),
(499,1013,cs),
(510,1076,o),
(455,1110,o),
(366,1110,cs),
(351,1110,l),
(339,1044,l),
(354,1044,ls),
(390,1044,o),
(428,1044,o),
(422,1011,cs)
);
},
{
closed = 1;
nodes = (
(351,817,l),
(401,745,l),
(494,745,l),
(369,919,l),
(182,745,l),
(275,745,l)
);
},
{
closed = 1;
nodes = (
(396,0,l),
(532,0,l),
(377,697,l),
(283,697,l),
(-119,0,l),
(17,0,l),
(95,144,l),
(368,144,l)
);
},
{
closed = 1;
nodes = (
(159,259,l),
(298,513,l),
(347,259,l)
);
}
);
width = 659;
}
);
note = uni1EA8;
unicode = 7848;
},
{
glyphname = uni1EAA;
kernLeft = A;
kernRight = A;
lastChange = "2022-12-26 08:52:18 +0000";
layers = (
{
hints = (
{
horizontal = 1;
place = (-123, 21);
target = up;
type = BottomGhost;
},
{
horizontal = 1;
place = (21, -8);
place = (21, -8);
type = Stem;
},
{
horizontal = 1;
place = (574, -20);
target = down;
type = TopGhost;
},
{
horizontal = 1;
place = (895, -49);
place = (895, -49);
type = Stem;
},
{
place = (40, -54);
place = (40, -54);
type = Stem;
},
{
place = (301, -51);
place = (301, -51);
type = Stem;
},
{
horizontal = 1;
place = (825, -49);
place = (825, -49);
type = Stem;
}
);
layerId = m01;
shapes = (
{
closed = 1;
nodes = (
(358,1018,o),
(359,948,o),
(437,948,cs),
(500,948,o),
(549,998,o),
(565,1089,c),
(493,1089,l),
(486,1046,o),
(468,1022,o),
(451,1022,cs),
(416,1022,o),
(408,1092,o),
(339,1092,cs),
(274,1092,o),
(224,1041,o),
(208,951,c),
(277,951,l),
(284,994,o),
(301,1018,o),
(321,1018,cs)
);
},
{
closed = 1;
nodes = (
(182,745,l),
(275,745,l),
(351,817,l),
(401,745,l),
(494,745,l),
(369,919,l)
);
},
{
closed = 1;
nodes = (
(396,0,l),
(532,0,l),
(377,697,l),
(283,697,l),
(-119,0,l),
(17,0,l),
(95,144,l),
(368,144,l)
);
},
{
closed = 1;
nodes = (
(159,259,l),
(298,513,l),
(347,259,l)
);
}
);
width = 659;
}
);
note = uni1EAA;
unicode = 7850;
},
{
glyphname = Adieresis;
kernLeft = A;
kernRight = A;
lastChange = "2022-12-26 08:52:18 +0000";
layers = (
{
hints = (
{
horizontal = 1;
place = (-123, 21);
target = up;
type = BottomGhost;
},
{
horizontal = 1;
place = (21, -8);
place = (21, -8);
type = Stem;
},
{
horizontal = 1;
place = (574, -20);
target = down;
type = TopGhost;
},
{
horizontal = 1;
place = (667, -12);
place = (667, -12);
type = Stem;
},
{
place = (59, -22);
place = (59, -22);
type = Stem;
},
{
place = (254, -22);
place = (254, -22);
type = Stem;
}
);
layerId = m01;
shapes = (
{
closed = 1;
nodes = (
(319,901,l),
(218,901,l),
(198,790,l),
(299,790,l)
);
},
{
closed = 1;
nodes = (
(514,901,l),
(413,901,l),
(393,790,l),
(494,790,l)
);
},
{
closed = 1;
nodes = (
(396,0,l),
(532,0,l),
(377,697,l),
(283,697,l),
(-119,0,l),
(17,0,l),
(95,144,l),
(368,144,l)
);
},
{
closed = 1;
nodes = (
(159,259,l),
(298,513,l),
(347,259,l)
);
}
);
width = 659;
}
);
note = Adieresis;
unicode = 196;
},
{
glyphname = uni1EA0;
kernLeft = A;
kernRight = A;
lastChange = "2022-12-26 08:52:18 +0000";
layers = (
{
hints = (
{
horizontal = 1;
place = (-296, -12);
place = (-296, -12);
type = Stem;
},
{
horizontal = 1;
place = (-123, 21);
target = up;
type = BottomGhost;
},
{
horizontal = 1;
place = (21, -8);
place = (21, -8);
type = Stem;
},
{
horizontal = 1;
place = (574, -20);
target = down;
type = TopGhost;
},
{
place = (144, 3);
place = (144, 3);
type = Stem;
}
);
layerId = m01;
shapes = (
{
closed = 1;
nodes = (
(532,0,l),
(377,697,l),
(283,697,l),
(-119,0,l),
(17,0,l),
(95,144,l),
(368,144,l),
(396,0,l)
);
},
{
closed = 1;
nodes = (
(159,259,l),
(298,513,l),
(347,259,l)
);
},
{
closed = 1;
nodes = (
(114,-173,l),
(240,-173,l),
(259,-62,l),
(133,-62,l)
);
}
);
width = 659;
}
);
note = uni1EA0;
unicode = 7840;
},
{
glyphname = Agrave;
kernLeft = A;
kernRight = A;
lastChange = "2022-12-26 08:52:18 +0000";
layers = (
{
hints = (
{
horizontal = 1;
place = (-123, 21);
target = up;
type = BottomGhost;
},
{
horizontal = 1;
place = (21, -8);
place = (21, -8);
type = Stem;
},
{
horizontal = 1;
place = (574, -20);
target = down;
type = TopGhost;
},
{
horizontal = 1;
place = (636, 19);
place = (636, 19);
type = Stem;
},
{
place = (-119, 528);
place = (-119, 528);
type = Stem;
}
);
layerId = m01;
shapes = (
{
closed = 1;
nodes = (
(386,759,l),
(307,901,l),
(179,901,l),
(296,759,l)
);
},
{
closed = 1;
nodes = (
(396,0,l),
(532,0,l),
(377,697,l),
(283,697,l),
(-119,0,l),
(17,0,l),
(95,144,l),
(368,144,l)
);
},
{
closed = 1;
nodes = (
(159,259,l),
(298,513,l),
(347,259,l)
);
}
);
width = 659;
}
);
note = Agrave;
unicode = 192;
},
{
glyphname = uni1EA2;
kernLeft = A;
kernRight = A;
lastChange = "2022-12-26 08:52:18 +0000";
layers = (
{
hints = (
{
horizontal = 1;
place = (-123, 21);
target = up;
type = BottomGhost;
},
{
horizontal = 1;
place = (21, -8);
place = (21, -8);
type = Stem;
},
{
horizontal = 1;
place = (574, -20);
target = down;
type = TopGhost;
},
{
horizontal = 1;
place = (733, -57);
place = (733, -57);
type = Stem;
},
{
place = (244, -47);
place = (244, -47);
type = Stem;
}
);
layerId = m01;
shapes = (
{
closed = 1;
nodes = (
(384,793,o),
(352,789,o),
(322,785,c),
(327,736,l),
(379,744,o),
(453,756,o),
(466,825,cs),
(477,888,o),
(422,922,o),
(333,922,cs),
(318,922,l),
(306,856,l),
(321,856,ls),
(357,856,o),
(395,856,o),
(389,823,cs)
);
},
{
closed = 1;
nodes = (
(396,0,l),
(532,0,l),
(377,697,l),
(283,697,l),
(-119,0,l),
(17,0,l),
(95,144,l),
(368,144,l)
);
},
{
closed = 1;
nodes = (
(159,259,l),
(298,513,l),
(347,259,l)
);
}
);
width = 659;
}
);
note = uni1EA2;
unicode = 7842;
},
{
glyphname = Amacron;
kernLeft = A;
kernRight = A;
lastChange = "2022-12-26 08:52:18 +0000";
layers = (
{
hints = (
{
horizontal = 1;
place = (-123, 21);
target = up;
type = BottomGhost;
},
{
horizontal = 1;
place = (21, -8);
place = (21, -8);
type = Stem;
},
{
horizontal = 1;
place = (574, -20);
target = down;
type = TopGhost;
},
{
horizontal = 1;
place = (647, -53);
place = (647, -53);
type = Stem;
},
{
place = (69, 152);
place = (69, 152);
type = Stem;
}
);
layerId = m01;
shapes = (
{
closed = 1;
nodes = (
(492,840,l),
(217,840,l),
(205,770,l),
(480,770,l)
);
},
{
closed = 1;
nodes = (
(396,0,l),
(532,0,l),
(377,697,l),
(283,697,l),
(-119,0,l),
(17,0,l),
(95,144,l),
(368,144,l)
);
},
{
closed = 1;
nodes = (
(159,259,l),
(298,513,l),
(347,259,l)
);
}
);
width = 659;
}
);
note = Amacron;
unicode = 256;
},
{
glyphname = Aogonek;
kernLeft = A;
kernRight = A;
lastChange = "2022-12-26 08:52:18 +0000";
layers = (
{
hints = (
{
horizontal = 1;
place = (-345, -49);
place = (-345, -49);
type = Stem;
},
{
horizontal = 1;
place = (-123, 21);
target = up;
type = BottomGhost;
},
{
horizontal = 1;
place = (21, -8);
place = (21, -8);
type = Stem;
},
{
horizontal = 1;
place = (574, -20);
target = down;
type = TopGhost;
},
{
place = (357, -51);
place = (357, -51);
type = Stem;
}
);
layerId = m01;
shapes = (
{
closed = 1;
nodes = (
(495,-120,l),
(479,-138,o),
(461,-148,o),
(440,-148,cs),
(420,-148,o),
(405,-139,o),
(410,-109,cs),
(422,-38,o),
(521,-4,o),
(532,0,c),
(377,697,l),
(283,697,l),
(-119,0,l),
(17,0,l),
(95,144,l),
(368,144,l),
(396,0,l),
(438,0,l),
(402,-18,o),
(347,-58,o),
(336,-121,cs),
(325,-182,o),
(366,-222,o),
(430,-222,cs),
(480,-222,o),
(518,-197,o),
(549,-162,c)
);
},
{
closed = 1;
nodes = (
(159,259,l),
(298,513,l),
(347,259,l)
);
}
);
width = 659;
}
);
note = Aogonek;
unicode = 260;
},
{
glyphname = Aring;
kernLeft = A;
kernRight = A;
lastChange = "2022-12-26 08:52:18 +0000";
layers = (
{
hints = (
{
horizontal = 1;
place = (-123, 21);
target = up;
type = BottomGhost;
},
{
horizontal = 1;
place = (21, -8);
place = (21, -8);
type = Stem;
},
{
horizontal = 1;
place = (717, -58);
place = (717, -58);
type = Stem;
},
{
place = (93, -58);
place = (93, -58);
type = Stem;
},
{
place = (256, -58);
place = (256, -58);
type = Stem;
}
);
layerId = m01;
shapes = (
{
closed = 1;
nodes = (
(396,0,l),
(532,0,l),
(379,689,l),
(420,707,o),
(453,746,o),
(461,791,cs),
(472,855,o),
(428,905,o),
(367,905,cs),
(304,905,o),
(244,854,o),
(233,791,cs),
(225,747,o),
(244,708,o),
(279,689,c),
(-119,0,l),
(17,0,l),
(95,144,l),
(368,144,l)
);
},
{
closed = 1;
nodes = (
(386,840,o),
(401,820,o),
(396,792,cs),
(391,763,o),
(367,742,o),
(338,742,cs),
(310,742,o),
(293,763,o),
(298,792,cs),
(303,820,o),
(325,840,o),
(355,840,cs)
);
},
{
closed = 1;
nodes = (
(159,259,l),
(298,513,l),
(347,259,l)
);
}
);
width = 659;
}
);
note = Aring;
unicode = 197;
},
{
glyphname = Atilde;
kernLeft = A;
kernRight = A;
lastChange = "2022-12-26 08:52:18 +0000";
layers = (
{
hints = (
{
horizontal = 1;
place = (-123, 21);
target = up;
type = BottomGhost;
},
{
horizontal = 1;
place = (21, -8);
place = (21, -8);
type = Stem;
},
{
horizontal = 1;
place = (574, -20);
target = down;
type = TopGhost;
},
{
horizontal = 1;
place = (707, -49);
place = (707, -49);
type = Stem;
},
{
place = (40, -54);
place = (40, -54);
type = Stem;
},
{
place = (301, -51);
place = (301, -51);
type = Stem;
},
{
horizontal = 1;
place = (637, -49);
place = (637, -49);
type = Stem;
}
);
layerId = m01;
shapes = (
{
closed = 1;
nodes = (
(324,830,o),
(326,760,o),
(404,760,cs),
(467,760,o),
(516,810,o),
(532,901,c),
(460,901,l),
(452,858,o),
(435,834,o),
(418,834,cs),
(383,834,o),
(374,904,o),
(305,904,cs),
(240,904,o),
(191,853,o),
(175,763,c),
(244,763,l),
(251,806,o),
(267,830,o),
(287,830,cs)
);
},
{
closed = 1;
nodes = (
(396,0,l),
(532,0,l),
(377,697,l),
(283,697,l),
(-119,0,l),
(17,0,l),
(95,144,l),
(368,144,l)
);
},
{
closed = 1;
nodes = (
(159,259,l),
(298,513,l),
(347,259,l)
);
}
);
width = 659;
}
);
note = Atilde;
unicode = 195;
},
{
glyphname = AE;
kernLeft = A;
lastChange = "2022-12-26 08:52:18 +0000";
layers = (
{
hints = (
{
horizontal = 1;
place = (-123, -10);
place = (-123, -10);
type = Stem;
},
{
horizontal = 1;
place = (29, -8);
place = (29, -8);
type = Stem;
},
{
horizontal = 1;
place = (464, -13);
place = (464, -13);
type = Stem;
},
{
place = (278, 3);
place = (278, 3);
type = Stem;
},
{
horizontal = 1;
place = (173, -18);
place = (173, -18);
type = Stem;
},
{
horizontal = 1;
place = (469, -18);
place = (469, -18);
type = Stem;
}
);
layerId = m01;
shapes = (
{
closed = 1;
nodes = (
(-119,0,l),
(17,0,l),
(100,152,l),
(305,152,l),
(278,0,l),
(752,0,l),
(772,113,l),
(424,113,l),
(456,296,l),
(761,296,l),
(780,401,l),
(475,401,l),
(508,587,l),
(856,587,l),
(875,697,l),
(282,697,l)
);
},
{
closed = 1;
nodes = (
(162,267,l),
(339,592,l),
(382,592,l),
(325,267,l)
);
}
);
width = 924;
}
);
note = AE;
unicode = 198;
},
{
glyphname = B;
kernLeft = B;
kernRight = B;
lastChange = "2022-12-26 08:52:18 +0000";
layers = (
{
hints = (
{
horizontal = 1;
place = (-123, -8);
place = (-123, -8);
type = Stem;
},
{
horizontal = 1;
place = (182, -8);
place = (182, -8);
type = Stem;
},
{
horizontal = 1;
place = (459, -8);
place = (459, -8);
type = Stem;
},
{
place = (-35, 2);
place = (-35, 2);
type = Stem;
},
{
place = (341, 2);
place = (341, 2);
type = Stem;
},
{
place = (304, 2);
place = (304, 2);
type = Stem;
}
);
layerId = m01;
shapes = (
{
closed = 1;
nodes = (
(-32,15,ls),
(-34,7,o),
(-28,0,o),
(-20,0,cs),
(239,0,ls),
(381,0,o),
(480,76,o),
(502,204,cs),
(517,291,o),
(489,349,o),
(418,376,c),
(472,404,o),
(510,456,o),
(521,521,cs),
(540,631,o),
(470,697,o),
(331,697,cs),
(103,697,ls),
(95,697,o),
(87,690,o),
(85,682,cs)
);
},
{
closed = 1;
nodes = (
(164,420,l),
(193,582,l),
(311,582,ls),
(372,582,o),
(401,552,o),
(392,499,cs),
(383,447,o),
(345,420,o),
(282,420,cs)
);
},
{
closed = 1;
nodes = (
(110,115,l),
(144,305,l),
(283,305,ls),
(356,305,o),
(389,273,o),
(379,214,cs),
(368,153,o),
(319,115,o),
(249,115,cs)
);
}
);
width = 629;
}
);
note = B;
unicode = 66;
},
{
glyphname = C;
kernLeft = C;
kernRight = C;
lastChange = "2022-12-26 08:52:18 +0000";
layers = (
{
hints = (
{
horizontal = 1;
place = (-138, -4);
place = (-138, -4);
type = Stem;
},
{
horizontal = 1;
place = (471, -4);
place = (471, -4);
type = Stem;
},
{
place = (-83, 2);
place = (-83, 2);
type = Stem;
}
);
layerId = m01;
shapes = (
{
closed = 1;
nodes = (
(401,-15,o),
(526,58,o),
(600,193,c),
(504,232,ls),
(497,235,o),
(488,231,o),
(483,223,cs),
(436,144,o),
(364,104,o),
(273,104,cs),
(139,104,o),
(76,193,o),
(104,350,cs),
(131,506,o),
(225,594,o),
(360,594,cs),
(450,594,o),
(508,556,o),
(527,478,cs),
(530,470,o),
(537,467,o),
(546,470,cs),
(654,509,l),
(626,642,o),
(528,713,o),
(381,713,cs),
(175,713,o),
(18,572,o),
(-21,349,cs),
(-61,126,o),
(46,-15,o),
(252,-15,cs)
);
}
);
width = 711;
}
);
note = C;
unicode = 67;
},
{
glyphname = Cacute;
kernLeft = C;
kernRight = C;
lastChange = "2022-12-26 08:52:18 +0000";
layers = (
{
hints = (
{
horizontal = 1;
place = (-138, -4);
place = (-138, -4);
type = Stem;
},
{
horizontal = 1;
place = (471, -4);
place = (471, -4);
type = Stem;
},
{
horizontal = 1;
place = (636, 19);
place = (636, 19);
type = Stem;
},
{
place = (-83, 2);
place = (-83, 2);
type = Stem;
}
);
layerId = m01;
shapes = (
{
closed = 1;
nodes = (
(350,759,l),
(438,759,l),
(615,901,l),
(486,901,l)
);
},
{
closed = 1;
nodes = (
(401,-15,o),
(526,58,o),
(600,193,c),
(491,237,l),
(445,149,o),
(369,104,o),
(273,104,cs),
(139,104,o),
(76,193,o),
(104,350,cs),
(131,506,o),
(225,594,o),
(360,594,cs),
(455,594,o),
(515,551,o),
(531,464,c),
(654,509,l),
(626,642,o),
(528,713,o),
(381,713,cs),
(175,713,o),
(18,572,o),
(-21,349,cs),
(-61,126,o),
(46,-15,o),
(252,-15,cs)
);
}
);
width = 711;
}
);
note = Cacute;
unicode = 262;
},
{
glyphname = Ccaron;
kernLeft = C;
kernRight = C;
lastChange = "2022-12-26 08:52:18 +0000";
layers = (
{
hints = (
{
horizontal = 1;
place = (-138, -4);
place = (-138, -4);
type = Stem;
},
{
horizontal = 1;
place = (471, -4);
place = (471, -4);
type = Stem;
},
{
place = (-83, 2);
place = (-83, 2);
type = Stem;
}
);
layerId = m01;
shapes = (
{
closed = 1;
nodes = (
(390,737,l),
(575,901,l),
(482,901,l),
(407,834,l),
(356,901,l),
(263,901,l)
);
},
{
closed = 1;
nodes = (
(401,-15,o),
(526,58,o),
(600,193,c),
(491,237,l),
(445,149,o),
(369,104,o),
(273,104,cs),
(139,104,o),
(76,193,o),
(104,350,cs),
(131,506,o),
(225,594,o),
(360,594,cs),
(455,594,o),
(515,551,o),
(531,464,c),
(654,509,l),
(626,642,o),
(528,713,o),
(381,713,cs),
(175,713,o),
(18,572,o),
(-21,349,cs),
(-61,126,o),
(46,-15,o),
(252,-15,cs)
);
}
);
width = 711;
}
);
note = Ccaron;
unicode = 268;
},
{
glyphname = Ccedilla;
kernLeft = C;
kernRight = C;
lastChange = "2022-12-26 08:52:18 +0000";
layers = (
{
hints = (
{
horizontal = 1;
place = (-381, -54);
place = (-381, -54);
type = Stem;
},
{
horizontal = 1;
place = (-136, 21);
target = up;
type = BottomGhost;
},
{
horizontal = 1;
place = (471, -4);
place = (471, -4);
type = Stem;
},
{
place = (-83, 2);
place = (-83, 2);
type = Stem;
},
{
place = (281, -53);
place = (281, -53);
type = Stem;
},
{
horizontal = 1;
place = (-219, 77);
place = (-219, 77);
type = Stem;
}
);
layerId = m01;
shapes = (
{
closed = 1;
nodes = (
(491,237,l),
(445,149,o),
(369,104,o),
(273,104,cs),
(139,104,o),
(76,193,o),
(104,350,cs),
(131,506,o),
(225,594,o),
(360,594,cs),
(455,594,o),
(515,551,o),
(531,464,c),
(654,509,l),
(626,642,o),
(528,713,o),
(381,713,cs),
(175,713,o),
(18,572,o),
(-21,349,cs),
(-58,141,o),
(33,4,o),
(214,-13,c),
(147,-96,l),
(169,-96,o),
(191,-97,o),
(209,-100,cs),
(238,-105,o),
(260,-120,o),
(255,-149,cs),
(251,-173,o),
(232,-189,o),
(208,-189,cs),
(196,-189,o),
(177,-186,o),
(160,-168,c),
(112,-226,l),
(137,-251,o),
(169,-258,o),
(193,-258,cs),
(258,-258,o),
(314,-209,o),
(325,-146,cs),
(331,-112,o),
(320,-84,o),
(294,-67,cs),
(282,-59,o),
(267,-53,o),
(248,-49,c),
(282,-14,l),
(418,-5,o),
(531,67,o),
(600,193,c)
);
}
);
width = 711;
}
);
note = Ccedilla;
unicode = 199;
},
{
glyphname = Cdotaccent;
kernLeft = C;
kernRight = C;
lastChange = "2022-12-26 08:52:18 +0000";
layers = (
{
hints = (
{
horizontal = 1;
place = (-138, -4);
place = (-138, -4);
type = Stem;
},
{
horizontal = 1;
place = (471, -4);
place = (471, -4);
type = Stem;
},
{
horizontal = 1;
place = (667, -12);
place = (667, -12);
type = Stem;
},
{
place = (-83, 2);
place = (-83, 2);
type = Stem;
},
{
place = (197, 3);
place = (197, 3);
type = Stem;
}
);
layerId = m01;
shapes = (
{
closed = 1;
nodes = (
(336,790,l),
(462,790,l),
(482,901,l),
(356,901,l)
);
},
{
closed = 1;
nodes = (
(401,-15,o),
(526,58,o),
(600,193,c),
(491,237,l),
(445,149,o),
(369,104,o),
(273,104,cs),
(139,104,o),
(76,193,o),
(104,350,cs),
(131,506,o),
(225,594,o),
(360,594,cs),
(455,594,o),
(515,551,o),
(531,464,c),
(654,509,l),
(626,642,o),
(528,713,o),
(381,713,cs),
(175,713,o),
(18,572,o),
(-21,349,cs),
(-61,126,o),
(46,-15,o),
(252,-15,cs)
);
}
);
width = 711;
}
);
note = Cdotaccent;
unicode = 266;
},
{
glyphname = D;
kernLeft = B;
kernRight = D;
lastChange = "2022-12-26 08:52:18 +0000";
layers = (
{
hints = (
{
horizontal = 1;
place = (-123, -8);
place = (-123, -8);
type = Stem;
},
{
horizontal = 1;
place = (459, -8);
place = (459, -8);
type = Stem;
},
{
place = (-35, 2);
place = (-35, 2);
type = Stem;
},
{
place = (404, 3);
place = (404, 3);
type = Stem;
}
);
layerId = m01;
shapes = (
{
closed = 1;
nodes = (
(88,697,o),
(83,667,qs),
(-35,0,l),
(166,0,ls),
(344,0,o),
(561,175,o),
(591,343,qs),
(621,514,o),
(464,697,o),
(290,697,qs),
(118,697,ls)
);
},
{
closed = 1;
nodes = (
(193,582,l),
(268,582,ls),
(392,582,o),
(487,469,o),
(465,348,qs),
(444,225,o),
(306,115,o),
(174,115,qs),
(110,115,l)
);
}
);
width = 691;
}
);
note = D;
unicode = 68;
},
{
glyphname = Eth;
kernLeft = B;
kernRight = D;
lastChange = "2022-12-26 08:52:18 +0000";
layers = (
{
hints = (
{
horizontal = 1;
place = (-123, -8);
place = (-123, -8);
type = Stem;
},
{
horizontal = 1;
place = (186, -43);
place = (186, -43);
type = Stem;
},
{
horizontal = 1;
place = (459, -8);
place = (459, -8);
type = Stem;
},
{
place = (-35, 2);
place = (-35, 2);
type = Stem;
},
{
place = (404, 3);
place = (404, 3);
type = Stem;
}
);
layerId = m01;
shapes = (
{
closed = 1;
nodes = (
(88,697,l),
(34,389,l),
(-45,389,l),
(-59,309,l),
(20,309,l),
(-35,0,l),
(166,0,ls),
(402,0,o),
(551,121,o),
(591,343,cs),
(630,569,o),
(521,697,o),
(290,697,cs)
);
},
{
closed = 1;
nodes = (
(110,115,l),
(145,309,l),
(264,309,l),
(278,389,l),
(159,389,l),
(193,582,l),
(268,582,ls),
(433,582,o),
(494,509,o),
(465,348,cs),
(437,184,o),
(350,115,o),
(174,115,cs)
);
}
);
width = 691;
}
);
note = Eth;
unicode = 208;
},
{
glyphname = Dcaron;
kernLeft = B;
kernRight = D;
lastChange = "2022-12-26 08:52:18 +0000";
layers = (
{
hints = (
{
horizontal = 1;
place = (-123, -8);
place = (-123, -8);
type = Stem;
},
{
horizontal = 1;
place = (459, -8);
place = (459, -8);
type = Stem;
},
{
place = (-35, 2);
place = (-35, 2);
type = Stem;
},
{
place = (404, 3);
place = (404, 3);
type = Stem;
}
);
layerId = m01;
shapes = (
{
closed = 1;
nodes = (
(353,737,l),
(538,901,l),
(445,901,l),
(370,834,l),
(319,901,l),
(226,901,l)
);
},
{
closed = 1;
nodes = (
(-35,0,l),
(166,0,ls),
(402,0,o),
(551,121,o),
(591,343,cs),
(630,569,o),
(521,697,o),
(290,697,cs),
(88,697,l)
);
},
{
closed = 1;
nodes = (
(110,115,l),
(193,582,l),
(268,582,ls),
(433,582,o),
(494,509,o),
(465,348,cs),
(437,184,o),
(350,115,o),
(174,115,cs)
);
}
);
width = 691;
}
);
note = Dcaron;
unicode = 270;
},
{
glyphname = Dcroat;
kernLeft = B;
kernRight = D;
lastChange = "2022-12-26 08:52:18 +0000";
layers = (
{
hints = (
{
horizontal = 1;
place = (-123, -8);
place = (-123, -8);
type = Stem;
},
{
horizontal = 1;
place = (186, -43);
place = (186, -43);
type = Stem;
},
{
horizontal = 1;
place = (459, -8);
place = (459, -8);
type = Stem;
},
{
place = (-35, 2);
place = (-35, 2);
type = Stem;
},
{
place = (404, 3);
place = (404, 3);
type = Stem;
}
);
layerId = m01;
shapes = (
{
closed = 1;
nodes = (
(88,697,l),
(34,389,l),
(-45,389,l),
(-59,309,l),
(20,309,l),
(-35,0,l),
(166,0,ls),
(402,0,o),
(551,121,o),
(591,343,cs),
(630,569,o),
(521,697,o),
(290,697,cs)
);
},
{
closed = 1;
nodes = (
(110,115,l),
(145,309,l),
(264,309,l),
(278,389,l),
(159,389,l),
(193,582,l),
(268,582,ls),
(433,582,o),
(494,509,o),
(465,348,cs),
(437,184,o),
(350,115,o),
(174,115,cs)
);
}
);
width = 691;
}
);
note = Dcroat;
unicode = 272;
},
{
glyphname = E;
kernLeft = B;
lastChange = "2022-12-26 08:52:18 +0000";
layers = (
{
hints = (
{
horizontal = 1;
place = (-123, -8);
place = (-123, -8);
type = Stem;
},
{
horizontal = 1;
place = (178, -8);
place = (178, -8);
type = Stem;
},
{
horizontal = 1;
place = (459, -8);
place = (459, -8);
type = Stem;
},
{
place = (-35, 2);
place = (-35, 2);
type = Stem;
}
);
layerId = m01;
shapes = (
{
closed = 1;
nodes = (
(478,416,o),
(448,416,qs),
(163,416,l),
(193,582,l),
(532,582,l),
(552,697,l),
(88,697,l),
(-35,0,l),
(429,0,l),
(449,115,l),
(110,115,l),
(143,301,l),
(458,301,l),
(473,386,ls)
);
}
);
width = 610;
}
);
note = E;
unicode = 69;
},
{
glyphname = Eacute;
kernLeft = B;
lastChange = "2022-12-26 08:52:18 +0000";
layers = (
{
hints = (
{
horizontal = 1;
place = (-123, -8);
place = (-123, -8);
type = Stem;
},
{
horizontal = 1;
place = (178, -8);
place = (178, -8);
type = Stem;
},
{
horizontal = 1;
place = (459, -8);
place = (459, -8);
type = Stem;
},
{
horizontal = 1;
place = (636, 19);
place = (636, 19);
type = Stem;
},
{
place = (-35, 2);
place = (-35, 2);
type = Stem;
}
);
layerId = m01;
shapes = (
{
closed = 1;
nodes = (
(287,759,l),
(375,759,l),
(552,901,l),
(423,901,l)
);
},
{
closed = 1;
nodes = (
(-35,0,l),
(429,0,l),
(449,115,l),
(110,115,l),
(143,301,l),
(458,301,l),
(478,416,l),
(163,416,l),
(193,582,l),
(532,582,l),
(552,697,l),
(88,697,l)
);
}
);
width = 610;
}
);
note = Eacute;
unicode = 201;
},
{
glyphname = Ecaron;
kernLeft = B;
lastChange = "2022-12-26 08:52:18 +0000";
layers = (
{
hints = (
{
horizontal = 1;
place = (-123, -8);
place = (-123, -8);
type = Stem;
},
{
horizontal = 1;
place = (178, -8);
place = (178, -8);
type = Stem;
},
{
horizontal = 1;
place = (459, -8);
place = (459, -8);
type = Stem;
},
{
place = (-35, 2);
place = (-35, 2);
type = Stem;
}
);
layerId = m01;
shapes = (
{
closed = 1;
nodes = (
(327,737,l),
(512,901,l),
(419,901,l),
(344,834,l),
(293,901,l),
(200,901,l)
);
},
{
closed = 1;
nodes = (
(-35,0,l),
(429,0,l),
(449,115,l),
(110,115,l),
(143,301,l),
(458,301,l),
(478,416,l),
(163,416,l),
(193,582,l),
(532,582,l),
(552,697,l),
(88,697,l)
);
}
);
width = 610;
}
);
note = Ecaron;
unicode = 282;
},
{
glyphname = Ecircumflex;
kernLeft = B;
lastChange = "2022-12-26 08:52:18 +0000";
layers = (
{
hints = (
{
horizontal = 1;
place = (-123, -8);
place = (-123, -8);
type = Stem;
},
{
horizontal = 1;
place = (178, -8);
place = (178, -8);
type = Stem;
},
{
horizontal = 1;
place = (459, -8);
place = (459, -8);
type = Stem;
},
{
place = (-35, 2);
place = (-35, 2);
type = Stem;
}
);
layerId = m01;
shapes = (
{
closed = 1;
nodes = (
(172,745,l),
(265,745,l),
(341,817,l),
(391,745,l),
(484,745,l),
(359,919,l)
);
},
{
closed = 1;
nodes = (
(-35,0,l),
(429,0,l),
(449,115,l),
(110,115,l),
(143,301,l),
(458,301,l),
(478,416,l),
(163,416,l),
(193,582,l),
(532,582,l),
(552,697,l),
(88,697,l)
);
}
);
width = 610;
}
);
note = Ecircumflex;
unicode = 202;
},
{
glyphname = uni1EBE;
kernLeft = B;
lastChange = "2022-12-26 08:52:18 +0000";
layers = (
{
hints = (
{
horizontal = 1;
place = (-123, -8);
place = (-123, -8);
type = Stem;
},
{
horizontal = 1;
place = (178, -8);
place = (178, -8);
type = Stem;
},
{
horizontal = 1;
place = (459, -8);
place = (459, -8);
type = Stem;
},
{
horizontal = 1;
place = (824, 19);
place = (824, 19);
type = Stem;
},
{
place = (-35, 2);
place = (-35, 2);
type = Stem;
}
);
layerId = m01;
shapes = (
{
closed = 1;
nodes = (
(320,947,l),
(408,947,l),
(585,1089,l),
(456,1089,l)
);
},
{
closed = 1;
nodes = (
(172,745,l),
(265,745,l),
(341,817,l),
(391,745,l),
(484,745,l),
(359,919,l)
);
},
{
closed = 1;
nodes = (
(-35,0,l),
(429,0,l),
(449,115,l),
(110,115,l),
(143,301,l),
(458,301,l),
(478,416,l),
(163,416,l),
(193,582,l),
(532,582,l),
(552,697,l),
(88,697,l)
);
}
);
width = 610;
}
);
note = uni1EBE;
unicode = 7870;
},
{
glyphname = uni1EC6;
kernLeft = B;
lastChange = "2022-12-26 08:52:18 +0000";
layers = (
{
hints = (
{
horizontal = 1;
place = (-296, -12);
place = (-296, -12);
type = Stem;
},
{
horizontal = 1;
place = (-123, -8);
place = (-123, -8);
type = Stem;
},
{
horizontal = 1;
place = (178, -8);
place = (178, -8);
type = Stem;
},
{
horizontal = 1;
place = (459, -8);
place = (459, -8);
type = Stem;
},
{
place = (-35, 2);
place = (-35, 2);
type = Stem;
},
{
place = (134, 3);
place = (134, 3);
type = Stem;
}
);
layerId = m01;
shapes = (
{
closed = 1;
nodes = (
(172,745,l),
(265,745,l),
(341,817,l),
(391,745,l),
(484,745,l),
(359,919,l)
);
},
{
closed = 1;
nodes = (
(-35,0,l),
(429,0,l),
(449,115,l),
(110,115,l),
(143,301,l),
(458,301,l),
(478,416,l),
(163,416,l),
(193,582,l),
(532,582,l),
(552,697,l),
(88,697,l)
);
},
{
closed = 1;
nodes = (
(104,-173,l),
(230,-173,l),
(249,-62,l),
(123,-62,l)
);
}
);
width = 610;
}
);
note = uni1EC6;
unicode = 7878;
},
{
glyphname = uni1EC0;
kernLeft = B;
lastChange = "2022-12-26 08:52:18 +0000";
layers = (
{
hints = (
{
horizontal = 1;
place = (-123, -8);
place = (-123, -8);
type = Stem;
},
{
horizontal = 1;
place = (178, -8);
place = (178, -8);
type = Stem;
},
{
horizontal = 1;
place = (459, -8);
place = (459, -8);
type = Stem;
},
{
horizontal = 1;
place = (824, 19);
place = (824, 19);
type = Stem;
},
{
place = (-35, 2);
place = (-35, 2);
type = Stem;
}
);
layerId = m01;
shapes = (
{
closed = 1;
nodes = (
(319,947,l),
(409,947,l),
(330,1089,l),
(202,1089,l)
);
},
{
closed = 1;
nodes = (
(172,745,l),
(265,745,l),
(341,817,l),
(391,745,l),
(484,745,l),
(359,919,l)
);
},
{
closed = 1;
nodes = (
(-35,0,l),
(429,0,l),
(449,115,l),
(110,115,l),
(143,301,l),
(458,301,l),
(478,416,l),
(163,416,l),
(193,582,l),
(532,582,l),
(552,697,l),
(88,697,l)
);
}
);
width = 610;
}
);
note = uni1EC0;
unicode = 7872;
},
{
glyphname = uni1EC2;
kernLeft = B;
lastChange = "2022-12-26 08:52:18 +0000";
layers = (
{
hints = (
{
horizontal = 1;
place = (-123, -8);
place = (-123, -8);
type = Stem;
},
{
horizontal = 1;
place = (178, -8);
place = (178, -8);
type = Stem;
},
{
horizontal = 1;
place = (459, -8);
place = (459, -8);
type = Stem;
},
{
horizontal = 1;
place = (921, -57);
place = (921, -57);
type = Stem;
},
{
place = (-35, 2);
place = (-35, 2);
type = Stem;
},
{
place = (234, -47);
place = (234, -47);
type = Stem;
}
);
layerId = m01;
shapes = (
{
closed = 1;
nodes = (
(350,924,l),
(402,932,o),
(477,944,o),
(489,1013,cs),
(500,1076,o),
(445,1110,o),
(356,1110,cs),
(341,1110,l),
(329,1044,l),
(344,1044,ls),
(380,1044,o),
(418,1044,o),
(412,1011,cs),
(407,981,o),
(375,977,o),
(345,973,c)
);
},
{
closed = 1;
nodes = (
(172,745,l),
(265,745,l),
(341,817,l),
(391,745,l),
(484,745,l),
(359,919,l)
);
},
{
closed = 1;
nodes = (
(-35,0,l),
(429,0,l),
(449,115,l),
(110,115,l),
(143,301,l),
(458,301,l),
(478,416,l),
(163,416,l),
(193,582,l),
(532,582,l),
(552,697,l),
(88,697,l)
);
}
);
width = 610;
}
);
note = uni1EC2;
unicode = 7874;
},
{
glyphname = uni1EC4;
kernLeft = B;
lastChange = "2022-12-26 08:52:18 +0000";
layers = (
{
hints = (
{
horizontal = 1;
place = (-123, -8);
place = (-123, -8);
type = Stem;
},
{
horizontal = 1;
place = (178, -8);
place = (178, -8);
type = Stem;
},
{
horizontal = 1;
place = (459, -8);
place = (459, -8);
type = Stem;
},
{
horizontal = 1;
place = (825, -49);
place = (825, -49);
type = Stem;
},
{
place = (-35, 2);
place = (-35, 2);
type = Stem;
},
{
place = (291, -51);
place = (291, -51);
type = Stem;
},
{
horizontal = 1;
place = (895, -49);
place = (895, -49);
type = Stem;
},
{
place = (30, -54);
place = (30, -54);
type = Stem;
}
);
layerId = m01;
shapes = (
{
closed = 1;
nodes = (
(490,948,o),
(539,998,o),
(555,1089,c),
(483,1089,l),
(476,1046,o),
(458,1022,o),
(441,1022,cs),
(406,1022,o),
(398,1092,o),
(329,1092,cs),
(264,1092,o),
(214,1041,o),
(198,951,c),
(267,951,l),
(274,994,o),
(291,1018,o),
(311,1018,cs),
(348,1018,o),
(349,948,o),
(427,948,cs)
);
},
{
closed = 1;
nodes = (
(172,745,l),
(265,745,l),
(341,817,l),
(391,745,l),
(484,745,l),
(359,919,l)
);
},
{
closed = 1;
nodes = (
(-35,0,l),
(429,0,l),
(449,115,l),
(110,115,l),
(143,301,l),
(458,301,l),
(478,416,l),
(163,416,l),
(193,582,l),
(532,582,l),
(552,697,l),
(88,697,l)
);
}
);
width = 610;
}
);
note = uni1EC4;
unicode = 7876;
},
{
glyphname = Edieresis;
kernLeft = B;
lastChange = "2022-12-26 08:52:18 +0000";
layers = (
{
hints = (
{
horizontal = 1;
place = (-123, -8);
place = (-123, -8);
type = Stem;
},
{
horizontal = 1;
place = (178, -8);
place = (178, -8);
type = Stem;
},
{
horizontal = 1;
place = (459, -8);
place = (459, -8);
type = Stem;
},
{
horizontal = 1;
place = (667, -12);
place = (667, -12);
type = Stem;
},
{
place = (49, -22);
place = (49, -22);
type = Stem;
},
{
place = (244, -22);
place = (244, -22);
type = Stem;
},
{
place = (-35, 2);
place = (-35, 2);
type = Stem;
}
);
layerId = m01;
shapes = (
{
closed = 1;
nodes = (
(188,790,l),
(289,790,l),
(309,901,l),
(208,901,l)
);
},
{
closed = 1;
nodes = (
(383,790,l),
(484,790,l),
(504,901,l),
(403,901,l)
);
},
{
closed = 1;
nodes = (
(-35,0,l),
(429,0,l),
(449,115,l),
(110,115,l),
(143,301,l),
(458,301,l),
(478,416,l),
(163,416,l),
(193,582,l),
(532,582,l),
(552,697,l),
(88,697,l)
);
}
);
width = 610;
}
);
note = Edieresis;
unicode = 203;
},
{
glyphname = Edotaccent;
kernLeft = B;
lastChange = "2022-12-26 08:52:18 +0000";
layers = (
{
hints = (
{
horizontal = 1;
place = (-123, -8);
place = (-123, -8);
type = Stem;
},
{
horizontal = 1;
place = (178, -8);
place = (178, -8);
type = Stem;
},
{
horizontal = 1;
place = (459, -8);
place = (459, -8);
type = Stem;
},
{
horizontal = 1;
place = (667, -12);
place = (667, -12);
type = Stem;
},
{
place = (-35, 2);
place = (-35, 2);
type = Stem;
},
{
place = (134, 3);
place = (134, 3);
type = Stem;
}
);
layerId = m01;
shapes = (
{
closed = 1;
nodes = (
(273,790,l),
(399,790,l),
(419,901,l),
(293,901,l)
);
},
{
closed = 1;
nodes = (
(-35,0,l),
(429,0,l),
(449,115,l),
(110,115,l),
(143,301,l),
(458,301,l),
(478,416,l),
(163,416,l),
(193,582,l),
(532,582,l),
(552,697,l),
(88,697,l)
);
}
);
width = 610;
}
);
note = Edotaccent;
unicode = 278;
},
{
glyphname = uni1EB8;
kernLeft = B;
lastChange = "2022-12-26 08:52:18 +0000";
layers = (
{
hints = (
{
horizontal = 1;
place = (-296, -12);
place = (-296, -12);
type = Stem;
},
{
horizontal = 1;
place = (-123, -8);
place = (-123, -8);
type = Stem;
},
{
horizontal = 1;
place = (178, -8);
place = (178, -8);
type = Stem;
},
{
horizontal = 1;
place = (459, -8);
place = (459, -8);
type = Stem;
},
{
place = (-35, 2);
place = (-35, 2);
type = Stem;
},
{
place = (134, 3);
place = (134, 3);
type = Stem;
}
);
layerId = m01;
shapes = (
{
closed = 1;
nodes = (
(-35,0,l),
(429,0,l),
(449,115,l),
(110,115,l),
(143,301,l),
(458,301,l),
(478,416,l),
(163,416,l),
(193,582,l),
(532,582,l),
(552,697,l),
(88,697,l)
);
},
{
closed = 1;
nodes = (
(104,-173,l),
(230,-173,l),
(249,-62,l),
(123,-62,l)
);
}
);
width = 610;
}
);
note = uni1EB8;
unicode = 7864;
},
{
glyphname = Egrave;
kernLeft = B;
lastChange = "2022-12-26 08:52:18 +0000";
layers = (
{
hints = (
{
horizontal = 1;
place = (-123, -8);
place = (-123, -8);
type = Stem;
},
{
horizontal = 1;
place = (178, -8);
place = (178, -8);
type = Stem;
},
{
horizontal = 1;
place = (459, -8);
place = (459, -8);
type = Stem;
},
{
horizontal = 1;
place = (636, 19);
place = (636, 19);
type = Stem;
},
{
place = (-35, 2);
place = (-35, 2);
type = Stem;
}
);
layerId = m01;
shapes = (
{
closed = 1;
nodes = (
(286,759,l),
(376,759,l),
(297,901,l),
(169,901,l)
);
},
{
closed = 1;
nodes = (
(-35,0,l),
(429,0,l),
(449,115,l),
(110,115,l),
(143,301,l),
(458,301,l),
(478,416,l),
(163,416,l),
(193,582,l),
(532,582,l),
(552,697,l),
(88,697,l)
);
}
);
width = 610;
}
);
note = Egrave;
unicode = 200;
},
{
glyphname = uni1EBA;
kernLeft = B;
lastChange = "2022-12-26 08:52:18 +0000";
layers = (
{
hints = (
{
horizontal = 1;
place = (-123, -8);
place = (-123, -8);
type = Stem;
},
{
horizontal = 1;
place = (178, -8);
place = (178, -8);
type = Stem;
},
{
horizontal = 1;
place = (459, -8);
place = (459, -8);
type = Stem;
},
{
horizontal = 1;
place = (733, -57);
place = (733, -57);
type = Stem;
},
{
place = (-35, 2);
place = (-35, 2);
type = Stem;
},
{
place = (234, -47);
place = (234, -47);
type = Stem;
}
);
layerId = m01;
shapes = (
{
closed = 1;
nodes = (
(317,736,l),
(369,744,o),
(443,756,o),
(456,825,cs),
(467,888,o),
(412,922,o),
(323,922,cs),
(308,922,l),
(296,856,l),
(311,856,ls),
(347,856,o),
(385,856,o),
(379,823,cs),
(374,793,o),
(342,789,o),
(312,785,c)
);
},
{
closed = 1;
nodes = (
(-35,0,l),
(429,0,l),
(449,115,l),
(110,115,l),
(143,301,l),
(458,301,l),
(478,416,l),
(163,416,l),
(193,582,l),
(532,582,l),
(552,697,l),
(88,697,l)
);
}
);
width = 610;
}
);
note = uni1EBA;
unicode = 7866;
},
{
glyphname = Emacron;
kernLeft = B;
lastChange = "2022-12-26 08:52:18 +0000";
layers = (
{
hints = (
{
horizontal = 1;
place = (-123, -8);
place = (-123, -8);
type = Stem;
},
{
horizontal = 1;
place = (178, -8);
place = (178, -8);
type = Stem;
},
{
horizontal = 1;
place = (459, -8);
place = (459, -8);
type = Stem;
},
{
horizontal = 1;
place = (647, -53);
place = (647, -53);
type = Stem;
},
{
place = (59, 152);
place = (59, 152);
type = Stem;
},
{
place = (-35, 2);
place = (-35, 2);
type = Stem;
}
);
layerId = m01;
shapes = (
{
closed = 1;
nodes = (
(195,770,l),
(470,770,l),
(482,840,l),
(207,840,l)
);
},
{
closed = 1;
nodes = (
(-35,0,l),
(429,0,l),
(449,115,l),
(110,115,l),
(143,301,l),
(458,301,l),
(478,416,l),
(163,416,l),
(193,582,l),
(532,582,l),
(552,697,l),
(88,697,l)
);
}
);
width = 610;
}
);
note = Emacron;
unicode = 274;
},
{
glyphname = Eogonek;
kernLeft = B;
lastChange = "2022-12-26 08:52:18 +0000";
layers = (
{
hints = (
{
horizontal = 1;
place = (-345, -49);
place = (-345, -49);
type = Stem;
},
{
horizontal = 1;
place = (-123, -8);
place = (-123, -8);
type = Stem;
},
{
horizontal = 1;
place = (178, -8);
place = (178, -8);
type = Stem;
},
{
horizontal = 1;
place = (459, -8);
place = (459, -8);
type = Stem;
},
{
place = (-35, 2);
place = (-35, 2);
type = Stem;
},
{
place = (254, -51);
place = (254, -51);
type = Stem;
}
);
layerId = m01;
shapes = (
{
closed = 1;
nodes = (
(392,-120,l),
(376,-138,o),
(358,-148,o),
(337,-148,cs),
(317,-148,o),
(302,-139,o),
(307,-109,cs),
(319,-38,o),
(418,-4,o),
(429,0,c),
(449,115,l),
(110,115,l),
(143,301,l),
(458,301,l),
(478,416,l),
(163,416,l),
(193,582,l),
(532,582,l),
(552,697,l),
(88,697,l),
(-35,0,l),
(335,0,l),
(299,-18,o),
(244,-58,o),
(233,-121,cs),
(222,-182,o),
(263,-222,o),
(327,-222,cs),
(377,-222,o),
(415,-197,o),
(446,-162,c)
);
}
);
width = 610;
}
);
note = Eogonek;
unicode = 280;
},
{
glyphname = uni1EBC;
kernLeft = B;
lastChange = "2022-12-26 08:52:18 +0000";
layers = (
{
hints = (
{
horizontal = 1;
place = (-123, -8);
place = (-123, -8);
type = Stem;
},
{
horizontal = 1;
place = (178, -8);
place = (178, -8);
type = Stem;
},
{
horizontal = 1;
place = (459, -8);
place = (459, -8);
type = Stem;
},
{
horizontal = 1;
place = (637, -49);
place = (637, -49);
type = Stem;
},
{
place = (-35, 2);
place = (-35, 2);
type = Stem;
},
{
place = (291, -51);
place = (291, -51);
type = Stem;
},
{
horizontal = 1;
place = (707, -49);
place = (707, -49);
type = Stem;
},
{
place = (30, -54);
place = (30, -54);
type = Stem;
}
);
layerId = m01;
shapes = (
{
closed = 1;
nodes = (
(457,760,o),
(506,810,o),
(522,901,c),
(450,901,l),
(442,858,o),
(425,834,o),
(408,834,cs),
(373,834,o),
(364,904,o),
(295,904,cs),
(230,904,o),
(181,853,o),
(165,763,c),
(234,763,l),
(241,806,o),
(257,830,o),
(277,830,cs),
(314,830,o),
(316,760,o),
(394,760,cs)
);
},
{
closed = 1;
nodes = (
(-35,0,l),
(429,0,l),
(449,115,l),
(110,115,l),
(143,301,l),
(458,301,l),
(478,416,l),
(163,416,l),
(193,582,l),
(532,582,l),
(552,697,l),
(88,697,l)
);
}
);
width = 610;
}
);
note = uni1EBC;
unicode = 7868;
},
{
glyphname = F;
kernLeft = B;
kernRight = F;
lastChange = "2022-12-26 08:52:18 +0000";
layers = (
{
hints = (
{
horizontal = 1;
place = (-123, 21);
target = up;
type = BottomGhost;
},
{
horizontal = 1;
place = (178, -8);
place = (178, -8);
type = Stem;
},
{
horizontal = 1;
place = (459, -8);
place = (459, -8);
type = Stem;
},
{
place = (-35, 2);
place = (-35, 2);
type = Stem;
}
);
layerId = m01;
shapes = (
{
closed = 1;
nodes = (
(27,0,l),
(108,100,l),
(143,301,l),
(468,301,l),
(488,416,l),
(163,416,l),
(193,582,l),
(547,582,ls),
(555,582,o),
(563,589,o),
(564,597,cs),
(582,697,l),
(88,697,l),
(-35,0,l)
);
}
);
width = 605;
}
);
note = F;
unicode = 70;
},
{
glyphname = G;
kernLeft = C;
kernRight = G;
lastChange = "2022-12-26 08:52:18 +0000";
layers = (
{
hints = (
{
horizontal = 1;
place = (-138, -4);
place = (-138, -4);
type = Stem;
},
{
horizontal = 1;
place = (139, -8);
place = (139, -8);
type = Stem;
},
{
horizontal = 1;
place = (471, -4);
place = (471, -4);
type = Stem;
},
{
place = (-85, 2);
place = (-85, 2);
type = Stem;
},
{
place = (445, 1);
place = (445, 1);
type = Stem;
},
{
horizontal = 1;
place = (-123, 21);
target = up;
type = BottomGhost;
}
);
layerId = m01;
shapes = (
{
closed = 1;
nodes = (
(654,509,o),
(645,537,qs),
(618,623,o),
(481,713,o),
(381,713,qs),
(303,713,o),
(167,658,o),
(61,560,o),
(-9,428,o),
(-23,350,qs),
(-38,267,o),
(-9,132,o),
(67,37,o),
(183,-15,o),
(256,-15,qs),
(324,-15,o),
(439,30,o),
(478,72,q),
(480,0,l),
(527,0,l),
(587,100,l),
(636,377,l),
(371,377,ls),
(363,377,o),
(354,370,o),
(353,362,cs),
(335,262,l),
(491,262,l),
(490,253,ls),
(477,182,o),
(370,104,o),
(285,104,qs),
(178,104,o),
(81,231,o),
(102,351,qs),
(122,466,o),
(257,594,o),
(358,594,qs),
(429,594,o),
(517,529,o),
(529,464,q),
(622,498,ls)
);
}
);
width = 755;
}
);
note = G;
unicode = 71;
},
{
glyphname = Gbreve;
kernLeft = C;
kernRight = G;
lastChange = "2022-12-26 08:52:18 +0000";
layers = (
{
hints = (
{
horizontal = 1;
place = (-138, -4);
place = (-138, -4);
type = Stem;
},
{
horizontal = 1;
place = (139, -8);
place = (139, -8);
type = Stem;
},
{
horizontal = 1;
place = (471, -4);
place = (471, -4);
type = Stem;
},
{
horizontal = 1;
place = (645, -53);
place = (645, -53);
type = Stem;
},
{
place = (-85, 2);
place = (-85, 2);
type = Stem;
},
{
place = (97, -38);
place = (97, -38);
type = Stem;
},
{
place = (445, 1);
place = (445, 1);
type = Stem;
},
{
horizontal = 1;
place = (645, 10);
place = (645, 10);
type = Stem;
},
{
place = (324, -38);
place = (324, -38);
type = Stem;
},
{
horizontal = 1;
place = (-123, 21);
target = up;
type = BottomGhost;
}
);
layerId = m01;
shapes = (
{
closed = 1;
nodes = (
(492,768,o),
(552,811,o),
(568,901,c),
(483,901,l),
(476,860,o),
(442,838,o),
(401,838,cs),
(362,838,o),
(333,858,o),
(341,901,c),
(256,901,l),
(241,815,o),
(281,768,o),
(389,768,cs)
);
},
{
closed = 1;
nodes = (
(356,377,l),
(335,262,l),
(491,262,l),
(490,253,ls),
(473,159,o),
(397,104,o),
(285,104,cs),
(143,104,o),
(74,192,o),
(102,351,cs),
(129,504,o),
(224,594,o),
(358,594,cs),
(452,594,o),
(513,550,o),
(529,464,c),
(652,509,l),
(624,641,o),
(523,713,o),
(381,713,cs),
(172,713,o),
(13,557,o),
(-23,350,cs),
(-62,129,o),
(61,-15,o),
(256,-15,cs),
(346,-15,o),
(427,16,o),
(478,72,c),
(480,0,l),
(569,0,l),
(636,377,l)
);
}
);
width = 755;
}
);
note = Gbreve;
unicode = 286;
},
{
glyphname = uni0122;
kernLeft = C;
kernRight = G;
lastChange = "2022-12-26 08:52:18 +0000";
layers = (
{
hints = (
{
horizontal = 1;
place = (-349, 50);
place = (-349, 50);
type = Stem;
},
{
horizontal = 1;
place = (-138, -4);
place = (-138, -4);
type = Stem;
},
{
horizontal = 1;
place = (139, -8);
place = (139, -8);
type = Stem;
},
{
horizontal = 1;
place = (471, -4);
place = (471, -4);
type = Stem;
},
{
place = (-85, 2);
place = (-85, 2);
type = Stem;
},
{
place = (445, 1);
place = (445, 1);
type = Stem;
},
{
horizontal = 1;
place = (-123, 21);
target = up;
type = BottomGhost;
}
);
layerId = m01;
shapes = (
{
closed = 1;
nodes = (
(356,377,l),
(335,262,l),
(491,262,l),
(490,253,ls),
(473,159,o),
(397,104,o),
(285,104,cs),
(143,104,o),
(74,192,o),
(102,351,cs),
(129,504,o),
(224,594,o),
(358,594,cs),
(452,594,o),
(513,550,o),
(529,464,c),
(652,509,l),
(624,641,o),
(523,713,o),
(381,713,cs),
(172,713,o),
(13,557,o),
(-23,350,cs),
(-62,129,o),
(61,-15,o),
(256,-15,cs),
(346,-15,o),
(427,16,o),
(478,72,c),
(480,0,l),
(569,0,l),
(636,377,l)
);
},
{
closed = 1;
nodes = (
(83,-226,l),
(153,-226,l),
(306,-53,l),
(181,-53,l)
);
}
);
width = 755;
}
);
note = uni0122;
unicode = 290;
},
{
glyphname = Gdotaccent;
kernLeft = C;
kernRight = G;
lastChange = "2022-12-26 08:52:18 +0000";
layers = (
{
hints = (
{
horizontal = 1;
place = (-138, -4);
place = (-138, -4);
type = Stem;
},
{
horizontal = 1;
place = (139, -8);
place = (139, -8);
type = Stem;
},
{
horizontal = 1;
place = (471, -4);
place = (471, -4);
type = Stem;
},
{
horizontal = 1;
place = (667, -12);
place = (667, -12);
type = Stem;
},
{
place = (-85, 2);
place = (-85, 2);
type = Stem;
},
{
place = (190, 3);
place = (190, 3);
type = Stem;
},
{
place = (445, 1);
place = (445, 1);
type = Stem;
},
{
horizontal = 1;
place = (-123, 21);
target = up;
type = BottomGhost;
}
);
layerId = m01;
shapes = (
{
closed = 1;
nodes = (
(475,901,l),
(349,901,l),
(329,790,l),
(455,790,l)
);
},
{
closed = 1;
nodes = (
(356,377,l),
(335,262,l),
(491,262,l),
(490,253,ls),
(473,159,o),
(397,104,o),
(285,104,cs),
(143,104,o),
(74,192,o),
(102,351,cs),
(129,504,o),
(224,594,o),
(358,594,cs),
(452,594,o),
(513,550,o),
(529,464,c),
(652,509,l),
(624,641,o),
(523,713,o),
(381,713,cs),
(172,713,o),
(13,557,o),
(-23,350,cs),
(-62,129,o),
(61,-15,o),
(256,-15,cs),
(346,-15,o),
(427,16,o),
(478,72,c),
(480,0,l),
(569,0,l),
(636,377,l)
);
}
);
width = 755;
}
);
note = Gdotaccent;
unicode = 288;
},
{
glyphname = H;
kernLeft = B;
kernRight = H;
lastChange = "2022-12-26 08:52:18 +0000";
layers = (
{
hints = (
{
horizontal = 1;
place = (-123, 21);
target = up;
type = BottomGhost;
},
{
horizontal = 1;
place = (178, -8);
place = (178, -8);
type = Stem;
},
{
horizontal = 1;
place = (574, -20);
target = down;
type = TopGhost;
},
{
place = (-35, 2);
place = (-35, 2);
type = Stem;
},
{
place = (395, 2);
place = (395, 2);
type = Stem;
}
);
layerId = m01;
shapes = (
{
closed = 1;
nodes = (
(-35,0,l),
(90,0,l),
(143,301,l),
(448,301,l),
(395,0,l),
(520,0,l),
(643,697,l),
(518,697,l),
(468,416,l),
(163,416,l),
(213,697,l),
(88,697,l)
);
}
);
width = 731;
}
);
note = H;
unicode = 72;
},
{
glyphname = Hbar;
kernLeft = B;
kernRight = H;
lastChange = "2022-12-26 08:52:18 +0000";
layers = (
{
hints = (
{
horizontal = 1;
place = (-123, 21);
target = up;
type = BottomGhost;
},
{
horizontal = 1;
place = (178, -8);
place = (178, -8);
type = Stem;
},
{
horizontal = 1;
place = (406, -52);
place = (406, -52);
type = Stem;
},
{
place = (-35, 2);
place = (-35, 2);
type = Stem;
},
{
place = (395, 2);
place = (395, 2);
type = Stem;
},
{
horizontal = 1;
place = (406, 45);
place = (406, 45);
type = Stem;
}
);
layerId = m01;
shapes = (
{
closed = 1;
nodes = (
(677,600,l),
(626,600,l),
(643,697,l),
(518,697,l),
(501,600,l),
(196,600,l),
(213,697,l),
(88,697,l),
(71,600,l),
(21,600,l),
(8,529,l),
(58,529,l),
(-35,0,l),
(90,0,l),
(143,301,l),
(448,301,l),
(395,0,l),
(520,0,l),
(613,529,l),
(664,529,l)
);
},
{
closed = 1;
nodes = (
(468,416,l),
(163,416,l),
(183,529,l),
(488,529,l)
);
}
);
width = 731;
}
);
note = Hbar;
unicode = 294;
},
{
glyphname = I;
kernLeft = B;
kernRight = H;
lastChange = "2022-12-26 08:52:18 +0000";
layers = (
{
hints = (
{
horizontal = 1;
place = (-123, 21);
target = up;
type = BottomGhost;
},
{
horizontal = 1;
place = (574, -20);
target = down;
type = TopGhost;
},
{
place = (-35, 2);
place = (-35, 2);
type = Stem;
}
);
layerId = m01;
shapes = (
{
closed = 1;
nodes = (
(-35,0,l),
(90,0,l),
(213,697,l),
(88,697,l)
);
}
);
width = 301;
}
);
note = I;
unicode = 73;
},
{
glyphname = Iacute;
kernLeft = B;
kernRight = H;
lastChange = "2022-12-26 08:52:18 +0000";
layers = (
{
hints = (
{
horizontal = 1;
place = (-123, 21);
target = up;
type = BottomGhost;
},
{
horizontal = 1;
place = (574, -20);
target = down;
type = TopGhost;
},
{
horizontal = 1;
place = (636, 19);
place = (636, 19);
type = Stem;
},
{
place = (-35, 2);
place = (-35, 2);
type = Stem;
}
);
layerId = m01;
shapes = (
{
closed = 1;
nodes = (
(118,759,l),
(206,759,l),
(383,901,l),
(254,901,l)
);
},
{
closed = 1;
nodes = (
(-35,0,l),
(90,0,l),
(213,697,l),
(88,697,l)
);
}
);
width = 301;
}
);
note = Iacute;
unicode = 205;
},
{
glyphname = uni01CF;
lastChange = "2022-12-26 08:52:18 +0000";
layers = (
{
hints = (
{
horizontal = 1;
place = (-123, 21);
target = up;
type = BottomGhost;
},
{
horizontal = 1;
place = (574, -20);
target = down;
type = TopGhost;
},
{
place = (-35, 2);
place = (-35, 2);
type = Stem;
}
);
layerId = m01;
shapes = (
{
closed = 1;
nodes = (
(158,737,l),
(343,901,l),
(250,901,l),
(175,834,l),
(124,901,l),
(31,901,l)
);
},
{
closed = 1;
nodes = (
(-35,0,l),
(90,0,l),
(213,697,l),
(88,697,l)
);
}
);
width = 301;
}
);
note = uni01CF;
unicode = 463;
},
{
glyphname = Icircumflex;
kernLeft = B;
kernRight = H;
lastChange = "2022-12-26 08:52:18 +0000";
layers = (
{
hints = (
{
horizontal = 1;
place = (-123, 21);
target = up;
type = BottomGhost;
},
{
horizontal = 1;
place = (574, -20);
target = down;
type = TopGhost;
},
{
place = (-35, 2);
place = (-35, 2);
type = Stem;
}
);
layerId = m01;
shapes = (
{
closed = 1;
nodes = (
(3,745,l),
(96,745,l),
(172,817,l),
(222,745,l),
(315,745,l),
(190,919,l)
);
},
{
closed = 1;
nodes = (
(-35,0,l),
(90,0,l),
(213,697,l),
(88,697,l)
);
}
);
width = 301;
}
);
note = Icircumflex;
unicode = 206;
},
{
glyphname = Idieresis;
kernLeft = B;
kernRight = H;
lastChange = "2022-12-26 08:52:18 +0000";
layers = (
{
hints = (
{
horizontal = 1;
place = (-123, 21);
target = up;
type = BottomGhost;
},
{
horizontal = 1;
place = (574, -20);
target = down;
type = TopGhost;
},
{
horizontal = 1;
place = (667, -12);
place = (667, -12);
type = Stem;
},
{
place = (-120, -22);
place = (-120, -22);
type = Stem;
},
{
place = (75, -22);
place = (75, -22);
type = Stem;
},
{
place = (-35, 2);
place = (-35, 2);
type = Stem;
}
);
layerId = m01;
shapes = (
{
closed = 1;
nodes = (
(19,790,l),
(120,790,l),
(140,901,l),
(39,901,l)
);
},
{
closed = 1;
nodes = (
(214,790,l),
(315,790,l),
(335,901,l),
(234,901,l)
);
},
{
closed = 1;
nodes = (
(-35,0,l),
(90,0,l),
(213,697,l),
(88,697,l)
);
}
);
width = 301;
}
);
note = Idieresis;
unicode = 207;
},
{
glyphname = Idotaccent;
kernLeft = B;
kernRight = H;
lastChange = "2022-12-26 08:52:18 +0000";
layers = (
{
hints = (
{
horizontal = 1;
place = (-123, 21);
target = up;
type = BottomGhost;
},
{
horizontal = 1;
place = (574, -20);
target = down;
type = TopGhost;
},
{
horizontal = 1;
place = (667, -12);
place = (667, -12);
type = Stem;
},
{
place = (-35, 2);
place = (-35, 2);
type = Stem;
},
{
place = (-35, 3);
place = (-35, 3);
type = Stem;
}
);
layerId = m01;
shapes = (
{
closed = 1;
nodes = (
(104,790,l),
(230,790,l),
(250,901,l),
(124,901,l)
);
},
{
closed = 1;
nodes = (
(-35,0,l),
(90,0,l),
(213,697,l),
(88,697,l)
);
}
);
width = 301;
}
);
note = Idotaccent;
unicode = 304;
},
{
glyphname = uni1ECA;
lastChange = "2022-12-26 08:52:18 +0000";
layers = (
{
hints = (
{
horizontal = 1;
place = (-296, -12);
place = (-296, -12);
type = Stem;
},
{
horizontal = 1;
place = (-123, 21);
target = up;
type = BottomGhost;
},
{
horizontal = 1;
place = (574, -20);
target = down;
type = TopGhost;
},
{
place = (-35, 2);
place = (-35, 2);
type = Stem;
},
{
place = (-35, 3);
place = (-35, 3);
type = Stem;
}
);
layerId = m01;
shapes = (
{
closed = 1;
nodes = (
(-35,0,l),
(90,0,l),
(213,697,l),
(88,697,l)
);
},
{
closed = 1;
nodes = (
(-65,-173,l),
(61,-173,l),
(80,-62,l),
(-46,-62,l)
);
}
);
width = 301;
}
);
note = uni1ECA;
unicode = 7882;
},
{
glyphname = Igrave;
kernLeft = B;
kernRight = H;
lastChange = "2022-12-26 08:52:18 +0000";
layers = (
{
hints = (
{
horizontal = 1;
place = (-123, 21);
target = up;
type = BottomGhost;
},
{
horizontal = 1;
place = (574, -20);
target = down;
type = TopGhost;
},
{
horizontal = 1;
place = (636, 19);
place = (636, 19);
type = Stem;
},
{
place = (-35, 2);
place = (-35, 2);
type = Stem;
}
);
layerId = m01;
shapes = (
{
closed = 1;
nodes = (
(117,759,l),
(207,759,l),
(128,901,l),
(0,901,l)
);
},
{
closed = 1;
nodes = (
(-35,0,l),
(90,0,l),
(213,697,l),
(88,697,l)
);
}
);
width = 301;
}
);
note = Igrave;
unicode = 204;
},
{
glyphname = uni1EC8;
lastChange = "2022-12-26 08:52:18 +0000";
layers = (
{
hints = (
{
horizontal = 1;
place = (-123, 21);
target = up;
type = BottomGhost;
},
{
horizontal = 1;
place = (574, -20);
target = down;
type = TopGhost;
},
{
horizontal = 1;
place = (733, -57);
place = (733, -57);
type = Stem;
},
{
place = (-35, 2);
place = (-35, 2);
type = Stem;
},
{
place = (65, -47);
place = (65, -47);
type = Stem;
},
{
place = (-24, -9);
place = (-24, -9);
type = Stem;
}
);
layerId = m01;
shapes = (
{
closed = 1;
nodes = (
(148,736,l),
(200,744,o),
(274,756,o),
(287,825,cs),
(298,888,o),
(243,922,o),
(154,922,cs),
(139,922,l),
(127,856,l),
(142,856,ls),
(178,856,o),
(216,856,o),
(210,823,cs),
(205,793,o),
(173,789,o),
(143,785,c)
);
},
{
closed = 1;
nodes = (
(-35,0,l),
(90,0,l),
(213,697,l),
(88,697,l)
);
}
);
width = 301;
}
);
note = uni1EC8;
unicode = 7880;
},
{
glyphname = Imacron;
kernLeft = B;
kernRight = H;
lastChange = "2022-12-26 08:52:18 +0000";
layers = (
{
hints = (
{
horizontal = 1;
place = (-123, 21);
target = up;
type = BottomGhost;
},
{
horizontal = 1;
place = (574, -20);
target = down;
type = TopGhost;
},
{
horizontal = 1;
place = (647, -53);
place = (647, -53);
type = Stem;
},
{
place = (-35, 2);
place = (-35, 2);
type = Stem;
}
);
layerId = m01;
shapes = (
{
closed = 1;
nodes = (
(26,770,l),
(301,770,l),
(313,840,l),
(38,840,l)
);
},
{
closed = 1;
nodes = (
(-35,0,l),
(90,0,l),
(213,697,l),
(88,697,l)
);
}
);
width = 301;
}
);
note = Imacron;
unicode = 298;
},
{
glyphname = Iogonek;
kernLeft = B;
kernRight = H;
lastChange = "2022-12-26 08:52:18 +0000";
layers = (
{
hints = (
{
horizontal = 1;
place = (-345, -49);
place = (-345, -49);
type = Stem;
},
{
horizontal = 1;
place = (-123, 21);
target = up;
type = BottomGhost;
},
{
horizontal = 1;
place = (574, -20);
target = down;
type = TopGhost;
},
{
place = (-85, -51);
place = (-85, -51);
type = Stem;
},
{
place = (-35, 2);
place = (-35, 2);
type = Stem;
}
);
layerId = m01;
shapes = (
{
closed = 1;
nodes = (
(53,-120,l),
(37,-138,o),
(19,-148,o),
(-2,-148,cs),
(-22,-148,o),
(-37,-139,o),
(-32,-109,cs),
(-20,-38,o),
(79,-4,o),
(90,0,c),
(213,697,l),
(88,697,l),
(-35,0,l),
(-4,0,l),
(-40,-18,o),
(-95,-58,o),
(-106,-121,cs),
(-117,-182,o),
(-76,-222,o),
(-12,-222,cs),
(38,-222,o),
(76,-197,o),
(107,-162,c)
);
}
);
width = 301;
}
);
note = Iogonek;
unicode = 302;
},
{
glyphname = Itilde;
lastChange = "2022-12-26 08:52:18 +0000";
layers = (
{
hints = (
{
horizontal = 1;
place = (-123, 21);
target = up;
type = BottomGhost;
},
{
horizontal = 1;
place = (574, -20);
target = down;
type = TopGhost;
},
{
horizontal = 1;
place = (637, -49);
place = (637, -49);
type = Stem;
},
{
place = (-35, 2);
place = (-35, 2);
type = Stem;
},
{
place = (122, -51);
place = (122, -51);
type = Stem;
},
{
horizontal = 1;
place = (707, -49);
place = (707, -49);
type = Stem;
},
{
place = (-139, -54);
place = (-139, -54);
type = Stem;
}
);
layerId = m01;
shapes = (
{
closed = 1;
nodes = (
(288,760,o),
(337,810,o),
(353,901,c),
(281,901,l),
(273,858,o),
(256,834,o),
(239,834,cs),
(204,834,o),
(195,904,o),
(126,904,cs),
(61,904,o),
(12,853,o),
(-4,763,c),
(65,763,l),
(72,806,o),
(88,830,o),
(108,830,cs),
(145,830,o),
(147,760,o),
(225,760,cs)
);
},
{
closed = 1;
nodes = (
(-35,0,l),
(90,0,l),
(213,697,l),
(88,697,l)
);
}
);
width = 301;
}
);
note = Itilde;
unicode = 296;
},
{
glyphname = J;
kernLeft = J;
kernRight = J;
lastChange = "2022-12-26 08:52:18 +0000";
layers = (
{
hints = (
{
horizontal = 1;
place = (-138, -7);
place = (-138, -7);
type = Stem;
},
{
horizontal = 1;
place = (459, -8);
place = (459, -8);
type = Stem;
},
{
place = (-109, 0);
place = (-109, 0);
type = Stem;
},
{
place = (237, 2);
place = (237, 2);
type = Stem;
}
);
layerId = m01;
shapes = (
{
closed = 1;
nodes = (
(-72,217,o),
(-73,187,qs),
(-75,90,o),
(29,-15,o),
(124,-15,qs),
(233,-15,o),
(383,121,o),
(405,242,qs),
(485,697,l),
(197,697,l),
(87,641,l),
(77,582,l),
(340,582,l),
(281,249,ls),
(267,172,o),
(202,101,o),
(145,101,qs),
(91,101,o),
(48,163,o),
(55,231,q),
(-40,220,ls)
);
}
);
width = 560;
}
);
note = J;
unicode = 74;
},
{
glyphname = K;
kernLeft = B;
kernRight = K;
lastChange = "2022-12-26 08:52:18 +0000";
layers = (
{
hints = (
{
horizontal = 1;
place = (-123, 21);
target = up;
type = BottomGhost;
},
{
horizontal = 1;
place = (574, -20);
target = down;
type = TopGhost;
},
{
place = (-35, 2);
place = (-35, 2);
type = Stem;
}
);
layerId = m01;
shapes = (
{
closed = 1;
nodes = (
(521,0,o),
(512,27,qs),
(384,433,l),
(690,697,l),
(526,697,l),
(155,369,l),
(213,697,l),
(150,697,l),
(70,597,l),
(-35,0,l),
(90,0,l),
(127,212,l),
(284,347,l),
(375,0,l),
(490,0,ls)
);
}
);
width = 704;
}
);
note = K;
unicode = 75;
},
{
glyphname = uni0136;
kernLeft = B;
kernRight = K;
lastChange = "2022-12-26 08:52:18 +0000";
layers = (
{
hints = (
{
horizontal = 1;
place = (-349, 50);
place = (-349, 50);
type = Stem;
},
{
horizontal = 1;
place = (-123, 21);
target = up;
type = BottomGhost;
},
{
horizontal = 1;
place = (574, -20);
target = down;
type = TopGhost;
},
{
place = (-35, 2);
place = (-35, 2);
type = Stem;
}
);
layerId = m01;
shapes = (
{
closed = 1;
nodes = (
(384,433,l),
(690,697,l),
(526,697,l),
(155,369,l),
(213,697,l),
(88,697,l),
(-35,0,l),
(90,0,l),
(127,212,l),
(284,347,l),
(429,0,l),
(574,0,l)
);
},
{
closed = 1;
nodes = (
(59,-226,l),
(129,-226,l),
(282,-53,l),
(157,-53,l)
);
}
);
width = 704;
}
);
note = uni0136;
unicode = 310;
},
{
glyphname = L;
kernLeft = B;
kernRight = L;
lastChange = "2022-12-26 08:52:18 +0000";
layers = (
{
hints = (
{
horizontal = 1;
place = (-123, -8);
place = (-123, -8);
type = Stem;
},
{
horizontal = 1;
place = (574, -20);
target = down;
type = TopGhost;
},
{
place = (-35, 2);
place = (-35, 2);
type = Stem;
}
);
layerId = m01;
shapes = (
{
closed = 1;
nodes = (
(-35,0,l),
(388,0,l),
(408,115,l),
(110,115,l),
(213,697,l),
(88,697,l)
);
}
);
width = 520;
}
);
note = L;
unicode = 76;
},
{
glyphname = Lacute;
kernLeft = B;
kernRight = L;
lastChange = "2022-12-26 08:52:18 +0000";
layers = (
{
hints = (
{
horizontal = 1;
place = (-123, -8);
place = (-123, -8);
type = Stem;
},
{
horizontal = 1;
place = (574, -20);
target = down;
type = TopGhost;
},
{
horizontal = 1;
place = (636, 19);
place = (636, 19);
type = Stem;
},
{
place = (-35, 2);
place = (-35, 2);
type = Stem;
}
);
layerId = m01;
shapes = (
{
closed = 1;
nodes = (
(118,759,l),
(206,759,l),
(383,901,l),
(254,901,l)
);
},
{
closed = 1;
nodes = (
(-35,0,l),
(388,0,l),
(408,115,l),
(110,115,l),
(213,697,l),
(88,697,l)
);
}
);
width = 520;
}
);
note = Lacute;
unicode = 313;
},
{
glyphname = Lcaron;
kernLeft = B;
kernRight = L;
lastChange = "2022-12-26 08:52:18 +0000";
layers = (
{
hints = (
{
horizontal = 1;
place = (-123, -8);
place = (-123, -8);
type = Stem;
},
{
horizontal = 1;
place = (350, 101);
place = (350, 101);
type = Stem;
},
{
place = (-35, 2);
place = (-35, 2);
type = Stem;
}
);
layerId = m01;
shapes = (
{
closed = 1;
nodes = (
(-35,0,l),
(388,0,l),
(408,115,l),
(110,115,l),
(213,697,l),
(88,697,l)
);
},
{
closed = 1;
nodes = (
(299,473,l),
(369,473,l),
(520,697,l),
(394,697,l)
);
}
);
width = 520;
}
);
note = Lcaron;
unicode = 317;
},
{
glyphname = uni013B;
kernLeft = B;
kernRight = L;
lastChange = "2022-12-26 08:52:18 +0000";
layers = (
{
hints = (
{
horizontal = 1;
place = (-349, 50);
place = (-349, 50);
type = Stem;
},
{
horizontal = 1;
place = (-123, -8);
place = (-123, -8);
type = Stem;
},
{
horizontal = 1;
place = (574, -20);
target = down;
type = TopGhost;
},
{
place = (-35, 2);
place = (-35, 2);
type = Stem;
}
);
layerId = m01;
shapes = (
{
closed = 1;
nodes = (
(-35,0,l),
(388,0,l),
(408,115,l),
(110,115,l),
(213,697,l),
(88,697,l)
);
},
{
closed = 1;
nodes = (
(7,-226,l),
(77,-226,l),
(230,-53,l),
(105,-53,l)
);
}
);
width = 520;
}
);
note = uni013B;
unicode = 315;
},
{
glyphname = Lslash;
lastChange = "2022-12-26 08:52:18 +0000";
layers = (
{
hints = (
{
horizontal = 1;
place = (-123, -8);
place = (-123, -8);
type = Stem;
},
{
horizontal = 1;
place = (574, -20);
target = down;
type = TopGhost;
},
{
place = (-35, 2);
place = (-35, 2);
type = Stem;
}
);
layerId = m01;
shapes = (
{
closed = 1;
nodes = (
(110,115,l),
(144,307,l),
(266,392,l),
(288,514,l),
(166,430,l),
(213,697,l),
(88,697,l),
(23,331,l),
(-47,282,l),
(-69,158,l),
(2,207,l),
(-35,0,l),
(388,0,l),
(408,115,l)
);
}
);
width = 520;
}
);
note = Lslash;
unicode = 321;
},
{
glyphname = M;
kernLeft = B;
kernRight = H;
lastChange = "2022-12-26 08:52:18 +0000";
layers = (
{
hints = (
{
horizontal = 1;
place = (-123, 21);
target = up;
type = BottomGhost;
},
{
horizontal = 1;
place = (574, -20);
target = down;
type = TopGhost;
},
{
place = (-35, 2);
place = (-35, 2);
type = Stem;
},
{
place = (557, 2);
place = (557, 2);
type = Stem;
},
{
horizontal = 1;
place = (398, 53);
place = (398, 53);
type = Stem;
}
);
layerId = m01;
shapes = (
{
closed = 1;
nodes = (
(90,0,o),
(95,30,qs),
(182,521,l),
(274,61,l),
(395,61,l),
(649,521,l),
(562,30,ls),
(557,0,o),
(587,0,qs),
(682,0,l),
(805,697,l),
(626,697,l),
(359,206,l),
(267,697,l),
(88,697,l),
(-35,0,l),
(60,0,ls)
);
}
);
width = 893;
}
);
note = M;
unicode = 77;
},
{
glyphname = N;
kernLeft = B;
kernRight = H;
lastChange = "2022-12-26 08:52:18 +0000";
layers = (
{
hints = (
{
horizontal = 1;
place = (-123, 21);
target = up;
type = BottomGhost;
},
{
horizontal = 1;
place = (574, -20);
target = down;
type = TopGhost;
},
{
place = (-35, 2);
place = (-35, 2);
type = Stem;
},
{
place = (387, 2);
place = (387, 2);
type = Stem;
}
);
layerId = m01;
shapes = (
{
closed = 1;
nodes = (
(425,217,l),
(217,697,l),
(88,697,l),
(-35,0,l),
(27,0,l),
(108,100,l),
(175,482,l),
(382,0,l),
(512,0,l),
(635,697,l),
(510,697,l)
);
}
);
width = 723;
}
);
note = N;
unicode = 78;
},
{
glyphname = Nacute;
kernLeft = B;
kernRight = H;
lastChange = "2022-12-26 08:52:18 +0000";
layers = (
{
hints = (
{
horizontal = 1;
place = (-123, 21);
target = up;
type = BottomGhost;
},
{
horizontal = 1;
place = (574, -20);
target = down;
type = TopGhost;
},
{
horizontal = 1;
place = (636, 19);
place = (636, 19);
type = Stem;
},
{
place = (-35, 2);
place = (-35, 2);
type = Stem;
},
{
place = (387, 2);
place = (387, 2);
type = Stem;
}
);
layerId = m01;
shapes = (
{
closed = 1;
nodes = (
(594,901,l),
(465,901,l),
(329,759,l),
(417,759,l)
);
},
{
closed = 1;
nodes = (
(510,697,l),
(425,217,l),
(217,697,l),
(88,697,l),
(-35,0,l),
(90,0,l),
(175,482,l),
(382,0,l),
(512,0,l),
(635,697,l)
);
}
);
width = 723;
}
);
note = Nacute;
unicode = 323;
},
{
glyphname = Ncaron;
kernLeft = B;
kernRight = H;
lastChange = "2022-12-26 08:52:18 +0000";
layers = (
{
hints = (
{
horizontal = 1;
place = (-123, 21);
target = up;
type = BottomGhost;
},
{
horizontal = 1;
place = (574, -20);
target = down;
type = TopGhost;
},
{
place = (-35, 2);
place = (-35, 2);
type = Stem;
},
{
place = (387, 2);
place = (387, 2);
type = Stem;
}
);
layerId = m01;
shapes = (
{
closed = 1;
nodes = (
(554,901,l),
(461,901,l),
(386,834,l),
(335,901,l),
(242,901,l),
(369,737,l)
);
},
{
closed = 1;
nodes = (
(510,697,l),
(425,217,l),
(217,697,l),
(88,697,l),
(-35,0,l),
(90,0,l),
(175,482,l),
(382,0,l),
(512,0,l),
(635,697,l)
);
}
);
width = 723;
}
);
note = Ncaron;
unicode = 327;
},
{
glyphname = uni0145;
kernLeft = B;
kernRight = H;
lastChange = "2022-12-26 08:52:18 +0000";
layers = (
{
hints = (
{
horizontal = 1;
place = (-349, 50);
place = (-349, 50);
type = Stem;
},
{
horizontal = 1;
place = (-123, 21);
target = up;
type = BottomGhost;
},
{
horizontal = 1;
place = (574, -20);
target = down;
type = TopGhost;
},
{
place = (-35, 2);
place = (-35, 2);
type = Stem;
},
{
place = (387, 2);
place = (387, 2);
type = Stem;
}
);
layerId = m01;
shapes = (
{
closed = 1;
nodes = (
(510,697,l),
(425,217,l),
(217,697,l),
(88,697,l),
(-35,0,l),
(90,0,l),
(175,482,l),
(382,0,l),
(512,0,l),
(635,697,l)
);
},
{
closed = 1;
nodes = (
(69,-226,l),
(139,-226,l),
(292,-53,l),
(167,-53,l)
);
}
);
width = 723;
}
);
note = uni0145;
unicode = 325;
},
{
glyphname = Eng;
kernLeft = B;
kernRight = H;
lastChange = "2022-12-26 08:52:18 +0000";
layers = (
{
hints = (
{
horizontal = 1;
place = (-305, -41);
place = (-305, -41);
type = Stem;
},
{
horizontal = 1;
place = (-123, 21);
target = up;
type = BottomGhost;
},
{
horizontal = 1;
place = (574, -20);
target = down;
type = TopGhost;
},
{
place = (-35, 2);
place = (-35, 2);
type = Stem;
},
{
place = (387, 2);
place = (387, 2);
type = Stem;
},
{
place = (393, -4);
place = (393, -4);
type = Stem;
}
);
layerId = m01;
shapes = (
{
closed = 1;
nodes = (
(510,697,l),
(426,223,l),
(217,697,l),
(88,697,l),
(-35,0,l),
(90,0,l),
(174,475,l),
(382,0,ls),
(388,-13,o),
(388,-27,o),
(386,-38,cs),
(381,-71,o),
(348,-100,o),
(290,-100,cs),
(279,-100,o),
(267,-99,o),
(254,-97,c),
(240,-176,l),
(265,-181,o),
(288,-182,o),
(309,-182,cs),
(436,-182,o),
(496,-93,o),
(512,0,cs),
(635,697,l)
);
}
);
width = 724;
}
);
note = Eng;
unicode = 330;
},
{
glyphname = Ntilde;
kernLeft = B;
kernRight = H;
lastChange = "2022-12-26 08:52:18 +0000";
layers = (
{
hints = (
{
horizontal = 1;
place = (-123, 21);
target = up;
type = BottomGhost;
},
{
horizontal = 1;
place = (574, -20);
target = down;
type = TopGhost;
},
{
horizontal = 1;
place = (707, -49);
place = (707, -49);
type = Stem;
},
{
place = (72, -54);
place = (72, -54);
type = Stem;
},
{
place = (387, 2);
place = (387, 2);
type = Stem;
},
{
horizontal = 1;
place = (637, -49);
place = (637, -49);
type = Stem;
},
{
place = (-35, 2);
place = (-35, 2);
type = Stem;
},
{
place = (333, -51);
place = (333, -51);
type = Stem;
}
);
layerId = m01;
shapes = (
{
closed = 1;
nodes = (
(356,830,o),
(358,760,o),
(436,760,cs),
(499,760,o),
(548,810,o),
(564,901,c),
(492,901,l),
(484,858,o),
(467,834,o),
(450,834,cs),
(415,834,o),
(406,904,o),
(337,904,cs),
(272,904,o),
(223,853,o),
(207,763,c),
(276,763,l),
(283,806,o),
(299,830,o),
(319,830,cs)
);
},
{
closed = 1;
nodes = (
(510,697,l),
(425,217,l),
(217,697,l),
(88,697,l),
(-35,0,l),
(90,0,l),
(175,482,l),
(382,0,l),
(512,0,l),
(635,697,l)
);
}
);
width = 723;
}
);
note = Ntilde;
unicode = 209;
},
{
glyphname = O;
kernLeft = C;
kernRight = D;
lastChange = "2022-12-26 08:52:18 +0000";
layers = (
{
hints = (
{
horizontal = 1;
place = (-138, -4);
place = (-138, -4);
type = Stem;
},
{
horizontal = 1;
place = (470, -4);
place = (470, -4);
type = Stem;
},
{
place = (-84, 2);
place = (-84, 2);
type = Stem;
},
{
place = (457, 2);
place = (457, 2);
type = Stem;
}
);
layerId = m01;
shapes = (
{
closed = 1;
nodes = (
(444,-15,o),
(605,130,o),
(643,348,cs),
(682,567,o),
(574,712,o),
(375,712,cs),
(177,712,o),
(16,567,o),
(-23,348,cs),
(-61,130,o),
(48,-15,o),
(246,-15,cs)
);
},
{
closed = 1;
nodes = (
(132,73,o),
(76,197,o),
(102,348,cs),
(129,500,o),
(232,624,o),
(359,624,cs),
(486,624,o),
(545,499,o),
(518,348,cs),
(492,198,o),
(386,73,o),
(259,73,cs)
);
}
);
width = 744;
}
);
note = O;
unicode = 79;
},
{
glyphname = Oacute;
kernLeft = C;
kernRight = D;
lastChange = "2022-12-26 08:52:18 +0000";
layers = (
{
hints = (
{
horizontal = 1;
place = (-138, -4);
place = (-138, -4);
type = Stem;
},
{
horizontal = 1;
place = (470, -4);
place = (470, -4);
type = Stem;
},
{
horizontal = 1;
place = (636, 19);
place = (636, 19);
type = Stem;
},
{
place = (-84, 2);
place = (-84, 2);
type = Stem;
},
{
place = (457, 2);
place = (457, 2);
type = Stem;
}
);
layerId = m01;
shapes = (
{
closed = 1;
nodes = (
(339,759,l),
(427,759,l),
(604,901,l),
(475,901,l)
);
},
{
closed = 1;
nodes = (
(444,-15,o),
(605,130,o),
(643,348,cs),
(682,567,o),
(574,712,o),
(375,712,cs),
(177,712,o),
(16,567,o),
(-23,348,cs),
(-61,130,o),
(48,-15,o),
(246,-15,cs)
);
},
{
closed = 1;
nodes = (
(140,104,o),
(76,197,o),
(102,348,cs),
(129,500,o),
(227,593,o),
(354,593,cs),
(481,593,o),
(545,499,o),
(518,348,cs),
(492,198,o),
(394,104,o),
(267,104,cs)
);
}
);
width = 744;
}
);
note = Oacute;
unicode = 211;
},
{
glyphname = uni01D1;
kernLeft = C;
kernRight = D;
lastChange = "2022-12-26 08:52:18 +0000";
layers = (
{
hints = (
{
horizontal = 1;
place = (-138, -4);
place = (-138, -4);
type = Stem;
},
{
horizontal = 1;
place = (470, -4);
place = (470, -4);
type = Stem;
},
{
place = (-84, 2);
place = (-84, 2);
type = Stem;
},
{
place = (457, 2);
place = (457, 2);
type = Stem;
}
);
layerId = m01;
shapes = (
{
closed = 1;
nodes = (
(379,737,l),
(564,901,l),
(471,901,l),
(396,834,l),
(345,901,l),
(252,901,l)
);
},
{
closed = 1;
nodes = (
(444,-15,o),
(605,130,o),
(643,348,cs),
(682,567,o),
(574,712,o),
(375,712,cs),
(177,712,o),
(16,567,o),
(-23,348,cs),
(-61,130,o),
(48,-15,o),
(246,-15,cs)
);
},
{
closed = 1;
nodes = (
(140,104,o),
(76,197,o),
(102,348,cs),
(129,500,o),
(227,593,o),
(354,593,cs),
(481,593,o),
(545,499,o),
(518,348,cs),
(492,198,o),
(394,104,o),
(267,104,cs)
);
}
);
width = 744;
}
);
note = uni01D1;
unicode = 465;
},
{
glyphname = Ocircumflex;
kernLeft = C;
kernRight = D;
lastChange = "2022-12-26 08:52:18 +0000";
layers = (
{
hints = (
{
horizontal = 1;
place = (-138, -4);
place = (-138, -4);
type = Stem;
},
{
horizontal = 1;
place = (470, -4);
place = (470, -4);
type = Stem;
},
{
place = (-84, 2);
place = (-84, 2);
type = Stem;
},
{
place = (457, 2);
place = (457, 2);
type = Stem;
}
);
layerId = m01;
shapes = (
{
closed = 1;
nodes = (
(224,745,l),
(317,745,l),
(393,817,l),
(443,745,l),
(536,745,l),
(411,919,l)
);
},
{
closed = 1;
nodes = (
(444,-15,o),
(605,130,o),
(643,348,cs),
(682,567,o),
(574,712,o),
(375,712,cs),
(177,712,o),
(16,567,o),
(-23,348,cs),
(-61,130,o),
(48,-15,o),
(246,-15,cs)
);
},
{
closed = 1;
nodes = (
(140,104,o),
(76,197,o),
(102,348,cs),
(129,500,o),
(227,593,o),
(354,593,cs),
(481,593,o),
(545,499,o),
(518,348,cs),
(492,198,o),
(394,104,o),
(267,104,cs)
);
}
);
width = 744;
}
);
note = Ocircumflex;
unicode = 212;
},
{
glyphname = uni1ED0;
kernLeft = C;
kernRight = D;
lastChange = "2022-12-26 08:52:18 +0000";
layers = (
{
hints = (
{
horizontal = 1;
place = (-138, -4);
place = (-138, -4);
type = Stem;
},
{
horizontal = 1;
place = (470, -4);
place = (470, -4);
type = Stem;
},
{
horizontal = 1;
place = (824, 19);
place = (824, 19);
type = Stem;
},
{
place = (-84, 2);
place = (-84, 2);
type = Stem;
},
{
place = (457, 2);
place = (457, 2);
type = Stem;
}
);
layerId = m01;
shapes = (
{
closed = 1;
nodes = (
(372,947,l),
(460,947,l),
(637,1089,l),
(508,1089,l)
);
},
{
closed = 1;
nodes = (
(224,745,l),
(317,745,l),
(393,817,l),
(443,745,l),
(536,745,l),
(411,919,l)
);
},
{
closed = 1;
nodes = (
(444,-15,o),
(605,130,o),
(643,348,cs),
(682,567,o),
(574,712,o),
(375,712,cs),
(177,712,o),
(16,567,o),
(-23,348,cs),
(-61,130,o),
(48,-15,o),
(246,-15,cs)
);
},
{
closed = 1;
nodes = (
(140,104,o),
(76,197,o),
(102,348,cs),
(129,500,o),
(227,593,o),
(354,593,cs),
(481,593,o),
(545,499,o),
(518,348,cs),
(492,198,o),
(394,104,o),
(267,104,cs)
);
}
);
width = 744;
}
);
note = uni1ED0;
unicode = 7888;
},
{
glyphname = uni1ED8;
kernLeft = C;
kernRight = D;
lastChange = "2022-12-26 08:52:18 +0000";
layers = (
{
hints = (
{
horizontal = 1;
place = (-296, -12);
place = (-296, -12);
type = Stem;
},
{
horizontal = 1;
place = (-138, -4);
place = (-138, -4);
type = Stem;
},
{
horizontal = 1;
place = (470, -4);
place = (470, -4);
type = Stem;
},
{
place = (-84, 2);
place = (-84, 2);
type = Stem;
},
{
place = (186, 3);
place = (186, 3);
type = Stem;
},
{
place = (457, 2);
place = (457, 2);
type = Stem;
}
);
layerId = m01;
shapes = (
{
closed = 1;
nodes = (
(224,745,l),
(317,745,l),
(393,817,l),
(443,745,l),
(536,745,l),
(411,919,l)
);
},
{
closed = 1;
nodes = (
(444,-15,o),
(605,130,o),
(643,348,cs),
(682,567,o),
(574,712,o),
(375,712,cs),
(177,712,o),
(16,567,o),
(-23,348,cs),
(-61,130,o),
(48,-15,o),
(246,-15,cs)
);
},
{
closed = 1;
nodes = (
(140,104,o),
(76,197,o),
(102,348,cs),
(129,500,o),
(227,593,o),
(354,593,cs),
(481,593,o),
(545,499,o),
(518,348,cs),
(492,198,o),
(394,104,o),
(267,104,cs)
);
},
{
closed = 1;
nodes = (
(156,-173,l),
(282,-173,l),
(301,-62,l),
(175,-62,l)
);
}
);
width = 744;
}
);
note = uni1ED8;
unicode = 7896;
},
{
glyphname = uni1ED2;
kernLeft = C;
kernRight = D;
lastChange = "2022-12-26 08:52:18 +0000";
layers = (
{
hints = (
{
horizontal = 1;
place = (-138, -4);
place = (-138, -4);
type = Stem;
},
{
horizontal = 1;
place = (470, -4);
place = (470, -4);
type = Stem;
},
{
horizontal = 1;
place = (824, 19);
place = (824, 19);
type = Stem;
},
{
place = (-84, 2);
place = (-84, 2);
type = Stem;
},
{
place = (457, 2);
place = (457, 2);
type = Stem;
}
);
layerId = m01;
shapes = (
{
closed = 1;
nodes = (
(371,947,l),
(461,947,l),
(382,1089,l),
(254,1089,l)
);
},
{
closed = 1;
nodes = (
(224,745,l),
(317,745,l),
(393,817,l),
(443,745,l),
(536,745,l),
(411,919,l)
);
},
{
closed = 1;
nodes = (
(444,-15,o),
(605,130,o),
(643,348,cs),
(682,567,o),
(574,712,o),
(375,712,cs),
(177,712,o),
(16,567,o),
(-23,348,cs),
(-61,130,o),
(48,-15,o),
(246,-15,cs)
);
},
{
closed = 1;
nodes = (
(140,104,o),
(76,197,o),
(102,348,cs),
(129,500,o),
(227,593,o),
(354,593,cs),
(481,593,o),
(545,499,o),
(518,348,cs),
(492,198,o),
(394,104,o),
(267,104,cs)
);
}
);
width = 744;
}
);
note = uni1ED2;
unicode = 7890;
},
{
glyphname = uni1ED4;
kernLeft = C;
kernRight = D;
lastChange = "2022-12-26 08:52:18 +0000";
layers = (
{
hints = (
{
horizontal = 1;
place = (-138, -4);
place = (-138, -4);
type = Stem;
},
{
horizontal = 1;
place = (470, -4);
place = (470, -4);
type = Stem;
},
{
horizontal = 1;
place = (921, -57);
place = (921, -57);
type = Stem;
},
{
place = (-84, 2);
place = (-84, 2);
type = Stem;
},
{
place = (286, -47);
place = (286, -47);
type = Stem;
},
{
place = (457, 2);
place = (457, 2);
type = Stem;
}
);
layerId = m01;
shapes = (
{
closed = 1;
nodes = (
(402,924,l),
(454,932,o),
(529,944,o),
(541,1013,cs),
(552,1076,o),
(497,1110,o),
(408,1110,cs),
(393,1110,l),
(381,1044,l),
(396,1044,ls),
(432,1044,o),
(470,1044,o),
(464,1011,cs),
(459,981,o),
(427,977,o),
(397,973,c)
);
},
{
closed = 1;
nodes = (
(224,745,l),
(317,745,l),
(393,817,l),
(443,745,l),
(536,745,l),
(411,919,l)
);
},
{
closed = 1;
nodes = (
(444,-15,o),
(605,130,o),
(643,348,cs),
(682,567,o),
(574,712,o),
(375,712,cs),
(177,712,o),
(16,567,o),
(-23,348,cs),
(-61,130,o),
(48,-15,o),
(246,-15,cs)
);
},
{
closed = 1;
nodes = (
(140,104,o),
(76,197,o),
(102,348,cs),
(129,500,o),
(227,593,o),
(354,593,cs),
(481,593,o),
(545,499,o),
(518,348,cs),
(492,198,o),
(394,104,o),
(267,104,cs)
);
}
);
width = 744;
}
);
note = uni1ED4;
unicode = 7892;
},
{
glyphname = uni1ED6;
kernLeft = C;
kernRight = D;
lastChange = "2022-12-26 08:52:18 +0000";
layers = (
{
hints = (
{
horizontal = 1;
place = (-138, -4);
place = (-138, -4);
type = Stem;
},
{
horizontal = 1;
place = (470, -4);
place = (470, -4);
type = Stem;
},
{
horizontal = 1;
place = (825, -49);
place = (825, -49);
type = Stem;
},
{
place = (-84, 2);
place = (-84, 2);
type = Stem;
},
{
place = (82, -54);
place = (82, -54);
type = Stem;
},
{
place = (343, -51);
place = (343, -51);
type = Stem;
},
{
place = (457, 2);
place = (457, 2);
type = Stem;
},
{
horizontal = 1;
place = (895, -49);
place = (895, -49);
type = Stem;
}
);
layerId = m01;
shapes = (
{
closed = 1;
nodes = (
(542,948,o),
(591,998,o),
(607,1089,c),
(535,1089,l),
(528,1046,o),
(510,1022,o),
(493,1022,cs),
(458,1022,o),
(450,1092,o),
(381,1092,cs),
(316,1092,o),
(266,1041,o),
(250,951,c),
(319,951,l),
(326,994,o),
(343,1018,o),
(363,1018,cs),
(400,1018,o),
(401,948,o),
(479,948,cs)
);
},
{
closed = 1;
nodes = (
(224,745,l),
(317,745,l),
(393,817,l),
(443,745,l),
(536,745,l),
(411,919,l)
);
},
{
closed = 1;
nodes = (
(444,-15,o),
(605,130,o),
(643,348,cs),
(682,567,o),
(574,712,o),
(375,712,cs),
(177,712,o),
(16,567,o),
(-23,348,cs),
(-61,130,o),
(48,-15,o),
(246,-15,cs)
);
},
{
closed = 1;
nodes = (
(140,104,o),
(76,197,o),
(102,348,cs),
(129,500,o),
(227,593,o),
(354,593,cs),
(481,593,o),
(545,499,o),
(518,348,cs),
(492,198,o),
(394,104,o),
(267,104,cs)
);
}
);
width = 744;
}
);
note = uni1ED6;
unicode = 7894;
},
{
glyphname = Odieresis;
kernLeft = C;
kernRight = D;
lastChange = "2022-12-26 08:52:18 +0000";
layers = (
{
hints = (
{
horizontal = 1;
place = (-138, -4);
place = (-138, -4);
type = Stem;
},
{
horizontal = 1;
place = (470, -4);
place = (470, -4);
type = Stem;
},
{
horizontal = 1;
place = (667, -12);
place = (667, -12);
type = Stem;
},
{
place = (-84, 2);
place = (-84, 2);
type = Stem;
},
{
place = (101, -22);
place = (101, -22);
type = Stem;
},
{
place = (296, -22);
place = (296, -22);
type = Stem;
},
{
place = (457, 2);
place = (457, 2);
type = Stem;
}
);
layerId = m01;
shapes = (
{
closed = 1;
nodes = (
(240,790,l),
(341,790,l),
(361,901,l),
(260,901,l)
);
},
{
closed = 1;
nodes = (
(435,790,l),
(536,790,l),
(556,901,l),
(455,901,l)
);
},
{
closed = 1;
nodes = (
(444,-15,o),
(605,130,o),
(643,348,cs),
(682,567,o),
(574,712,o),
(375,712,cs),
(177,712,o),
(16,567,o),
(-23,348,cs),
(-61,130,o),
(48,-15,o),
(246,-15,cs)
);
},
{
closed = 1;
nodes = (
(140,104,o),
(76,197,o),
(102,348,cs),
(129,500,o),
(227,593,o),
(354,593,cs),
(481,593,o),
(545,499,o),
(518,348,cs),
(492,198,o),
(394,104,o),
(267,104,cs)
);
}
);
width = 744;
}
);
note = Odieresis;
unicode = 214;
},
{
glyphname = uni1ECC;
kernLeft = C;
kernRight = D;
lastChange = "2022-12-26 08:52:18 +0000";
layers = (
{
hints = (
{
horizontal = 1;
place = (-296, -12);
place = (-296, -12);
type = Stem;
},
{
horizontal = 1;
place = (-138, -4);
place = (-138, -4);
type = Stem;
},
{
horizontal = 1;
place = (470, -4);
place = (470, -4);
type = Stem;
},
{
place = (-84, 2);
place = (-84, 2);
type = Stem;
},
{
place = (186, 3);
place = (186, 3);
type = Stem;
},
{
place = (457, 2);
place = (457, 2);
type = Stem;
}
);
layerId = m01;
shapes = (
{
closed = 1;
nodes = (
(444,-15,o),
(605,130,o),
(643,348,cs),
(682,567,o),
(574,712,o),
(375,712,cs),
(177,712,o),
(16,567,o),
(-23,348,cs),
(-61,130,o),
(48,-15,o),
(246,-15,cs)
);
},
{
closed = 1;
nodes = (
(140,104,o),
(76,197,o),
(102,348,cs),
(129,500,o),
(227,593,o),
(354,593,cs),
(481,593,o),
(545,499,o),
(518,348,cs),
(492,198,o),
(394,104,o),
(267,104,cs)
);
},
{
closed = 1;
nodes = (
(156,-173,l),
(282,-173,l),
(301,-62,l),
(175,-62,l)
);
}
);
width = 744;
}
);
note = uni1ECC;
unicode = 7884;
},
{
glyphname = Ograve;
kernLeft = C;
kernRight = D;
lastChange = "2022-12-26 08:52:18 +0000";
layers = (
{
hints = (
{
horizontal = 1;
place = (-138, -4);
place = (-138, -4);
type = Stem;
},
{
horizontal = 1;
place = (470, -4);
place = (470, -4);
type = Stem;
},
{
horizontal = 1;
place = (636, 19);
place = (636, 19);
type = Stem;
},
{
place = (-84, 2);
place = (-84, 2);
type = Stem;
},
{
place = (457, 2);
place = (457, 2);
type = Stem;
}
);
layerId = m01;
shapes = (
{
closed = 1;
nodes = (
(338,759,l),
(428,759,l),
(349,901,l),
(221,901,l)
);
},
{
closed = 1;
nodes = (
(444,-15,o),
(605,130,o),
(643,348,cs),
(682,567,o),
(574,712,o),
(375,712,cs),
(177,712,o),
(16,567,o),
(-23,348,cs),
(-61,130,o),
(48,-15,o),
(246,-15,cs)
);
},
{
closed = 1;
nodes = (
(140,104,o),
(76,197,o),
(102,348,cs),
(129,500,o),
(227,593,o),
(354,593,cs),
(481,593,o),
(545,499,o),
(518,348,cs),
(492,198,o),
(394,104,o),
(267,104,cs)
);
}
);
width = 744;
}
);
note = Ograve;
unicode = 210;
},
{
glyphname = uni1ECE;
kernLeft = C;
kernRight = D;
lastChange = "2022-12-26 08:52:18 +0000";
layers = (
{
hints = (
{
horizontal = 1;
place = (-138, -4);
place = (-138, -4);
type = Stem;
},
{
horizontal = 1;
place = (470, -4);
place = (470, -4);
type = Stem;
},
{
horizontal = 1;
place = (733, -57);
place = (733, -57);
type = Stem;
},
{
place = (-84, 2);
place = (-84, 2);
type = Stem;
},
{
place = (286, -47);
place = (286, -47);
type = Stem;
},
{
place = (457, 2);
place = (457, 2);
type = Stem;
}
);
layerId = m01;
shapes = (
{
closed = 1;
nodes = (
(369,736,l),
(421,744,o),
(495,756,o),
(508,825,cs),
(519,888,o),
(464,922,o),
(375,922,cs),
(360,922,l),
(348,856,l),
(363,856,ls),
(399,856,o),
(437,856,o),
(431,823,cs),
(426,793,o),
(394,789,o),
(364,785,c)
);
},
{
closed = 1;
nodes = (
(444,-15,o),
(605,130,o),
(643,348,cs),
(682,567,o),
(574,712,o),
(375,712,cs),
(177,712,o),
(16,567,o),
(-23,348,cs),
(-61,130,o),
(48,-15,o),
(246,-15,cs)
);
},
{
closed = 1;
nodes = (
(140,104,o),
(76,197,o),
(102,348,cs),
(129,500,o),
(227,593,o),
(354,593,cs),
(481,593,o),
(545,499,o),
(518,348,cs),
(492,198,o),
(394,104,o),
(267,104,cs)
);
}
);
width = 744;
}
);
note = uni1ECE;
unicode = 7886;
},
{
glyphname = Ohorn;
kernLeft = C;
kernRight = D;
lastChange = "2022-12-26 08:52:18 +0000";
layers = (
{
hints = (
{
horizontal = 1;
place = (-138, -4);
place = (-138, -4);
type = Stem;
},
{
horizontal = 1;
place = (382, -20);
target = down;
type = TopGhost;
},
{
horizontal = 1;
place = (574, -20);
target = down;
type = TopGhost;
},
{
place = (-84, 2);
place = (-84, 2);
type = Stem;
},
{
place = (551, -32);
place = (551, -32);
type = Stem;
},
{
horizontal = 1;
place = (470, -4);
place = (470, -4);
type = Stem;
},
{
place = (457, 2);
place = (457, 2);
type = Stem;
}
);
layerId = m01;
shapes = (
{
closed = 1;
nodes = (
(674,697,l),
(665,648,ls),
(661,624,o),
(648,592,o),
(619,578,c),
(576,663,o),
(491,712,o),
(375,712,cs),
(177,712,o),
(16,567,o),
(-23,348,cs),
(-61,130,o),
(48,-15,o),
(246,-15,cs),
(444,-15,o),
(605,130,o),
(643,348,cs),
(654,406,o),
(654,459,o),
(644,505,c),
(711,530,o),
(746,590,o),
(758,658,cs),
(765,697,l)
);
},
{
closed = 1;
nodes = (
(140,104,o),
(76,197,o),
(102,348,cs),
(129,500,o),
(227,593,o),
(354,593,cs),
(481,593,o),
(545,499,o),
(518,348,cs),
(492,198,o),
(394,104,o),
(267,104,cs)
);
}
);
width = 744;
}
);
note = Ohorn;
unicode = 416;
},
{
glyphname = uni1EDA;
kernLeft = C;
kernRight = D;
lastChange = "2022-12-26 08:52:18 +0000";
layers = (
{
hints = (
{
horizontal = 1;
place = (-138, -4);
place = (-138, -4);
type = Stem;
},
{
horizontal = 1;
place = (382, -20);
target = down;
type = TopGhost;
},
{
horizontal = 1;
place = (574, -20);
target = down;
type = TopGhost;
},
{
horizontal = 1;
place = (636, 19);
place = (636, 19);
type = Stem;
},
{
place = (-84, 2);
place = (-84, 2);
type = Stem;
},
{
place = (457, 2);
place = (457, 2);
type = Stem;
},
{
place = (551, -32);
place = (551, -32);
type = Stem;
},
{
horizontal = 1;
place = (470, -4);
place = (470, -4);
type = Stem;
}
);
layerId = m01;
shapes = (
{
closed = 1;
nodes = (
(604,901,l),
(475,901,l),
(339,759,l),
(427,759,l)
);
},
{
closed = 1;
nodes = (
(674,697,l),
(665,648,ls),
(661,624,o),
(648,592,o),
(619,578,c),
(576,663,o),
(491,712,o),
(375,712,cs),
(177,712,o),
(16,567,o),
(-23,348,cs),
(-61,130,o),
(48,-15,o),
(246,-15,cs),
(444,-15,o),
(605,130,o),
(643,348,cs),
(654,406,o),
(654,459,o),
(644,505,c),
(711,530,o),
(746,590,o),
(758,658,cs),
(765,697,l)
);
},
{
closed = 1;
nodes = (
(140,104,o),
(76,197,o),
(102,348,cs),
(129,500,o),
(227,593,o),
(354,593,cs),
(481,593,o),
(545,499,o),
(518,348,cs),
(492,198,o),
(394,104,o),
(267,104,cs)
);
}
);
width = 744;
}
);
note = uni1EDA;
unicode = 7898;
},
{
glyphname = uni1EE2;
kernLeft = C;
kernRight = D;
lastChange = "2022-12-26 08:52:18 +0000";
layers = (
{
hints = (
{
horizontal = 1;
place = (-296, -12);
place = (-296, -12);
type = Stem;
},
{
horizontal = 1;
place = (-138, -4);
place = (-138, -4);
type = Stem;
},
{
horizontal = 1;
place = (382, -20);
target = down;
type = TopGhost;
},
{
horizontal = 1;
place = (574, -20);
target = down;
type = TopGhost;
},
{
place = (-84, 2);
place = (-84, 2);
type = Stem;
},
{
place = (186, 3);
place = (186, 3);
type = Stem;
},
{
place = (551, -32);
place = (551, -32);
type = Stem;
},
{
horizontal = 1;
place = (470, -4);
place = (470, -4);
type = Stem;
},
{
place = (457, 2);
place = (457, 2);
type = Stem;
}
);
layerId = m01;
shapes = (
{
closed = 1;
nodes = (
(674,697,l),
(665,648,ls),
(661,624,o),
(648,592,o),
(619,578,c),
(576,663,o),
(491,712,o),
(375,712,cs),
(177,712,o),
(16,567,o),
(-23,348,cs),
(-61,130,o),
(48,-15,o),
(246,-15,cs),
(444,-15,o),
(605,130,o),
(643,348,cs),
(654,406,o),
(654,459,o),
(644,505,c),
(711,530,o),
(746,590,o),
(758,658,cs),
(765,697,l)
);
},
{
closed = 1;
nodes = (
(140,104,o),
(76,197,o),
(102,348,cs),
(129,500,o),
(227,593,o),
(354,593,cs),
(481,593,o),
(545,499,o),
(518,348,cs),
(492,198,o),
(394,104,o),
(267,104,cs)
);
},
{
closed = 1;
nodes = (
(156,-173,l),
(282,-173,l),
(301,-62,l),
(175,-62,l)
);
}
);
width = 744;
}
);
note = uni1EE2;
unicode = 7906;
},
{
glyphname = uni1EDC;
kernLeft = C;
kernRight = D;
lastChange = "2022-12-26 08:52:18 +0000";
layers = (
{
hints = (
{
horizontal = 1;
place = (-138, -4);
place = (-138, -4);
type = Stem;
},
{
horizontal = 1;
place = (382, -20);
target = down;
type = TopGhost;
},
{
horizontal = 1;
place = (574, -20);
target = down;
type = TopGhost;
},
{
horizontal = 1;
place = (636, 19);
place = (636, 19);
type = Stem;
},
{
place = (-84, 2);
place = (-84, 2);
type = Stem;
},
{
place = (457, 2);
place = (457, 2);
type = Stem;
},
{
place = (551, -32);
place = (551, -32);
type = Stem;
},
{
horizontal = 1;
place = (470, -4);
place = (470, -4);
type = Stem;
}
);
layerId = m01;
shapes = (
{
closed = 1;
nodes = (
(428,759,l),
(349,901,l),
(221,901,l),
(338,759,l)
);
},
{
closed = 1;
nodes = (
(674,697,l),
(665,648,ls),
(661,624,o),
(648,592,o),
(619,578,c),
(576,663,o),
(491,712,o),
(375,712,cs),
(177,712,o),
(16,567,o),
(-23,348,cs),
(-61,130,o),
(48,-15,o),
(246,-15,cs),
(444,-15,o),
(605,130,o),
(643,348,cs),
(654,406,o),
(654,459,o),
(644,505,c),
(711,530,o),
(746,590,o),
(758,658,cs),
(765,697,l)
);
},
{
closed = 1;
nodes = (
(140,104,o),
(76,197,o),
(102,348,cs),
(129,500,o),
(227,593,o),
(354,593,cs),
(481,593,o),
(545,499,o),
(518,348,cs),
(492,198,o),
(394,104,o),
(267,104,cs)
);
}
);
width = 744;
}
);
note = uni1EDC;
unicode = 7900;
},
{
glyphname = uni1EDE;
kernLeft = C;
kernRight = D;
lastChange = "2022-12-26 08:52:18 +0000";
layers = (
{
hints = (
{
horizontal = 1;
place = (-138, -4);
place = (-138, -4);
type = Stem;
},
{
horizontal = 1;
place = (382, -20);
target = down;
type = TopGhost;
},
{
horizontal = 1;
place = (574, -20);
target = down;
type = TopGhost;
},
{
horizontal = 1;
place = (733, -57);
place = (733, -57);
type = Stem;
},
{
place = (-84, 2);
place = (-84, 2);
type = Stem;
},
{
place = (286, -47);
place = (286, -47);
type = Stem;
},
{
place = (457, 2);
place = (457, 2);
type = Stem;
},
{
place = (551, -32);
place = (551, -32);
type = Stem;
},
{
horizontal = 1;
place = (470, -4);
place = (470, -4);
type = Stem;
}
);
layerId = m01;
shapes = (
{
closed = 1;
nodes = (
(426,793,o),
(394,789,o),
(364,785,c),
(369,736,l),
(421,744,o),
(495,756,o),
(508,825,cs),
(519,888,o),
(464,922,o),
(375,922,cs),
(360,922,l),
(348,856,l),
(363,856,ls),
(399,856,o),
(437,856,o),
(431,823,cs)
);
},
{
closed = 1;
nodes = (
(674,697,l),
(665,648,ls),
(661,624,o),
(648,592,o),
(619,578,c),
(576,663,o),
(491,712,o),
(375,712,cs),
(177,712,o),
(16,567,o),
(-23,348,cs),
(-61,130,o),
(48,-15,o),
(246,-15,cs),
(444,-15,o),
(605,130,o),
(643,348,cs),
(654,406,o),
(654,459,o),
(644,505,c),
(711,530,o),
(746,590,o),
(758,658,cs),
(765,697,l)
);
},
{
closed = 1;
nodes = (
(140,104,o),
(76,197,o),
(102,348,cs),
(129,500,o),
(227,593,o),
(354,593,cs),
(481,593,o),
(545,499,o),
(518,348,cs),
(492,198,o),
(394,104,o),
(267,104,cs)
);
}
);
width = 744;
}
);
note = uni1EDE;
unicode = 7902;
},
{
glyphname = uni1EE0;
kernLeft = C;
kernRight = D;
lastChange = "2022-12-26 08:52:18 +0000";
layers = (
{
hints = (
{
horizontal = 1;
place = (-138, -4);
place = (-138, -4);
type = Stem;
},
{
horizontal = 1;
place = (382, -20);
target = down;
type = TopGhost;
},
{
horizontal = 1;
place = (574, -20);
target = down;
type = TopGhost;
},
{
horizontal = 1;
place = (707, -49);
place = (707, -49);
type = Stem;
},
{
place = (-84, 2);
place = (-84, 2);
type = Stem;
},
{
place = (82, -54);
place = (82, -54);
type = Stem;
},
{
place = (343, -51);
place = (343, -51);
type = Stem;
},
{
place = (457, 2);
place = (457, 2);
type = Stem;
},
{
horizontal = 1;
place = (637, -49);
place = (637, -49);
type = Stem;
},
{
place = (551, -32);
place = (551, -32);
type = Stem;
},
{
horizontal = 1;
place = (470, -4);
place = (470, -4);
type = Stem;
}
);
layerId = m01;
shapes = (
{
closed = 1;
nodes = (
(366,830,o),
(368,760,o),
(446,760,cs),
(509,760,o),
(558,810,o),
(574,901,c),
(502,901,l),
(494,858,o),
(477,834,o),
(460,834,cs),
(425,834,o),
(416,904,o),
(347,904,cs),
(282,904,o),
(233,853,o),
(217,763,c),
(286,763,l),
(293,806,o),
(309,830,o),
(329,830,cs)
);
},
{
closed = 1;
nodes = (
(674,697,l),
(665,648,ls),
(661,624,o),
(648,592,o),
(619,578,c),
(576,663,o),
(491,712,o),
(375,712,cs),
(177,712,o),
(16,567,o),
(-23,348,cs),
(-61,130,o),
(48,-15,o),
(246,-15,cs),
(444,-15,o),
(605,130,o),
(643,348,cs),
(654,406,o),
(654,459,o),
(644,505,c),
(711,530,o),
(746,590,o),
(758,658,cs),
(765,697,l)
);
},
{
closed = 1;
nodes = (
(140,104,o),
(76,197,o),
(102,348,cs),
(129,500,o),
(227,593,o),
(354,593,cs),
(481,593,o),
(545,499,o),
(518,348,cs),
(492,198,o),
(394,104,o),
(267,104,cs)
);
}
);
width = 744;
}
);
note = uni1EE0;
unicode = 7904;
},
{
glyphname = Ohungarumlaut;
kernLeft = C;
kernRight = D;
lastChange = "2022-12-26 08:52:18 +0000";
layers = (
{
hints = (
{
horizontal = 1;
place = (-138, -4);
place = (-138, -4);
type = Stem;
},
{
horizontal = 1;
place = (615, 40);
place = (615, 40);
type = Stem;
},
{
place = (-84, 2);
place = (-84, 2);
type = Stem;
},
{
place = (457, 2);
place = (457, 2);
type = Stem;
},
{
horizontal = 1;
place = (470, -4);
place = (470, -4);
type = Stem;
}
);
layerId = m01;
shapes = (
{
closed = 1;
nodes = (
(239,738,l),
(327,738,l),
(487,901,l),
(379,901,l)
);
},
{
closed = 1;
nodes = (
(431,738,l),
(519,738,l),
(699,901,l),
(571,901,l)
);
},
{
closed = 1;
nodes = (
(444,-15,o),
(605,130,o),
(643,348,cs),
(682,567,o),
(574,712,o),
(375,712,cs),
(177,712,o),
(16,567,o),
(-23,348,cs),
(-61,130,o),
(48,-15,o),
(246,-15,cs)
);
},
{
closed = 1;
nodes = (
(140,104,o),
(76,197,o),
(102,348,cs),
(129,500,o),
(227,593,o),
(354,593,cs),
(481,593,o),
(545,499,o),
(518,348,cs),
(492,198,o),
(394,104,o),
(267,104,cs)
);
}
);
width = 744;
}
);
note = Ohungarumlaut;
unicode = 336;
},
{
glyphname = Omacron;
kernLeft = C;
kernRight = D;
lastChange = "2022-12-26 08:52:18 +0000";
layers = (
{
hints = (
{
horizontal = 1;
place = (-138, -4);
place = (-138, -4);
type = Stem;
},
{
horizontal = 1;
place = (470, -4);
place = (470, -4);
type = Stem;
},
{
horizontal = 1;
place = (647, -53);
place = (647, -53);
type = Stem;
},
{
place = (-84, 2);
place = (-84, 2);
type = Stem;
},
{
place = (111, 152);
place = (111, 152);
type = Stem;
},
{
place = (457, 2);
place = (457, 2);
type = Stem;
}
);
layerId = m01;
shapes = (
{
closed = 1;
nodes = (
(247,770,l),
(522,770,l),
(534,840,l),
(259,840,l)
);
},
{
closed = 1;
nodes = (
(444,-15,o),
(605,130,o),
(643,348,cs),
(682,567,o),
(574,712,o),
(375,712,cs),
(177,712,o),
(16,567,o),
(-23,348,cs),
(-61,130,o),
(48,-15,o),
(246,-15,cs)
);
},
{
closed = 1;
nodes = (
(140,104,o),
(76,197,o),
(102,348,cs),
(129,500,o),
(227,593,o),
(354,593,cs),
(481,593,o),
(545,499,o),
(518,348,cs),
(492,198,o),
(394,104,o),
(267,104,cs)
);
}
);
width = 744;
}
);
note = Omacron;
unicode = 332;
},
{
glyphname = Oslash;
kernLeft = C;
kernRight = D;
lastChange = "2022-12-26 08:52:18 +0000";
layers = (
{
hints = (
{
horizontal = 1;
place = (-138, -4);
place = (-138, -4);
type = Stem;
},
{
horizontal = 1;
place = (493, -42);
place = (493, -42);
type = Stem;
},
{
place = (-84, 2);
place = (-84, 2);
type = Stem;
},
{
place = (457, 2);
place = (457, 2);
type = Stem;
},
{
horizontal = 1;
place = (-123, -42);
place = (-123, -42);
type = Stem;
},
{
horizontal = 1;
place = (470, -4);
place = (470, -4);
type = Stem;
},
{
horizontal = 1;
place = (574, -20);
target = down;
type = TopGhost;
}
);
layerId = m01;
shapes = (
{
closed = 1;
nodes = (
(668,697,l),
(578,697,l),
(547,662,l),
(502,694,o),
(444,712,o),
(375,712,cs),
(177,712,o),
(16,567,o),
(-23,348,cs),
(-42,237,o),
(-23,145,o),
(26,81,c),
(-47,0,l),
(43,0,l),
(74,35,l),
(120,3,o),
(177,-15,o),
(246,-15,cs),
(444,-15,o),
(605,130,o),
(643,348,cs),
(663,460,o),
(644,552,o),
(596,616,c)
);
},
{
closed = 1;
nodes = (
(129,500,o),
(227,593,o),
(354,593,cs),
(396,593,o),
(431,583,o),
(458,563,c),
(119,184,l),
(97,225,o),
(91,281,o),
(102,348,cs)
);
},
{
closed = 1;
nodes = (
(225,104,o),
(190,114,o),
(163,133,c),
(502,512,l),
(524,471,o),
(530,415,o),
(518,348,cs),
(492,198,o),
(394,104,o),
(267,104,cs)
);
}
);
width = 744;
}
);
note = Oslash;
unicode = 216;
},
{
glyphname = Otilde;
kernLeft = C;
kernRight = D;
lastChange = "2022-12-26 08:52:18 +0000";
layers = (
{
hints = (
{
horizontal = 1;
place = (-138, -4);
place = (-138, -4);
type = Stem;
},
{
horizontal = 1;
place = (470, -4);
place = (470, -4);
type = Stem;
},
{
horizontal = 1;
place = (637, -49);
place = (637, -49);
type = Stem;
},
{
place = (-84, 2);
place = (-84, 2);
type = Stem;
},
{
place = (82, -54);
place = (82, -54);
type = Stem;
},
{
place = (343, -51);
place = (343, -51);
type = Stem;
},
{
place = (457, 2);
place = (457, 2);
type = Stem;
},
{
horizontal = 1;
place = (707, -49);
place = (707, -49);
type = Stem;
}
);
layerId = m01;
shapes = (
{
closed = 1;
nodes = (
(509,760,o),
(558,810,o),
(574,901,c),
(502,901,l),
(494,858,o),
(477,834,o),
(460,834,cs),
(425,834,o),
(416,904,o),
(347,904,cs),
(282,904,o),
(233,853,o),
(217,763,c),
(286,763,l),
(293,806,o),
(309,830,o),
(329,830,cs),
(366,830,o),
(368,760,o),
(446,760,cs)
);
},
{
closed = 1;
nodes = (
(444,-15,o),
(605,130,o),
(643,348,cs),
(682,567,o),
(574,712,o),
(375,712,cs),
(177,712,o),
(16,567,o),
(-23,348,cs),
(-61,130,o),
(48,-15,o),
(246,-15,cs)
);
},
{
closed = 1;
nodes = (
(140,104,o),
(76,197,o),
(102,348,cs),
(129,500,o),
(227,593,o),
(354,593,cs),
(481,593,o),
(545,499,o),
(518,348,cs),
(492,198,o),
(394,104,o),
(267,104,cs)
);
}
);
width = 744;
}
);
note = Otilde;
unicode = 213;
},
{
glyphname = OE;
kernLeft = C;
lastChange = "2022-12-26 08:52:18 +0000";
layers = (
{
hints = (
{
horizontal = 1;
place = (-123, -8);
place = (-123, -8);
type = Stem;
},
{
horizontal = 1;
place = (178, -8);
place = (178, -8);
type = Stem;
},
{
horizontal = 1;
place = (459, -8);
place = (459, -8);
type = Stem;
},
{
place = (-84, 2);
place = (-84, 2);
type = Stem;
},
{
place = (458, 2);
place = (458, 2);
type = Stem;
},
{
horizontal = 1;
place = (-138, -4);
place = (-138, -4);
type = Stem;
},
{
horizontal = 1;
place = (470, -4);
place = (470, -4);
type = Stem;
},
{
horizontal = 1;
place = (470, -19);
place = (470, -19);
type = Stem;
},
{
place = (457, 3);
place = (457, 3);
type = Stem;
}
);
layerId = m01;
shapes = (
{
closed = 1;
nodes = (
(1025,582,l),
(1045,697,l),
(581,697,l),
(571,642,l),
(524,687,o),
(457,712,o),
(375,712,cs),
(177,712,o),
(16,567,o),
(-23,348,cs),
(-61,130,o),
(48,-15,o),
(246,-15,cs),
(328,-15,o),
(405,10,o),
(468,55,c),
(458,0,l),
(922,0,l),
(942,115,l),
(603,115,l),
(636,301,l),
(951,301,l),
(971,416,l),
(656,416,l),
(686,582,l)
);
},
{
closed = 1;
nodes = (
(140,104,o),
(76,197,o),
(102,348,cs),
(129,500,o),
(227,593,o),
(354,593,cs),
(481,593,o),
(545,499,o),
(518,348,cs),
(492,198,o),
(394,104,o),
(267,104,cs)
);
}
);
width = 1103;
}
);
note = OE;
unicode = 338;
},
{
glyphname = P;
kernLeft = B;
kernRight = P;
lastChange = "2022-12-26 08:52:18 +0000";
layers = (
{
hints = (
{
horizontal = 1;
place = (-123, 21);
target = up;
type = BottomGhost;
},
{
horizontal = 1;
place = (166, -8);
place = (166, -8);
type = Stem;
},
{
horizontal = 1;
place = (459, -8);
place = (459, -8);
type = Stem;
},
{
place = (-35, 1);
place = (-35, 1);
type = Stem;
},
{
place = (305, 2);
place = (305, 2);
type = Stem;
}
);
layerId = m01;
shapes = (
{
closed = 1;
nodes = (
(27,0,l),
(108,100,l),
(141,289,l),
(245,289,ls),
(360,289,o),
(500,394,o),
(518,496,qs),
(535,596,o),
(434,697,o),
(317,697,qs),
(88,697,l),
(-35,0,l)
);
},
{
closed = 1;
nodes = (
(193,582,l),
(284,582,ls),
(350,582,o),
(401,542,o),
(392,494,qs),
(384,446,o),
(318,404,o),
(252,404,qs),
(161,404,l)
);
}
);
width = 575;
}
);
note = P;
unicode = 80;
},
{
glyphname = Thorn;
kernLeft = B;
kernRight = Thorn;
lastChange = "2022-12-26 08:52:18 +0000";
layers = (
{
hints = (
{
horizontal = 1;
place = (-123, 21);
target = up;
type = BottomGhost;
},
{
horizontal = 1;
place = (73, -19);
place = (73, -19);
type = Stem;
},
{
horizontal = 1;
place = (380, 71);
place = (380, 71);
type = Stem;
},
{
place = (-35, -9);
place = (-35, -9);
type = Stem;
},
{
place = (305, -9);
place = (305, -9);
type = Stem;
},
{
horizontal = 1;
place = (380, -25);
place = (380, -25);
type = Stem;
}
);
layerId = m01;
shapes = (
{
closed = 1;
nodes = (
(-35,0,l),
(79,0,l),
(114,196,l),
(213,196,ls),
(365,196,o),
(467,273,o),
(490,404,cs),
(512,528,o),
(446,601,o),
(311,601,cs),
(185,601,l),
(202,697,l),
(88,697,l)
);
},
{
closed = 1;
nodes = (
(132,300,l),
(168,503,l),
(267,503,ls),
(351,503,o),
(388,468,o),
(376,400,cs),
(364,333,o),
(316,300,o),
(231,300,cs)
);
}
);
width = 563;
}
);
note = Thorn;
unicode = 222;
},
{
glyphname = Q;
kernLeft = C;
kernRight = Q;
lastChange = "2022-12-26 08:52:18 +0000";
layers = (
{
hints = (
{
horizontal = 1;
place = (-138, -4);
place = (-138, -4);
type = Stem;
},
{
horizontal = 1;
place = (470, -4);
place = (470, -4);
type = Stem;
},
{
place = (-86, 2);
place = (-86, 2);
type = Stem;
},
{
place = (455, 2);
place = (455, 2);
type = Stem;
}
);
layerId = m01;
shapes = (
{
closed = 1;
nodes = (
(532,114,l),
(572,160,o),
(629,278,o),
(641,348,qs),
(656,430,o),
(632,564,o),
(560,660,o),
(448,712,o),
(373,712,qs),
(299,712,o),
(166,660,o),
(62,564,o),
(-10,430,o),
(-25,348,qs),
(-39,266,o),
(-15,132,o),
(57,37,o),
(170,-15,o),
(244,-15,qs),
(354,-15,o),
(443,40,q),
(535,-53,l),
(580,-16,l),
(588,47,l)
);
},
{
closed = 1;
nodes = (
(80,234,o),
(100,348,qs),
(111,405,o),
(156,496,o),
(221,559,o),
(305,602,o),
(353,602,qs),
(401,602,o),
(471,559,o),
(513,495,o),
(527,405,o),
(516,348,qs),
(501,262,o),
(457,202,q),
(381,292,l),
(292,215,l),
(367,127,l),
(319,95,o),
(264,95,qs),
(168,95,o)
);
}
);
width = 765;
}
);
note = Q;
unicode = 81;
},
{
glyphname = R;
kernLeft = B;
kernRight = R;
lastChange = "2022-12-26 08:52:18 +0000";
layers = (
{
hints = (
{
horizontal = 1;
place = (-123, 21);
target = up;
type = BottomGhost;
},
{
horizontal = 1;
place = (166, -8);
place = (166, -8);
type = Stem;
},
{
horizontal = 1;
place = (459, -8);
place = (459, -8);
type = Stem;
},
{
place = (-35, 1);
place = (-35, 1);
type = Stem;
},
{
place = (305, 2);
place = (305, 2);
type = Stem;
}
);
layerId = m01;
shapes = (
{
closed = 1;
nodes = (
(295,304,l),
(328,315,o),
(401,349,o),
(464,397,o),
(511,459,o),
(518,496,qs),
(534,590,o),
(441,697,o),
(317,697,qs),
(88,697,l),
(-35,0,l),
(27,0,l),
(108,100,l),
(141,289,l),
(169,289,l),
(284,0,l),
(429,0,l)
);
},
{
closed = 1;
nodes = (
(193,582,l),
(284,582,ls),
(344,582,o),
(401,545,o),
(392,494,qs),
(383,443,o),
(312,404,o),
(252,404,qs),
(161,404,l)
);
}
);
width = 622;
}
);
note = R;
unicode = 82;
},
{
glyphname = Racute;
kernLeft = B;
kernRight = R;
lastChange = "2022-12-26 08:52:18 +0000";
layers = (
{
hints = (
{
horizontal = 1;
place = (-123, 21);
target = up;
type = BottomGhost;
},
{
horizontal = 1;
place = (166, -8);
place = (166, -8);
type = Stem;
},
{
horizontal = 1;
place = (459, -8);
place = (459, -8);
type = Stem;
},
{
horizontal = 1;
place = (636, 19);
place = (636, 19);
type = Stem;
},
{
place = (-35, 1);
place = (-35, 1);
type = Stem;
},
{
place = (305, 2);
place = (305, 2);
type = Stem;
}
);
layerId = m01;
shapes = (
{
closed = 1;
nodes = (
(543,901,l),
(414,901,l),
(278,759,l),
(366,759,l)
);
},
{
closed = 1;
nodes = (
(489,0,l),
(355,304,l),
(443,332,o),
(500,396,o),
(518,496,cs),
(540,621,o),
(482,697,o),
(316,697,cs),
(88,697,l),
(-35,0,l),
(89,0,l),
(140,289,l),
(186,289,l),
(228,289,l),
(344,0,l)
);
},
{
closed = 1;
nodes = (
(160,404,l),
(192,582,l),
(283,582,ls),
(364,582,o),
(404,562,o),
(392,494,cs),
(380,426,o),
(332,404,o),
(251,404,cs)
);
}
);
width = 622;
}
);
note = Racute;
unicode = 340;
},
{
glyphname = Rcaron;
kernLeft = B;
kernRight = R;
lastChange = "2022-12-26 08:52:18 +0000";
layers = (
{
hints = (
{
horizontal = 1;
place = (-123, 21);
target = up;
type = BottomGhost;
},
{
horizontal = 1;
place = (166, -8);
place = (166, -8);
type = Stem;
},
{
horizontal = 1;
place = (459, -8);
place = (459, -8);
type = Stem;
},
{
place = (-35, 1);
place = (-35, 1);
type = Stem;
},
{
place = (305, 2);
place = (305, 2);
type = Stem;
}
);
layerId = m01;
shapes = (
{
closed = 1;
nodes = (
(503,901,l),
(410,901,l),
(335,834,l),
(284,901,l),
(191,901,l),
(318,737,l)
);
},
{
closed = 1;
nodes = (
(489,0,l),
(355,304,l),
(443,332,o),
(500,396,o),
(518,496,cs),
(540,621,o),
(482,697,o),
(316,697,cs),
(88,697,l),
(-35,0,l),
(89,0,l),
(140,289,l),
(186,289,l),
(228,289,l),
(344,0,l)
);
},
{
closed = 1;
nodes = (
(160,404,l),
(192,582,l),
(283,582,ls),
(364,582,o),
(404,562,o),
(392,494,cs),
(380,426,o),
(332,404,o),
(251,404,cs)
);
}
);
width = 622;
}
);
note = Rcaron;
unicode = 344;
},
{
glyphname = uni0156;
kernLeft = B;
kernRight = R;
lastChange = "2022-12-26 08:52:18 +0000";
layers = (
{
hints = (
{
horizontal = 1;
place = (-349, 50);
place = (-349, 50);
type = Stem;
},
{
horizontal = 1;
place = (-123, 21);
target = up;
type = BottomGhost;
},
{
horizontal = 1;
place = (166, -8);
place = (166, -8);
type = Stem;
},
{
horizontal = 1;
place = (459, -8);
place = (459, -8);
type = Stem;
},
{
place = (-35, 1);
place = (-35, 1);
type = Stem;
},
{
place = (305, 2);
place = (305, 2);
type = Stem;
}
);
layerId = m01;
shapes = (
{
closed = 1;
nodes = (
(355,304,l),
(443,332,o),
(500,396,o),
(518,496,cs),
(540,621,o),
(482,697,o),
(316,697,cs),
(88,697,l),
(-35,0,l),
(89,0,l),
(140,289,l),
(186,289,l),
(228,289,l),
(344,0,l),
(489,0,l)
);
},
{
closed = 1;
nodes = (
(160,404,l),
(192,582,l),
(283,582,ls),
(364,582,o),
(404,562,o),
(392,494,cs),
(380,426,o),
(332,404,o),
(251,404,cs)
);
},
{
closed = 1;
nodes = (
(18,-226,l),
(88,-226,l),
(241,-53,l),
(116,-53,l)
);
}
);
width = 622;
}
);
note = uni0156;
unicode = 342;
},
{
glyphname = S;
kernLeft = S;
kernRight = S;
lastChange = "2022-12-26 08:52:18 +0000";
layers = (
{
hints = (
{
horizontal = 1;
place = (-136, -12);
place = (-136, -12);
type = Stem;
},
{
horizontal = 1;
place = (478, -12);
place = (478, -12);
type = Stem;
},
{
place = (-55, 2);
place = (-55, 2);
type = Stem;
},
{
place = (282, 2);
place = (282, 2);
type = Stem;
}
);
layerId = m01;
shapes = (
{
closed = 1;
nodes = (
(306,-13,o),
(420,73,o),
(443,203,cs),
(460,302,o),
(421,355,o),
(282,412,cs),
(184,453,o),
(155,479,o),
(163,525,cs),
(170,568,o),
(214,601,o),
(264,601,cs),
(311,601,o),
(347,573,o),
(362,521,c),
(477,585,l),
(448,669,o),
(382,712,o),
(288,712,cs),
(158,712,o),
(57,635,o),
(37,522,cs),
(19,421,o),
(62,368,o),
(198,311,cs),
(294,270,o),
(324,240,o),
(316,192,cs),
(306,133,o),
(254,98,o),
(184,98,cs),
(103,98,o),
(57,145,o),
(62,228,c),
(-67,197,l),
(-70,70,o),
(24,-13,o),
(163,-13,cs)
);
}
);
width = 558;
}
);
note = S;
unicode = 83;
},
{
glyphname = Sacute;
kernLeft = S;
kernRight = S;
lastChange = "2022-12-26 08:52:18 +0000";
layers = (
{
hints = (
{
horizontal = 1;
place = (-136, -12);
place = (-136, -12);
type = Stem;
},
{
horizontal = 1;
place = (478, -12);
place = (478, -12);
type = Stem;
},
{
horizontal = 1;
place = (636, 19);
place = (636, 19);
type = Stem;
},
{
place = (-55, 2);
place = (-55, 2);
type = Stem;
},
{
place = (282, 2);
place = (282, 2);
type = Stem;
}
);
layerId = m01;
shapes = (
{
closed = 1;
nodes = (
(246,759,l),
(334,759,l),
(511,901,l),
(382,901,l)
);
},
{
closed = 1;
nodes = (
(306,-13,o),
(420,73,o),
(443,203,cs),
(460,302,o),
(421,355,o),
(282,412,cs),
(184,453,o),
(155,479,o),
(163,525,cs),
(170,568,o),
(214,601,o),
(264,601,cs),
(311,601,o),
(347,573,o),
(362,521,c),
(477,585,l),
(448,669,o),
(382,712,o),
(288,712,cs),
(158,712,o),
(57,635,o),
(37,522,cs),
(19,421,o),
(62,368,o),
(198,311,cs),
(294,270,o),
(324,240,o),
(316,192,cs),
(306,133,o),
(254,98,o),
(184,98,cs),
(103,98,o),
(57,145,o),
(62,228,c),
(-67,197,l),
(-70,70,o),
(24,-13,o),
(163,-13,cs)
);
}
);
width = 558;
}
);
note = Sacute;
unicode = 346;
},
{
glyphname = Scaron;
kernLeft = S;
kernRight = S;
lastChange = "2022-12-26 08:52:18 +0000";
layers = (
{
hints = (
{
horizontal = 1;
place = (-136, -12);
place = (-136, -12);
type = Stem;
},
{
horizontal = 1;
place = (478, -12);
place = (478, -12);
type = Stem;
},
{
place = (-55, 2);
place = (-55, 2);
type = Stem;
},
{
place = (282, 2);
place = (282, 2);
type = Stem;
}
);
layerId = m01;
shapes = (
{
closed = 1;
nodes = (
(286,737,l),
(471,901,l),
(378,901,l),
(303,834,l),
(252,901,l),
(159,901,l)
);
},
{
closed = 1;
nodes = (
(306,-13,o),
(420,73,o),
(443,203,cs),
(460,302,o),
(421,355,o),
(282,412,cs),
(184,453,o),
(155,479,o),
(163,525,cs),
(170,568,o),
(214,601,o),
(264,601,cs),
(311,601,o),
(347,573,o),
(362,521,c),
(477,585,l),
(448,669,o),
(382,712,o),
(288,712,cs),
(158,712,o),
(57,635,o),
(37,522,cs),
(19,421,o),
(62,368,o),
(198,311,cs),
(294,270,o),
(324,240,o),
(316,192,cs),
(306,133,o),
(254,98,o),
(184,98,cs),
(103,98,o),
(57,145,o),
(62,228,c),
(-67,197,l),
(-70,70,o),
(24,-13,o),
(163,-13,cs)
);
}
);
width = 558;
}
);
note = Scaron;
unicode = 352;
},
{
glyphname = Scedilla;
kernLeft = S;
kernRight = S;
lastChange = "2022-12-26 08:52:18 +0000";
layers = (
{
hints = (
{
horizontal = 1;
place = (-381, -54);
place = (-381, -54);
type = Stem;
},
{
horizontal = 1;
place = (-132, 21);
target = up;
type = BottomGhost;
},
{
horizontal = 1;
place = (478, -12);
place = (478, -12);
type = Stem;
},
{
place = (-55, 2);
place = (-55, 2);
type = Stem;
},
{
place = (177, -53);
place = (177, -53);
type = Stem;
},
{
place = (282, 2);
place = (282, 2);
type = Stem;
},
{
horizontal = 1;
place = (-219, 71);
place = (-219, 71);
type = Stem;
}
);
layerId = m01;
shapes = (
{
closed = 1;
nodes = (
(460,302,o),
(421,355,o),
(282,412,cs),
(184,453,o),
(155,479,o),
(163,525,cs),
(170,568,o),
(214,601,o),
(264,601,cs),
(311,601,o),
(347,573,o),
(362,521,c),
(477,585,l),
(448,669,o),
(382,712,o),
(288,712,cs),
(158,712,o),
(57,635,o),
(37,522,cs),
(19,421,o),
(62,368,o),
(198,311,cs),
(294,270,o),
(324,240,o),
(316,192,cs),
(306,133,o),
(254,98,o),
(184,98,cs),
(103,98,o),
(57,145,o),
(62,228,c),
(-67,197,l),
(-70,86,o),
(2,9,o),
(113,-9,c),
(43,-96,l),
(65,-96,o),
(87,-97,o),
(105,-100,cs),
(134,-105,o),
(156,-120,o),
(151,-149,cs),
(147,-173,o),
(128,-189,o),
(104,-189,cs),
(92,-189,o),
(73,-186,o),
(56,-168,c),
(8,-226,l),
(33,-251,o),
(65,-258,o),
(89,-258,cs),
(154,-258,o),
(210,-209,o),
(221,-146,cs),
(227,-112,o),
(216,-84,o),
(190,-67,cs),
(178,-59,o),
(163,-53,o),
(144,-49,c),
(179,-13,l),
(314,-6,o),
(421,78,o),
(443,203,cs)
);
}
);
width = 558;
}
);
note = Scedilla;
unicode = 350;
},
{
glyphname = uni0218;
kernLeft = S;
kernRight = S;
lastChange = "2022-12-26 08:52:18 +0000";
layers = (
{
hints = (
{
horizontal = 1;
place = (-349, 50);
place = (-349, 50);
type = Stem;
},
{
horizontal = 1;
place = (-136, -12);
place = (-136, -12);
type = Stem;
},
{
horizontal = 1;
place = (478, -12);
place = (478, -12);
type = Stem;
},
{
place = (-55, 2);
place = (-55, 2);
type = Stem;
},
{
place = (282, 2);
place = (282, 2);
type = Stem;
}
);
layerId = m01;
shapes = (
{
closed = 1;
nodes = (
(306,-13,o),
(420,73,o),
(443,203,cs),
(460,302,o),
(421,355,o),
(282,412,cs),
(184,453,o),
(155,479,o),
(163,525,cs),
(170,568,o),
(214,601,o),
(264,601,cs),
(311,601,o),
(347,573,o),
(362,521,c),
(477,585,l),
(448,669,o),
(382,712,o),
(288,712,cs),
(158,712,o),
(57,635,o),
(37,522,cs),
(19,421,o),
(62,368,o),
(198,311,cs),
(294,270,o),
(324,240,o),
(316,192,cs),
(306,133,o),
(254,98,o),
(184,98,cs),
(103,98,o),
(57,145,o),
(62,228,c),
(-67,197,l),
(-70,70,o),
(24,-13,o),
(163,-13,cs)
);
},
{
closed = 1;
nodes = (
(-14,-226,l),
(56,-226,l),
(209,-53,l),
(84,-53,l)
);
}
);
width = 558;
}
);
note = uni0218;
unicode = 536;
},
{
glyphname = uni1E9E;
lastChange = "2022-12-26 08:52:18 +0000";
layers = (
{
hints = (
{
horizontal = 1;
place = (-138, -7);
place = (-138, -7);
type = Stem;
},
{
horizontal = 1;
place = (453, -2);
place = (453, -2);
type = Stem;
},
{
place = (-51, 2);
place = (-51, 2);
type = Stem;
},
{
place = (163, 3);
place = (163, 3);
type = Stem;
},
{
place = (399, 14);
place = (399, 14);
type = Stem;
},
{
horizontal = 1;
place = (-123, 21);
target = up;
type = BottomGhost;
}
);
layerId = m01;
shapes = (
{
closed = 1;
nodes = (
(450,-15,o),
(546,54,o),
(562,145,cs),
(594,330,o),
(340,290,o),
(352,359,cs),
(355,374,o),
(370,391,o),
(382,403,cs),
(564,582,l),
(584,697,l),
(338,697,ls),
(99,697,o),
(45,543,o),
(24,426,cs),
(-51,0,l),
(74,0,l),
(149,426,ls),
(167,529,o),
(212,576,o),
(317,576,cs),
(409,576,l),
(309,476,ls),
(273,439,o),
(235,410,o),
(225,349,cs),
(196,186,o),
(440,232,o),
(424,143,cs),
(420,118,o),
(400,101,o),
(359,101,cs),
(299,101,o),
(270,138,o),
(259,184,c),
(143,128,l),
(153,48,o),
(224,-15,o),
(334,-15,cs)
);
}
);
width = 679;
}
);
note = uni1E9E;
unicode = 7838;
},
{
glyphname = T;
kernLeft = T;
kernRight = T;
lastChange = "2022-12-26 08:52:18 +0000";
layers = (
{
hints = (
{
horizontal = 1;
place = (-123, 21);
target = up;
type = BottomGhost;
},
{
horizontal = 1;
place = (459, -8);
place = (459, -8);
type = Stem;
},
{
place = (103, 3);
place = (103, 3);
type = Stem;
}
);
layerId = m01;
shapes = (
{
closed = 1;
nodes = (
(167,0,l),
(247,100,l),
(332,582,l),
(550,582,l),
(570,697,l),
(8,697,l),
(-12,582,l),
(206,582,l),
(103,0,l)
);
}
);
width = 578;
}
);
note = T;
unicode = 84;
},
{
glyphname = Tbar;
kernLeft = T;
kernRight = T;
lastChange = "2022-12-26 08:52:18 +0000";
layers = (
{
hints = (
{
horizontal = 1;
place = (-123, 21);
target = up;
type = BottomGhost;
},
{
horizontal = 1;
place = (186, -43);
place = (186, -43);
type = Stem;
},
{
horizontal = 1;
place = (459, -8);
place = (459, -8);
type = Stem;
},
{
place = (103, 3);
place = (103, 3);
type = Stem;
}
);
layerId = m01;
shapes = (
{
closed = 1;
nodes = (
(550,582,l),
(570,697,l),
(8,697,l),
(-12,582,l),
(206,582,l),
(172,389,l),
(73,389,l),
(59,309,l),
(158,309,l),
(103,0,l),
(229,0,l),
(284,309,l),
(382,309,l),
(396,389,l),
(298,389,l),
(332,582,l)
);
}
);
width = 578;
}
);
note = Tbar;
unicode = 358;
},
{
glyphname = Tcaron;
kernLeft = T;
kernRight = T;
lastChange = "2022-12-26 08:52:18 +0000";
layers = (
{
hints = (
{
horizontal = 1;
place = (-123, 21);
target = up;
type = BottomGhost;
},
{
horizontal = 1;
place = (459, -8);
place = (459, -8);
type = Stem;
},
{
place = (103, 3);
place = (103, 3);
type = Stem;
}
);
layerId = m01;
shapes = (
{
closed = 1;
nodes = (
(296,737,l),
(481,901,l),
(388,901,l),
(313,834,l),
(262,901,l),
(169,901,l)
);
},
{
closed = 1;
nodes = (
(103,0,l),
(229,0,l),
(332,582,l),
(550,582,l),
(570,697,l),
(8,697,l),
(-12,582,l),
(206,582,l)
);
}
);
width = 578;
}
);
note = Tcaron;
unicode = 356;
},
{
glyphname = uni0162;
kernLeft = T;
kernRight = T;
lastChange = "2022-12-26 08:52:18 +0000";
layers = (
{
hints = (
{
horizontal = 1;
place = (-381, -54);
place = (-381, -54);
type = Stem;
},
{
horizontal = 1;
place = (-123, 21);
target = up;
type = BottomGhost;
},
{
horizontal = 1;
place = (459, -8);
place = (459, -8);
type = Stem;
},
{
place = (103, 3);
place = (103, 3);
type = Stem;
},
{
place = (187, -53);
place = (187, -53);
type = Stem;
}
);
layerId = m01;
shapes = (
{
closed = 1;
nodes = (
(229,0,l),
(332,582,l),
(550,582,l),
(570,697,l),
(8,697,l),
(-12,582,l),
(206,582,l),
(103,0,l),
(130,0,l),
(53,-96,l),
(75,-96,o),
(97,-97,o),
(115,-100,cs),
(144,-105,o),
(166,-120,o),
(161,-149,cs),
(157,-173,o),
(138,-189,o),
(114,-189,cs),
(102,-189,o),
(83,-186,o),
(66,-168,c),
(18,-226,l),
(43,-251,o),
(75,-258,o),
(99,-258,cs),
(164,-258,o),
(220,-209,o),
(231,-146,cs),
(237,-112,o),
(226,-84,o),
(200,-67,cs),
(188,-59,o),
(173,-53,o),
(154,-49,c),
(201,0,l)
);
}
);
width = 578;
}
);
note = uni0162;
unicode = 354;
},
{
glyphname = uni021A;
kernLeft = T;
kernRight = T;
lastChange = "2022-12-26 08:52:18 +0000";
layers = (
{
hints = (
{
horizontal = 1;
place = (-349, 50);
place = (-349, 50);
type = Stem;
},
{
horizontal = 1;
place = (-123, 21);
target = up;
type = BottomGhost;
},
{
horizontal = 1;
place = (459, -8);
place = (459, -8);
type = Stem;
},
{
place = (103, 3);
place = (103, 3);
type = Stem;
}
);
layerId = m01;
shapes = (
{
closed = 1;
nodes = (
(103,0,l),
(229,0,l),
(332,582,l),
(550,582,l),
(570,697,l),
(8,697,l),
(-12,582,l),
(206,582,l)
);
},
{
closed = 1;
nodes = (
(-4,-226,l),
(66,-226,l),
(219,-53,l),
(94,-53,l)
);
}
);
width = 578;
}
);
note = uni021A;
unicode = 538;
},
{
glyphname = U;
kernLeft = U;
kernRight = J;
lastChange = "2022-12-26 08:52:18 +0000";
layers = (
{
hints = (
{
horizontal = 1;
place = (-138, -2);
place = (-138, -2);
type = Stem;
},
{
horizontal = 1;
place = (574, -20);
target = down;
type = TopGhost;
},
{
place = (-49, 2);
place = (-49, 2);
type = Stem;
},
{
place = (359, 2);
place = (359, 2);
type = Stem;
}
);
layerId = m01;
shapes = (
{
closed = 1;
nodes = (
(390,-15,o),
(498,76,o),
(529,257,cs),
(607,697,l),
(482,697,l),
(406,266,ls),
(385,149,o),
(339,106,o),
(236,106,cs),
(133,106,o),
(102,148,o),
(123,266,cs),
(196,682,ls),
(198,690,o),
(192,697,o),
(184,697,cs),
(74,697,l),
(-4,252,ls),
(-36,74,o),
(39,-15,o),
(214,-15,cs)
);
}
);
width = 681;
}
);
note = U;
unicode = 85;
},
{
glyphname = Uacute;
kernLeft = U;
kernRight = J;
lastChange = "2022-12-26 08:52:18 +0000";
layers = (
{
hints = (
{
horizontal = 1;
place = (-138, -2);
place = (-138, -2);
type = Stem;
},
{
horizontal = 1;
place = (574, -20);
target = down;
type = TopGhost;
},
{
horizontal = 1;
place = (636, 19);
place = (636, 19);
type = Stem;
},
{
place = (-49, 2);
place = (-49, 2);
type = Stem;
},
{
place = (359, 2);
place = (359, 2);
type = Stem;
}
);
layerId = m01;
shapes = (
{
closed = 1;
nodes = (
(308,759,l),
(396,759,l),
(573,901,l),
(444,901,l)
);
},
{
closed = 1;
nodes = (
(390,-15,o),
(498,76,o),
(529,257,cs),
(607,697,l),
(482,697,l),
(406,266,ls),
(385,149,o),
(339,106,o),
(236,106,cs),
(133,106,o),
(102,148,o),
(123,266,cs),
(199,697,l),
(74,697,l),
(-4,252,ls),
(-36,74,o),
(39,-15,o),
(214,-15,cs)
);
}
);
width = 681;
}
);
note = Uacute;
unicode = 218;
},
{
glyphname = uni01D3;
kernLeft = U;
kernRight = J;
lastChange = "2022-12-26 08:52:18 +0000";
layers = (
{
hints = (
{
horizontal = 1;
place = (-138, -2);
place = (-138, -2);
type = Stem;
},
{
horizontal = 1;
place = (574, -20);
target = down;
type = TopGhost;
},
{
place = (-49, 2);
place = (-49, 2);
type = Stem;
},
{
place = (359, 2);
place = (359, 2);
type = Stem;
}
);
layerId = m01;
shapes = (
{
closed = 1;
nodes = (
(348,737,l),
(533,901,l),
(440,901,l),
(365,834,l),
(314,901,l),
(221,901,l)
);
},
{
closed = 1;
nodes = (
(390,-15,o),
(498,76,o),
(529,257,cs),
(607,697,l),
(482,697,l),
(406,266,ls),
(385,149,o),
(339,106,o),
(236,106,cs),
(133,106,o),
(102,148,o),
(123,266,cs),
(199,697,l),
(74,697,l),
(-4,252,ls),
(-36,74,o),
(39,-15,o),
(214,-15,cs)
);
}
);
width = 681;
}
);
note = uni01D3;
unicode = 467;
},
{
glyphname = Ucircumflex;
kernLeft = U;
kernRight = J;
lastChange = "2022-12-26 08:52:18 +0000";
layers = (
{
hints = (
{
horizontal = 1;
place = (-138, -2);
place = (-138, -2);
type = Stem;
},
{
horizontal = 1;
place = (574, -20);
target = down;
type = TopGhost;
},
{
place = (-49, 2);
place = (-49, 2);
type = Stem;
},
{
place = (359, 2);
place = (359, 2);
type = Stem;
}
);
layerId = m01;
shapes = (
{
closed = 1;
nodes = (
(193,745,l),
(286,745,l),
(362,817,l),
(412,745,l),
(505,745,l),
(380,919,l)
);
},
{
closed = 1;
nodes = (
(390,-15,o),
(498,76,o),
(529,257,cs),
(607,697,l),
(482,697,l),
(406,266,ls),
(385,149,o),
(339,106,o),
(236,106,cs),
(133,106,o),
(102,148,o),
(123,266,cs),
(199,697,l),
(74,697,l),
(-4,252,ls),
(-36,74,o),
(39,-15,o),
(214,-15,cs)
);
}
);
width = 681;
}
);
note = Ucircumflex;
unicode = 219;
},
{
glyphname = Udieresis;
kernLeft = U;
kernRight = J;
lastChange = "2022-12-26 08:52:18 +0000";
layers = (
{
hints = (
{
horizontal = 1;
place = (-138, -2);
place = (-138, -2);
type = Stem;
},
{
horizontal = 1;
place = (574, -20);
target = down;
type = TopGhost;
},
{
horizontal = 1;
place = (667, -12);
place = (667, -12);
type = Stem;
},
{
place = (70, -22);
place = (70, -22);
type = Stem;
},
{
place = (265, -22);
place = (265, -22);
type = Stem;
},
{
place = (-49, 2);
place = (-49, 2);
type = Stem;
},
{
place = (359, 2);
place = (359, 2);
type = Stem;
}
);
layerId = m01;
shapes = (
{
closed = 1;
nodes = (
(209,790,l),
(310,790,l),
(330,901,l),
(229,901,l)
);
},
{
closed = 1;
nodes = (
(404,790,l),
(505,790,l),
(525,901,l),
(424,901,l)
);
},
{
closed = 1;
nodes = (
(390,-15,o),
(498,76,o),
(529,257,cs),
(607,697,l),
(482,697,l),
(406,266,ls),
(385,149,o),
(339,106,o),
(236,106,cs),
(133,106,o),
(102,148,o),
(123,266,cs),
(199,697,l),
(74,697,l),
(-4,252,ls),
(-36,74,o),
(39,-15,o),
(214,-15,cs)
);
}
);
width = 681;
}
);
note = Udieresis;
unicode = 220;
},
{
glyphname = uni01D7;
kernLeft = U;
kernRight = J;
lastChange = "2022-12-26 08:52:18 +0000";
layers = (
{
hints = (
{
horizontal = 1;
place = (-138, -2);
place = (-138, -2);
type = Stem;
},
{
horizontal = 1;
place = (574, -20);
target = down;
type = TopGhost;
},
{
horizontal = 1;
place = (667, -12);
place = (667, -12);
type = Stem;
},
{
horizontal = 1;
place = (840, 19);
place = (840, 19);
type = Stem;
},
{
place = (-49, 2);
place = (-49, 2);
type = Stem;
},
{
place = (359, 2);
place = (359, 2);
type = Stem;
},
{
place = (70, -22);
place = (70, -22);
type = Stem;
},
{
place = (265, -22);
place = (265, -22);
type = Stem;
}
);
layerId = m01;
shapes = (
{
closed = 1;
nodes = (
(344,963,l),
(432,963,l),
(609,1105,l),
(480,1105,l)
);
},
{
closed = 1;
nodes = (
(209,790,l),
(310,790,l),
(330,901,l),
(229,901,l)
);
},
{
closed = 1;
nodes = (
(404,790,l),
(505,790,l),
(525,901,l),
(424,901,l)
);
},
{
closed = 1;
nodes = (
(390,-15,o),
(498,76,o),
(529,257,cs),
(607,697,l),
(482,697,l),
(406,266,ls),
(385,149,o),
(339,106,o),
(236,106,cs),
(133,106,o),
(102,148,o),
(123,266,cs),
(199,697,l),
(74,697,l),
(-4,252,ls),
(-36,74,o),
(39,-15,o),
(214,-15,cs)
);
}
);
width = 681;
}
);
note = uni01D7;
unicode = 471;
},
{
glyphname = uni01D9;
kernLeft = U;
kernRight = J;
lastChange = "2022-12-26 08:52:18 +0000";
layers = (
{
hints = (
{
horizontal = 1;
place = (-138, -2);
place = (-138, -2);
type = Stem;
},
{
horizontal = 1;
place = (574, -20);
target = down;
type = TopGhost;
},
{
horizontal = 1;
place = (667, -12);
place = (667, -12);
type = Stem;
},
{
place = (-49, 2);
place = (-49, 2);
type = Stem;
},
{
place = (359, 2);
place = (359, 2);
type = Stem;
},
{
place = (70, -22);
place = (70, -22);
type = Stem;
},
{
place = (265, -22);
place = (265, -22);
type = Stem;
}
);
layerId = m01;
shapes = (
{
closed = 1;
nodes = (
(384,941,l),
(569,1105,l),
(476,1105,l),
(401,1038,l),
(350,1105,l),
(257,1105,l)
);
},
{
closed = 1;
nodes = (
(209,790,l),
(310,790,l),
(330,901,l),
(229,901,l)
);
},
{
closed = 1;
nodes = (
(404,790,l),
(505,790,l),
(525,901,l),
(424,901,l)
);
},
{
closed = 1;
nodes = (
(390,-15,o),
(498,76,o),
(529,257,cs),
(607,697,l),
(482,697,l),
(406,266,ls),
(385,149,o),
(339,106,o),
(236,106,cs),
(133,106,o),
(102,148,o),
(123,266,cs),
(199,697,l),
(74,697,l),
(-4,252,ls),
(-36,74,o),
(39,-15,o),
(214,-15,cs)
);
}
);
width = 681;
}
);
note = uni01D9;
unicode = 473;
},
{
glyphname = uni01DB;
kernLeft = U;
kernRight = J;
lastChange = "2022-12-26 08:52:18 +0000";
layers = (
{
hints = (
{
horizontal = 1;
place = (-138, -2);
place = (-138, -2);
type = Stem;
},
{
horizontal = 1;
place = (574, -20);
target = down;
type = TopGhost;
},
{
horizontal = 1;
place = (667, -12);
place = (667, -12);
type = Stem;
},
{
horizontal = 1;
place = (840, 19);
place = (840, 19);
type = Stem;
},
{
place = (-49, 2);
place = (-49, 2);
type = Stem;
},
{
place = (359, 2);
place = (359, 2);
type = Stem;
},
{
place = (70, -22);
place = (70, -22);
type = Stem;
},
{
place = (265, -22);
place = (265, -22);
type = Stem;
}
);
layerId = m01;
shapes = (
{
closed = 1;
nodes = (
(343,963,l),
(433,963,l),
(354,1105,l),
(226,1105,l)
);
},
{
closed = 1;
nodes = (
(209,790,l),
(310,790,l),
(330,901,l),
(229,901,l)
);
},
{
closed = 1;
nodes = (
(404,790,l),
(505,790,l),
(525,901,l),
(424,901,l)
);
},
{
closed = 1;
nodes = (
(390,-15,o),
(498,76,o),
(529,257,cs),
(607,697,l),
(482,697,l),
(406,266,ls),
(385,149,o),
(339,106,o),
(236,106,cs),
(133,106,o),
(102,148,o),
(123,266,cs),
(199,697,l),
(74,697,l),
(-4,252,ls),
(-36,74,o),
(39,-15,o),
(214,-15,cs)
);
}
);
width = 681;
}
);
note = uni01DB;
unicode = 475;
},
{
glyphname = uni01D5;
kernLeft = U;
kernRight = J;
lastChange = "2022-12-26 08:52:18 +0000";
layers = (
{
hints = (
{
horizontal = 1;
place = (-138, -2);
place = (-138, -2);
type = Stem;
},
{
horizontal = 1;
place = (574, -20);
target = down;
type = TopGhost;
},
{
horizontal = 1;
place = (667, -12);
place = (667, -12);
type = Stem;
},
{
horizontal = 1;
place = (851, -53);
place = (851, -53);
type = Stem;
},
{
place = (-49, 2);
place = (-49, 2);
type = Stem;
},
{
place = (359, 2);
place = (359, 2);
type = Stem;
},
{
place = (70, -22);
place = (70, -22);
type = Stem;
},
{
place = (265, -33);
place = (265, -33);
type = Stem;
},
{
place = (265, -22);
place = (265, -22);
type = Stem;
}
);
layerId = m01;
shapes = (
{
closed = 1;
nodes = (
(252,974,l),
(527,974,l),
(539,1044,l),
(264,1044,l)
);
},
{
closed = 1;
nodes = (
(209,790,l),
(310,790,l),
(330,901,l),
(229,901,l)
);
},
{
closed = 1;
nodes = (
(404,790,l),
(505,790,l),
(525,901,l),
(424,901,l)
);
},
{
closed = 1;
nodes = (
(390,-15,o),
(498,76,o),
(529,257,cs),
(607,697,l),
(482,697,l),
(406,266,ls),
(385,149,o),
(339,106,o),
(236,106,cs),
(133,106,o),
(102,148,o),
(123,266,cs),
(199,697,l),
(74,697,l),
(-4,252,ls),
(-36,74,o),
(39,-15,o),
(214,-15,cs)
);
}
);
width = 681;
}
);
note = uni01D5;
unicode = 469;
},
{
glyphname = uni1EE4;
kernLeft = U;
kernRight = J;
lastChange = "2022-12-26 08:52:18 +0000";
layers = (
{
hints = (
{
horizontal = 1;
place = (-296, -12);
place = (-296, -12);
type = Stem;
},
{
horizontal = 1;
place = (-138, -2);
place = (-138, -2);
type = Stem;
},
{
horizontal = 1;
place = (574, -20);
target = down;
type = TopGhost;
},
{
place = (-49, 2);
place = (-49, 2);
type = Stem;
},
{
place = (155, 3);
place = (155, 3);
type = Stem;
},
{
place = (359, 2);
place = (359, 2);
type = Stem;
}
);
layerId = m01;
shapes = (
{
closed = 1;
nodes = (
(390,-15,o),
(498,76,o),
(529,257,cs),
(607,697,l),
(482,697,l),
(406,266,ls),
(385,149,o),
(339,106,o),
(236,106,cs),
(133,106,o),
(102,148,o),
(123,266,cs),
(199,697,l),
(74,697,l),
(-4,252,ls),
(-36,74,o),
(39,-15,o),
(214,-15,cs)
);
},
{
closed = 1;
nodes = (
(125,-173,l),
(251,-173,l),
(270,-62,l),
(144,-62,l)
);
}
);
width = 681;
}
);
note = uni1EE4;
unicode = 7908;
},
{
glyphname = Ugrave;
kernLeft = U;
kernRight = J;
lastChange = "2022-12-26 08:52:18 +0000";
layers = (
{
hints = (
{
horizontal = 1;
place = (-138, -2);
place = (-138, -2);
type = Stem;
},
{
horizontal = 1;
place = (574, -20);
target = down;
type = TopGhost;
},
{
horizontal = 1;
place = (636, 19);
place = (636, 19);
type = Stem;
},
{
place = (-49, 2);
place = (-49, 2);
type = Stem;
},
{
place = (359, 2);
place = (359, 2);
type = Stem;
}
);
layerId = m01;
shapes = (
{
closed = 1;
nodes = (
(307,759,l),
(397,759,l),
(318,901,l),
(190,901,l)
);
},
{
closed = 1;
nodes = (
(390,-15,o),
(498,76,o),
(529,257,cs),
(607,697,l),
(482,697,l),
(406,266,ls),
(385,149,o),
(339,106,o),
(236,106,cs),
(133,106,o),
(102,148,o),
(123,266,cs),
(199,697,l),
(74,697,l),
(-4,252,ls),
(-36,74,o),
(39,-15,o),
(214,-15,cs)
);
}
);
width = 681;
}
);
note = Ugrave;
unicode = 217;
},
{
glyphname = uni1EE6;
kernLeft = U;
kernRight = J;
lastChange = "2022-12-26 08:52:18 +0000";
layers = (
{
hints = (
{
horizontal = 1;
place = (-138, -2);
place = (-138, -2);
type = Stem;
},
{
horizontal = 1;
place = (574, -20);
target = down;
type = TopGhost;
},
{
horizontal = 1;
place = (733, -57);
place = (733, -57);
type = Stem;
},
{
place = (-49, 2);
place = (-49, 2);
type = Stem;
},
{
place = (359, 2);
place = (359, 2);
type = Stem;
},
{
place = (255, -47);
place = (255, -47);
type = Stem;
}
);
layerId = m01;
shapes = (
{
closed = 1;
nodes = (
(338,736,l),
(390,744,o),
(464,756,o),
(477,825,cs),
(488,888,o),
(433,922,o),
(344,922,cs),
(329,922,l),
(317,856,l),
(332,856,ls),
(368,856,o),
(406,856,o),
(400,823,cs),
(395,793,o),
(363,789,o),
(333,785,c)
);
},
{
closed = 1;
nodes = (
(390,-15,o),
(498,76,o),
(529,257,cs),
(607,697,l),
(482,697,l),
(406,266,ls),
(385,149,o),
(339,106,o),
(236,106,cs),
(133,106,o),
(102,148,o),
(123,266,cs),
(199,697,l),
(74,697,l),
(-4,252,ls),
(-36,74,o),
(39,-15,o),
(214,-15,cs)
);
}
);
width = 681;
}
);
note = uni1EE6;
unicode = 7910;
},
{
glyphname = Uhorn;
kernLeft = U;
kernRight = J;
lastChange = "2022-12-26 08:52:18 +0000";
layers = (
{
hints = (
{
horizontal = 1;
place = (-138, -2);
place = (-138, -2);
type = Stem;
},
{
horizontal = 1;
place = (574, -20);
target = down;
type = TopGhost;
},
{
place = (-49, 2);
place = (-49, 2);
type = Stem;
},
{
place = (359, 2);
place = (359, 2);
type = Stem;
},
{
place = (540, -32);
place = (540, -32);
type = Stem;
}
);
layerId = m01;
shapes = (
{
closed = 1;
nodes = (
(663,697,l),
(654,648,ls),
(649,619,o),
(632,577,o),
(585,572,c),
(607,697,l),
(482,697,l),
(406,266,ls),
(385,149,o),
(339,106,o),
(236,106,cs),
(133,106,o),
(102,148,o),
(123,266,cs),
(199,697,l),
(74,697,l),
(-4,252,ls),
(-36,74,o),
(39,-15,o),
(214,-15,cs),
(390,-15,o),
(498,76,o),
(529,257,cs),
(571,493,l),
(677,497,o),
(732,570,o),
(747,658,cs),
(754,697,l)
);
}
);
width = 681;
}
);
note = Uhorn;
unicode = 431;
},
{
glyphname = uni1EE8;
kernLeft = U;
kernRight = J;
lastChange = "2022-12-26 08:52:18 +0000";
layers = (
{
hints = (
{
horizontal = 1;
place = (-138, -2);
place = (-138, -2);
type = Stem;
},
{
horizontal = 1;
place = (574, -20);
target = down;
type = TopGhost;
},
{
horizontal = 1;
place = (636, 19);
place = (636, 19);
type = Stem;
},
{
place = (-49, 2);
place = (-49, 2);
type = Stem;
},
{
place = (359, 2);
place = (359, 2);
type = Stem;
},
{
place = (540, -32);
place = (540, -32);
type = Stem;
}
);
layerId = m01;
shapes = (
{
closed = 1;
nodes = (
(573,901,l),
(444,901,l),
(308,759,l),
(396,759,l)
);
},
{
closed = 1;
nodes = (
(663,697,l),
(654,648,ls),
(649,619,o),
(632,577,o),
(585,572,c),
(607,697,l),
(482,697,l),
(406,266,ls),
(385,149,o),
(339,106,o),
(236,106,cs),
(133,106,o),
(102,148,o),
(123,266,cs),
(199,697,l),
(74,697,l),
(-4,252,ls),
(-36,74,o),
(39,-15,o),
(214,-15,cs),
(390,-15,o),
(498,76,o),
(529,257,cs),
(571,493,l),
(677,497,o),
(732,570,o),
(747,658,cs),
(754,697,l)
);
}
);
width = 681;
}
);
note = uni1EE8;
unicode = 7912;
},
{
glyphname = uni1EF0;
kernLeft = U;
kernRight = J;
lastChange = "2022-12-26 08:52:18 +0000";
layers = (
{
hints = (
{
horizontal = 1;
place = (-296, -12);
place = (-296, -12);
type = Stem;
},
{
horizontal = 1;
place = (-138, -2);
place = (-138, -2);
type = Stem;
},
{
horizontal = 1;
place = (574, -20);
target = down;
type = TopGhost;
},
{
place = (-49, 2);
place = (-49, 2);
type = Stem;
},
{
place = (155, 3);
place = (155, 3);
type = Stem;
},
{
place = (359, 2);
place = (359, 2);
type = Stem;
},
{
place = (540, -32);
place = (540, -32);
type = Stem;
}
);
layerId = m01;
shapes = (
{
closed = 1;
nodes = (
(663,697,l),
(654,648,ls),
(649,619,o),
(632,577,o),
(585,572,c),
(607,697,l),
(482,697,l),
(406,266,ls),
(385,149,o),
(339,106,o),
(236,106,cs),
(133,106,o),
(102,148,o),
(123,266,cs),
(199,697,l),
(74,697,l),
(-4,252,ls),
(-36,74,o),
(39,-15,o),
(214,-15,cs),
(390,-15,o),
(498,76,o),
(529,257,cs),
(571,493,l),
(677,497,o),
(732,570,o),
(747,658,cs),
(754,697,l)
);
},
{
closed = 1;
nodes = (
(125,-173,l),
(251,-173,l),
(270,-62,l),
(144,-62,l)
);
}
);
width = 681;
}
);
note = uni1EF0;
unicode = 7920;
},
{
glyphname = uni1EEA;
kernLeft = U;
kernRight = J;
lastChange = "2022-12-26 08:52:18 +0000";
layers = (
{
hints = (
{
horizontal = 1;
place = (-138, -2);
place = (-138, -2);
type = Stem;
},
{
horizontal = 1;
place = (574, -20);
target = down;
type = TopGhost;
},
{
horizontal = 1;
place = (636, 19);
place = (636, 19);
type = Stem;
},
{
place = (-49, 2);
place = (-49, 2);
type = Stem;
},
{
place = (359, 2);
place = (359, 2);
type = Stem;
},
{
place = (540, -32);
place = (540, -32);
type = Stem;
}
);
layerId = m01;
shapes = (
{
closed = 1;
nodes = (
(397,759,l),
(318,901,l),
(190,901,l),
(307,759,l)
);
},
{
closed = 1;
nodes = (
(663,697,l),
(654,648,ls),
(649,619,o),
(632,577,o),
(585,572,c),
(607,697,l),
(482,697,l),
(406,266,ls),
(385,149,o),
(339,106,o),
(236,106,cs),
(133,106,o),
(102,148,o),
(123,266,cs),
(199,697,l),
(74,697,l),
(-4,252,ls),
(-36,74,o),
(39,-15,o),
(214,-15,cs),
(390,-15,o),
(498,76,o),
(529,257,cs),
(571,493,l),
(677,497,o),
(732,570,o),
(747,658,cs),
(754,697,l)
);
}
);
width = 681;
}
);
note = uni1EEA;
unicode = 7914;
},
{
glyphname = uni1EEC;
kernLeft = U;
kernRight = J;
lastChange = "2022-12-26 08:52:18 +0000";
layers = (
{
hints = (
{
horizontal = 1;
place = (-138, -2);
place = (-138, -2);
type = Stem;
},
{
horizontal = 1;
place = (574, -20);
target = down;
type = TopGhost;
},
{
horizontal = 1;
place = (733, -57);
place = (733, -57);
type = Stem;
},
{
place = (-49, 2);
place = (-49, 2);
type = Stem;
},
{
place = (255, -47);
place = (255, -47);
type = Stem;
},
{
place = (359, 2);
place = (359, 2);
type = Stem;
},
{
place = (540, -32);
place = (540, -32);
type = Stem;
}
);
layerId = m01;
shapes = (
{
closed = 1;
nodes = (
(395,793,o),
(363,789,o),
(333,785,c),
(338,736,l),
(390,744,o),
(464,756,o),
(477,825,cs),
(488,888,o),
(433,922,o),
(344,922,cs),
(329,922,l),
(317,856,l),
(332,856,ls),
(368,856,o),
(406,856,o),
(400,823,cs)
);
},
{
closed = 1;
nodes = (
(663,697,l),
(654,648,ls),
(649,619,o),
(632,577,o),
(585,572,c),
(607,697,l),
(482,697,l),
(406,266,ls),
(385,149,o),
(339,106,o),
(236,106,cs),
(133,106,o),
(102,148,o),
(123,266,cs),
(199,697,l),
(74,697,l),
(-4,252,ls),
(-36,74,o),
(39,-15,o),
(214,-15,cs),
(390,-15,o),
(498,76,o),
(529,257,cs),
(571,493,l),
(677,497,o),
(732,570,o),
(747,658,cs),
(754,697,l)
);
}
);
width = 681;
}
);
note = uni1EEC;
unicode = 7916;
},
{
glyphname = uni1EEE;
kernLeft = U;
kernRight = J;
lastChange = "2022-12-26 08:52:18 +0000";
layers = (
{
hints = (
{
horizontal = 1;
place = (-138, -2);
place = (-138, -2);
type = Stem;
},
{
horizontal = 1;
place = (574, -20);
target = down;
type = TopGhost;
},
{
horizontal = 1;
place = (707, -49);
place = (707, -49);
type = Stem;
},
{
place = (51, -54);
place = (51, -54);
type = Stem;
},
{
place = (359, 2);
place = (359, 2);
type = Stem;
},
{
place = (540, -32);
place = (540, -32);
type = Stem;
},
{
horizontal = 1;
place = (637, -49);
place = (637, -49);
type = Stem;
},
{
place = (-49, 2);
place = (-49, 2);
type = Stem;
},
{
place = (312, -51);
place = (312, -51);
type = Stem;
},
{
place = (51, -98);
place = (51, -98);
type = Stem;
}
);
layerId = m01;
shapes = (
{
closed = 1;
nodes = (
(335,830,o),
(337,760,o),
(415,760,cs),
(478,760,o),
(527,810,o),
(543,901,c),
(471,901,l),
(463,858,o),
(446,834,o),
(429,834,cs),
(394,834,o),
(385,904,o),
(316,904,cs),
(251,904,o),
(202,853,o),
(186,763,c),
(255,763,l),
(262,806,o),
(278,830,o),
(298,830,cs)
);
},
{
closed = 1;
nodes = (
(663,697,l),
(654,648,ls),
(649,619,o),
(632,577,o),
(585,572,c),
(607,697,l),
(482,697,l),
(406,266,ls),
(385,149,o),
(339,106,o),
(236,106,cs),
(133,106,o),
(102,148,o),
(123,266,cs),
(199,697,l),
(74,697,l),
(-4,252,ls),
(-36,74,o),
(39,-15,o),
(214,-15,cs),
(390,-15,o),
(498,76,o),
(529,257,cs),
(571,493,l),
(677,497,o),
(732,570,o),
(747,658,cs),
(754,697,l)
);
}
);
width = 681;
}
);
note = uni1EEE;
unicode = 7918;
},
{
glyphname = Uhungarumlaut;
kernLeft = U;
kernRight = J;
lastChange = "2022-12-26 08:52:18 +0000";
layers = (
{
hints = (
{
horizontal = 1;
place = (-138, -2);
place = (-138, -2);
type = Stem;
},
{
horizontal = 1;
place = (574, -20);
target = down;
type = TopGhost;
},
{
horizontal = 1;
place = (615, 40);
place = (615, 40);
type = Stem;
},
{
place = (-49, 2);
place = (-49, 2);
type = Stem;
},
{
place = (359, 2);
place = (359, 2);
type = Stem;
}
);
layerId = m01;
shapes = (
{
closed = 1;
nodes = (
(208,738,l),
(296,738,l),
(456,901,l),
(348,901,l)
);
},
{
closed = 1;
nodes = (
(400,738,l),
(488,738,l),
(668,901,l),
(540,901,l)
);
},
{
closed = 1;
nodes = (
(390,-15,o),
(498,76,o),
(529,257,cs),
(607,697,l),
(482,697,l),
(406,266,ls),
(385,149,o),
(339,106,o),
(236,106,cs),
(133,106,o),
(102,148,o),
(123,266,cs),
(199,697,l),
(74,697,l),
(-4,252,ls),
(-36,74,o),
(39,-15,o),
(214,-15,cs)
);
}
);
width = 681;
}
);
note = Uhungarumlaut;
unicode = 368;
},
{
glyphname = Umacron;
kernLeft = U;
kernRight = J;
lastChange = "2022-12-26 08:52:18 +0000";
layers = (
{
hints = (
{
horizontal = 1;
place = (-138, -2);
place = (-138, -2);
type = Stem;
},
{
horizontal = 1;
place = (574, -20);
target = down;
type = TopGhost;
},
{
horizontal = 1;
place = (647, -53);
place = (647, -53);
type = Stem;
},
{
place = (80, 152);
place = (80, 152);
type = Stem;
},
{
place = (-49, 2);
place = (-49, 2);
type = Stem;
},
{
place = (359, 2);
place = (359, 2);
type = Stem;
}
);
layerId = m01;
shapes = (
{
closed = 1;
nodes = (
(216,770,l),
(491,770,l),
(503,840,l),
(228,840,l)
);
},
{
closed = 1;
nodes = (
(390,-15,o),
(498,76,o),
(529,257,cs),
(607,697,l),
(482,697,l),
(406,266,ls),
(385,149,o),
(339,106,o),
(236,106,cs),
(133,106,o),
(102,148,o),
(123,266,cs),
(199,697,l),
(74,697,l),
(-4,252,ls),
(-36,74,o),
(39,-15,o),
(214,-15,cs)
);
}
);
width = 681;
}
);
note = Umacron;
unicode = 362;
},
{
glyphname = Uogonek;
kernLeft = U;
kernRight = J;
lastChange = "2022-12-26 08:52:18 +0000";
layers = (
{
hints = (
{
horizontal = 1;
place = (-345, -49);
place = (-345, -49);
type = Stem;
},
{
horizontal = 1;
place = (-137, -3);
place = (-137, -3);
type = Stem;
},
{
horizontal = 1;
place = (574, -20);
target = down;
type = TopGhost;
},
{
place = (-49, 2);
place = (-49, 2);
type = Stem;
},
{
place = (129, -51);
place = (129, -51);
type = Stem;
},
{
place = (359, 2);
place = (359, 2);
type = Stem;
}
);
layerId = m01;
shapes = (
{
closed = 1;
nodes = (
(482,697,l),
(406,266,ls),
(385,149,o),
(339,106,o),
(236,106,cs),
(133,106,o),
(102,148,o),
(123,266,cs),
(199,697,l),
(74,697,l),
(-4,252,ls),
(-34,84,o),
(31,-5,o),
(186,-14,c),
(153,-36,o),
(117,-71,o),
(108,-121,cs),
(97,-182,o),
(138,-222,o),
(202,-222,cs),
(252,-222,o),
(290,-197,o),
(321,-162,c),
(267,-120,l),
(251,-138,o),
(233,-148,o),
(212,-148,cs),
(192,-148,o),
(177,-139,o),
(182,-109,cs),
(191,-58,o),
(245,-26,o),
(278,-11,c),
(417,10,o),
(502,99,o),
(529,257,cs),
(607,697,l)
);
}
);
width = 681;
}
);
note = Uogonek;
unicode = 370;
},
{
glyphname = Uring;
kernLeft = U;
kernRight = J;
lastChange = "2022-12-26 08:52:18 +0000";
layers = (
{
hints = (
{
horizontal = 1;
place = (-138, -2);
place = (-138, -2);
type = Stem;
},
{
horizontal = 1;
place = (554, -103);
place = (554, -103);
type = Stem;
},
{
horizontal = 1;
place = (717, -58);
place = (717, -58);
type = Stem;
},
{
place = (-49, 2);
place = (-49, 2);
type = Stem;
},
{
place = (104, -58);
place = (104, -58);
type = Stem;
},
{
place = (267, -58);
place = (267, -58);
type = Stem;
},
{
place = (359, 2);
place = (359, 2);
type = Stem;
},
{
horizontal = 1;
place = (554, -58);
place = (554, -58);
type = Stem;
}
);
layerId = m01;
shapes = (
{
closed = 1;
nodes = (
(400,677,o),
(460,728,o),
(472,791,cs),
(483,855,o),
(439,905,o),
(378,905,cs),
(315,905,o),
(255,854,o),
(244,791,cs),
(233,730,o),
(273,677,o),
(337,677,cs)
);
},
{
closed = 1;
nodes = (
(321,742,o),
(304,763,o),
(309,792,cs),
(314,820,o),
(336,840,o),
(366,840,cs),
(397,840,o),
(412,820,o),
(407,792,cs),
(402,763,o),
(378,742,o),
(349,742,cs)
);
},
{
closed = 1;
nodes = (
(390,-15,o),
(498,76,o),
(529,257,cs),
(607,697,l),
(482,697,l),
(406,266,ls),
(385,149,o),
(339,106,o),
(236,106,cs),
(133,106,o),
(102,148,o),
(123,266,cs),
(199,697,l),
(74,697,l),
(-4,252,ls),
(-36,74,o),
(39,-15,o),
(214,-15,cs)
);
}
);
width = 681;
}
);
note = Uring;
unicode = 366;
},
{
glyphname = Utilde;
kernLeft = U;
kernRight = J;
lastChange = "2022-12-26 08:52:18 +0000";
layers = (
{
hints = (
{
horizontal = 1;
place = (-138, -2);
place = (-138, -2);
type = Stem;
},
{
horizontal = 1;
place = (574, -20);
target = down;
type = TopGhost;
},
{
horizontal = 1;
place = (637, -49);
place = (637, -49);
type = Stem;
},
{
place = (-49, 2);
place = (-49, 2);
type = Stem;
},
{
place = (312, -51);
place = (312, -51);
type = Stem;
},
{
horizontal = 1;
place = (707, -49);
place = (707, -49);
type = Stem;
},
{
place = (51, -98);
place = (51, -98);
type = Stem;
},
{
place = (359, 2);
place = (359, 2);
type = Stem;
},
{
place = (51, -54);
place = (51, -54);
type = Stem;
}
);
layerId = m01;
shapes = (
{
closed = 1;
nodes = (
(478,760,o),
(527,810,o),
(543,901,c),
(471,901,l),
(463,858,o),
(446,834,o),
(429,834,cs),
(394,834,o),
(385,904,o),
(316,904,cs),
(251,904,o),
(202,853,o),
(186,763,c),
(255,763,l),
(262,806,o),
(278,830,o),
(298,830,cs),
(335,830,o),
(337,760,o),
(415,760,cs)
);
},
{
closed = 1;
nodes = (
(390,-15,o),
(498,76,o),
(529,257,cs),
(607,697,l),
(482,697,l),
(406,266,ls),
(385,149,o),
(339,106,o),
(236,106,cs),
(133,106,o),
(102,148,o),
(123,266,cs),
(199,697,l),
(74,697,l),
(-4,252,ls),
(-36,74,o),
(39,-15,o),
(214,-15,cs)
);
}
);
width = 681;
}
);
note = Utilde;
unicode = 360;
},
{
glyphname = V;
kernLeft = V;
kernRight = V;
lastChange = "2022-12-26 08:52:18 +0000";
layers = (
{
hints = (
{
horizontal = 1;
place = (-123, 21);
target = up;
type = BottomGhost;
},
{
horizontal = 1;
place = (574, -20);
target = down;
type = TopGhost;
},
{
place = (-119, 528);
place = (-119, 528);
type = Stem;
}
);
layerId = m01;
shapes = (
{
closed = 1;
nodes = (
(516,697,o),
(501,669,qs),
(243,204,l),
(142,697,l),
(4,697,l),
(160,0,l),
(254,0,l),
(655,697,l),
(547,697,ls)
);
}
);
width = 659;
}
);
note = V;
unicode = 86;
},
{
glyphname = W;
kernLeft = W;
kernRight = W;
lastChange = "2022-12-26 08:52:18 +0000";
layers = (
{
hints = (
{
horizontal = 1;
place = (-123, 21);
target = up;
type = BottomGhost;
},
{
horizontal = 1;
place = (574, -20);
target = down;
type = TopGhost;
},
{
place = (-112, 841);
place = (-112, 841);
type = Stem;
},
{
horizontal = 1;
place = (-123, 68);
place = (-123, 68);
type = Stem;
}
);
layerId = m01;
shapes = (
{
closed = 1;
nodes = (
(845,697,o),
(831,668,qs),
(609,191,l),
(539,657,l),
(462,657,ls),
(432,657,o),
(418,628,qs),
(199,191,l),
(141,697,l),
(11,697,l),
(97,0,l),
(218,0,l),
(451,459,l),
(521,0,l),
(643,0,l),
(975,697,l),
(874,697,ls)
);
}
);
width = 986;
}
);
note = W;
unicode = 87;
},
{
glyphname = Wacute;
kernLeft = W;
kernRight = W;
lastChange = "2022-12-26 08:52:18 +0000";
layers = (
{
hints = (
{
horizontal = 1;
place = (-123, 21);
target = up;
type = BottomGhost;
},
{
horizontal = 1;
place = (574, -20);
target = down;
type = TopGhost;
},
{
horizontal = 1;
place = (636, 19);
place = (636, 19);
type = Stem;
},
{
place = (-112, 841);
place = (-112, 841);
type = Stem;
},
{
horizontal = 1;
place = (-123, 68);
place = (-123, 68);
type = Stem;
}
);
layerId = m01;
shapes = (
{
closed = 1;
nodes = (
(460,759,l),
(548,759,l),
(725,901,l),
(596,901,l)
);
},
{
closed = 1;
nodes = (
(97,0,l),
(218,0,l),
(451,459,l),
(521,0,l),
(643,0,l),
(975,697,l),
(844,697,l),
(609,191,l),
(539,657,l),
(432,657,l),
(199,191,l),
(141,697,l),
(11,697,l)
);
}
);
width = 986;
}
);
note = Wacute;
unicode = 7810;
},
{
glyphname = Wcircumflex;
kernLeft = W;
kernRight = W;
lastChange = "2022-12-26 08:52:18 +0000";
layers = (
{
hints = (
{
horizontal = 1;
place = (-123, 21);
target = up;
type = BottomGhost;
},
{
horizontal = 1;
place = (574, -20);
target = down;
type = TopGhost;
},
{
place = (-112, 841);
place = (-112, 841);
type = Stem;
},
{
horizontal = 1;
place = (-123, 68);
place = (-123, 68);
type = Stem;
}
);
layerId = m01;
shapes = (
{
closed = 1;
nodes = (
(345,745,l),
(438,745,l),
(514,817,l),
(564,745,l),
(657,745,l),
(532,919,l)
);
},
{
closed = 1;
nodes = (
(97,0,l),
(218,0,l),
(451,459,l),
(521,0,l),
(643,0,l),
(975,697,l),
(844,697,l),
(609,191,l),
(539,657,l),
(432,657,l),
(199,191,l),
(141,697,l),
(11,697,l)
);
}
);
width = 986;
}
);
note = Wcircumflex;
unicode = 372;
},
{
glyphname = Wdieresis;
kernLeft = W;
kernRight = W;
lastChange = "2022-12-26 08:52:18 +0000";
layers = (
{
hints = (
{
horizontal = 1;
place = (-123, 21);
target = up;
type = BottomGhost;
},
{
horizontal = 1;
place = (574, -20);
target = down;
type = TopGhost;
},
{
horizontal = 1;
place = (667, -12);
place = (667, -12);
type = Stem;
},
{
place = (222, -22);
place = (222, -22);
type = Stem;
},
{
place = (417, -22);
place = (417, -22);
type = Stem;
},
{
horizontal = 1;
place = (-123, 68);
place = (-123, 68);
type = Stem;
}
);
layerId = m01;
shapes = (
{
closed = 1;
nodes = (
(361,790,l),
(462,790,l),
(482,901,l),
(381,901,l)
);
},
{
closed = 1;
nodes = (
(556,790,l),
(657,790,l),
(677,901,l),
(576,901,l)
);
},
{
closed = 1;
nodes = (
(97,0,l),
(218,0,l),
(451,459,l),
(521,0,l),
(643,0,l),
(975,697,l),
(844,697,l),
(609,191,l),
(539,657,l),
(432,657,l),
(199,191,l),
(141,697,l),
(11,697,l)
);
}
);
width = 986;
}
);
note = Wdieresis;
unicode = 7812;
},
{
glyphname = Wgrave;
kernLeft = W;
kernRight = W;
lastChange = "2022-12-26 08:52:18 +0000";
layers = (
{
hints = (
{
horizontal = 1;
place = (-123, 21);
target = up;
type = BottomGhost;
},
{
horizontal = 1;
place = (574, -20);
target = down;
type = TopGhost;
},
{
horizontal = 1;
place = (636, 19);
place = (636, 19);
type = Stem;
},
{
place = (-112, 841);
place = (-112, 841);
type = Stem;
},
{
horizontal = 1;
place = (-123, 68);
place = (-123, 68);
type = Stem;
}
);
layerId = m01;
shapes = (
{
closed = 1;
nodes = (
(459,759,l),
(549,759,l),
(470,901,l),
(342,901,l)
);
},
{
closed = 1;
nodes = (
(97,0,l),
(218,0,l),
(451,459,l),
(521,0,l),
(643,0,l),
(975,697,l),
(844,697,l),
(609,191,l),
(539,657,l),
(432,657,l),
(199,191,l),
(141,697,l),
(11,697,l)
);
}
);
width = 986;
}
);
note = Wgrave;
unicode = 7808;
},
{
glyphname = X;
kernLeft = X;
kernRight = X;
lastChange = "2022-12-26 08:52:18 +0000";
layers = (
{
hints = (
{
horizontal = 1;
place = (-123, 21);
target = up;
type = BottomGhost;
},
{
horizontal = 1;
place = (574, -20);
target = down;
type = TopGhost;
},
{
place = (-112, 516);
place = (-112, 516);
type = Stem;
}
);
layerId = m01;
shapes = (
{
closed = 1;
nodes = (
(376,0,o),
(407,0,qs),
(527,0,l),
(354,348,l),
(648,697,l),
(499,697,l),
(284,435,l),
(174,672,ls),
(162,697,o),
(132,697,qs),
(12,697,l),
(182,348,l),
(-112,0,l),
(38,0,l),
(252,258,l),
(365,25,ls)
);
}
);
width = 660;
}
);
note = X;
unicode = 88;
},
{
glyphname = Y;
kernLeft = Y;
kernRight = Y;
lastChange = "2022-12-26 08:52:18 +0000";
layers = (
{
hints = (
{
horizontal = 1;
place = (-123, 21);
target = up;
type = BottomGhost;
},
{
horizontal = 1;
place = (574, -20);
target = down;
type = TopGhost;
},
{
place = (139, 2);
place = (139, 2);
type = Stem;
}
);
layerId = m01;
shapes = (
{
closed = 1;
nodes = (
(139,0,l),
(264,0,l),
(312,272,l),
(650,697,l),
(502,697,l),
(268,392,l),
(144,697,l),
(-3,697,l),
(187,272,l)
);
}
);
width = 647;
}
);
note = Y;
unicode = 89;
},
{
glyphname = Yacute;
kernLeft = Y;
kernRight = Y;
lastChange = "2022-12-26 08:52:18 +0000";
layers = (
{
hints = (
{
horizontal = 1;
place = (-123, 21);
target = up;
type = BottomGhost;
},
{
horizontal = 1;
place = (574, -20);
target = down;
type = TopGhost;
},
{
horizontal = 1;
place = (636, 19);
place = (636, 19);
type = Stem;
},
{
place = (139, 2);
place = (139, 2);
type = Stem;
}
);
layerId = m01;
shapes = (
{
closed = 1;
nodes = (
(291,759,l),
(379,759,l),
(556,901,l),
(427,901,l)
);
},
{
closed = 1;
nodes = (
(139,0,l),
(264,0,l),
(312,272,l),
(650,697,l),
(502,697,l),
(268,392,l),
(144,697,l),
(-3,697,l),
(187,272,l)
);
}
);
width = 647;
}
);
note = Yacute;
unicode = 221;
},
{
glyphname = Ycircumflex;
kernLeft = Y;
kernRight = Y;
lastChange = "2022-12-26 08:52:18 +0000";
layers = (
{
hints = (
{
horizontal = 1;
place = (-123, 21);
target = up;
type = BottomGhost;
},
{
horizontal = 1;
place = (574, -20);
target = down;
type = TopGhost;
},
{
place = (139, 2);
place = (139, 2);
type = Stem;
}
);
layerId = m01;
shapes = (
{
closed = 1;
nodes = (
(176,745,l),
(269,745,l),
(345,817,l),
(395,745,l),
(488,745,l),
(363,919,l)
);
},
{
closed = 1;
nodes = (
(139,0,l),
(264,0,l),
(312,272,l),
(650,697,l),
(502,697,l),
(268,392,l),
(144,697,l),
(-3,697,l),
(187,272,l)
);
}
);
width = 647;
}
);
note = Ycircumflex;
unicode = 374;
},
{
glyphname = Ydieresis;
kernLeft = Y;
kernRight = Y;
lastChange = "2022-12-26 08:52:18 +0000";
layers = (
{
hints = (
{
horizontal = 1;
place = (-123, 21);
target = up;
type = BottomGhost;
},
{
horizontal = 1;
place = (574, -20);
target = down;
type = TopGhost;
},
{
horizontal = 1;
place = (667, -12);
place = (667, -12);
type = Stem;
},
{
place = (53, -22);
place = (53, -22);
type = Stem;
},
{
place = (248, -22);
place = (248, -22);
type = Stem;
},
{
place = (139, 2);
place = (139, 2);
type = Stem;
}
);
layerId = m01;
shapes = (
{
closed = 1;
nodes = (
(192,790,l),
(293,790,l),
(313,901,l),
(212,901,l)
);
},
{
closed = 1;
nodes = (
(387,790,l),
(488,790,l),
(508,901,l),
(407,901,l)
);
},
{
closed = 1;
nodes = (
(139,0,l),
(264,0,l),
(312,272,l),
(650,697,l),
(502,697,l),
(268,392,l),
(144,697,l),
(-3,697,l),
(187,272,l)
);
}
);
width = 647;
}
);
note = Ydieresis;
unicode = 376;
},
{
glyphname = uni1EF4;
kernLeft = Y;
kernRight = Y;
lastChange = "2022-12-26 08:52:18 +0000";
layers = (
{
hints = (
{
horizontal = 1;
place = (-296, -12);
place = (-296, -12);
type = Stem;
},
{
horizontal = 1;
place = (-123, 21);
target = up;
type = BottomGhost;
},
{
horizontal = 1;
place = (574, -20);
target = down;
type = TopGhost;
},
{
place = (139, 2);
place = (139, 2);
type = Stem;
},
{
place = (138, 3);
place = (138, 3);
type = Stem;
}
);
layerId = m01;
shapes = (
{
closed = 1;
nodes = (
(139,0,l),
(264,0,l),
(312,272,l),
(650,697,l),
(502,697,l),
(268,392,l),
(144,697,l),
(-3,697,l),
(187,272,l)
);
},
{
closed = 1;
nodes = (
(108,-173,l),
(234,-173,l),
(253,-62,l),
(127,-62,l)
);
}
);
width = 647;
}
);
note = uni1EF4;
unicode = 7924;
},
{
glyphname = Ygrave;
kernLeft = Y;
kernRight = Y;
lastChange = "2022-12-26 08:52:18 +0000";
layers = (
{
hints = (
{
horizontal = 1;
place = (-123, 21);
target = up;
type = BottomGhost;
},
{
horizontal = 1;
place = (574, -20);
target = down;
type = TopGhost;
},
{
horizontal = 1;
place = (636, 19);
place = (636, 19);
type = Stem;
},
{
place = (139, 2);
place = (139, 2);
type = Stem;
}
);
layerId = m01;
shapes = (
{
closed = 1;
nodes = (
(290,759,l),
(380,759,l),
(301,901,l),
(173,901,l)
);
},
{
closed = 1;
nodes = (
(139,0,l),
(264,0,l),
(312,272,l),
(650,697,l),
(502,697,l),
(268,392,l),
(144,697,l),
(-3,697,l),
(187,272,l)
);
}
);
width = 647;
}
);
note = Ygrave;
unicode = 7922;
},
{
glyphname = uni1EF6;
kernLeft = Y;
kernRight = Y;
lastChange = "2022-12-26 08:52:18 +0000";
layers = (
{
hints = (
{
horizontal = 1;
place = (-123, 21);
target = up;
type = BottomGhost;
},
{
horizontal = 1;
place = (574, -20);
target = down;
type = TopGhost;
},
{
horizontal = 1;
place = (733, -57);
place = (733, -57);
type = Stem;
},
{
place = (139, 2);
place = (139, 2);
type = Stem;
},
{
place = (238, -47);
place = (238, -47);
type = Stem;
}
);
layerId = m01;
shapes = (
{
closed = 1;
nodes = (
(321,736,l),
(373,744,o),
(447,756,o),
(460,825,cs),
(471,888,o),
(416,922,o),
(327,922,cs),
(312,922,l),
(300,856,l),
(315,856,ls),
(351,856,o),
(389,856,o),
(383,823,cs),
(378,793,o),
(346,789,o),
(316,785,c)
);
},
{
closed = 1;
nodes = (
(139,0,l),
(264,0,l),
(312,272,l),
(650,697,l),
(502,697,l),
(268,392,l),
(144,697,l),
(-3,697,l),
(187,272,l)
);
}
);
width = 647;
}
);
note = uni1EF6;
unicode = 7926;
},
{
glyphname = uni1EF8;
kernLeft = Y;
kernRight = Y;
lastChange = "2022-12-26 08:52:18 +0000";
layers = (
{
hints = (
{
horizontal = 1;
place = (-123, 21);
target = up;
type = BottomGhost;
},
{
horizontal = 1;
place = (574, -20);
target = down;
type = TopGhost;
},
{
horizontal = 1;
place = (637, -49);
place = (637, -49);
type = Stem;
},
{
place = (139, 2);
place = (139, 2);
type = Stem;
},
{
place = (295, -51);
place = (295, -51);
type = Stem;
},
{
horizontal = 1;
place = (707, -49);
place = (707, -49);
type = Stem;
},
{
place = (34, -54);
place = (34, -54);
type = Stem;
}
);
layerId = m01;
shapes = (
{
closed = 1;
nodes = (
(461,760,o),
(510,810,o),
(526,901,c),
(454,901,l),
(446,858,o),
(429,834,o),
(412,834,cs),
(377,834,o),
(368,904,o),
(299,904,cs),
(234,904,o),
(185,853,o),
(169,763,c),
(238,763,l),
(245,806,o),
(261,830,o),
(281,830,cs),
(318,830,o),
(320,760,o),
(398,760,cs)
);
},
{
closed = 1;
nodes = (
(139,0,l),
(264,0,l),
(312,272,l),
(650,697,l),
(502,697,l),
(268,392,l),
(144,697,l),
(-3,697,l),
(187,272,l)
);
}
);
width = 647;
}
);
note = uni1EF8;
unicode = 7928;
},
{
glyphname = Z;
kernLeft = Z;
kernRight = Z;
lastChange = "2022-12-26 08:52:18 +0000";
layers = (
{
hints = (
{
horizontal = 1;
place = (-123, -8);
place = (-123, -8);
type = Stem;
},
{
horizontal = 1;
place = (459, -8);
place = (459, -8);
type = Stem;
},
{
place = (-96, 439);
place = (-96, 439);
type = Stem;
}
);
layerId = m01;
shapes = (
{
closed = 1;
nodes = (
(486,115,o),
(456,115,qs),
(95,115,l),
(573,606,l),
(589,697,l),
(50,697,l),
(30,582,l),
(402,582,l),
(-81,87,l),
(-96,0,l),
(466,0,l),
(481,85,ls)
);
}
);
width = 624;
}
);
note = Z;
unicode = 90;
},
{
glyphname = Zacute;
kernLeft = Z;
kernRight = Z;
lastChange = "2022-12-26 08:52:18 +0000";
layers = (
{
hints = (
{
horizontal = 1;
place = (-123, -8);
place = (-123, -8);
type = Stem;
},
{
horizontal = 1;
place = (459, -8);
place = (459, -8);
type = Stem;
},
{
horizontal = 1;
place = (636, 19);
place = (636, 19);
type = Stem;
},
{
place = (-96, 439);
place = (-96, 439);
type = Stem;
}
);
layerId = m01;
shapes = (
{
closed = 1;
nodes = (
(544,901,l),
(415,901,l),
(279,759,l),
(367,759,l)
);
},
{
closed = 1;
nodes = (
(589,697,l),
(50,697,l),
(30,582,l),
(402,582,l),
(-81,87,l),
(-96,0,l),
(466,0,l),
(486,115,l),
(95,115,l),
(573,606,l)
);
}
);
width = 624;
}
);
note = Zacute;
unicode = 377;
},
{
glyphname = Zcaron;
kernLeft = Z;
kernRight = Z;
lastChange = "2022-12-26 08:52:18 +0000";
layers = (
{
hints = (
{
horizontal = 1;
place = (-123, -8);
place = (-123, -8);
type = Stem;
},
{
horizontal = 1;
place = (459, -8);
place = (459, -8);
type = Stem;
},
{
place = (-96, 439);
place = (-96, 439);
type = Stem;
}
);
layerId = m01;
shapes = (
{
closed = 1;
nodes = (
(504,901,l),
(411,901,l),
(336,834,l),
(285,901,l),
(192,901,l),
(319,737,l)
);
},
{
closed = 1;
nodes = (
(589,697,l),
(50,697,l),
(30,582,l),
(402,582,l),
(-81,87,l),
(-96,0,l),
(466,0,l),
(486,115,l),
(95,115,l),
(573,606,l)
);
}
);
width = 624;
}
);
note = Zcaron;
unicode = 381;
},
{
glyphname = Zdotaccent;
kernLeft = Z;
kernRight = Z;
lastChange = "2022-12-26 08:52:18 +0000";
layers = (
{
hints = (
{
horizontal = 1;
place = (-123, -8);
place = (-123, -8);
type = Stem;
},
{
horizontal = 1;
place = (459, -8);
place = (459, -8);
type = Stem;
},
{
horizontal = 1;
place = (667, -12);
place = (667, -12);
type = Stem;
},
{
place = (126, 3);
place = (126, 3);
type = Stem;
}
);
layerId = m01;
shapes = (
{
closed = 1;
nodes = (
(411,901,l),
(285,901,l),
(265,790,l),
(391,790,l)
);
},
{
closed = 1;
nodes = (
(589,697,l),
(50,697,l),
(30,582,l),
(402,582,l),
(-81,87,l),
(-96,0,l),
(466,0,l),
(486,115,l),
(95,115,l),
(573,606,l)
);
}
);
width = 624;
}
);
note = Zdotaccent;
unicode = 379;
},
{
glyphname = uni1EB6.ss03;
kernLeft = A;
kernRight = A;
lastChange = "2022-12-26 08:52:18 +0000";
layers = (
{
hints = (
{
horizontal = 1;
place = (-123, 21);
target = up;
type = BottomGhost;
},
{
horizontal = 1;
place = (21, -8);
place = (21, -8);
type = Stem;
},
{
horizontal = 1;
place = (574, -20);
target = down;
type = TopGhost;
},
{
horizontal = 1;
place = (645, -53);
place = (645, -53);
type = Stem;
},
{
place = (51, -38);
place = (51, -38);
type = Stem;
},
{
place = (278, -38);
place = (278, -38);
type = Stem;
},
{
horizontal = 1;
place = (645, 10);
place = (645, 10);
type = Stem;
},
{
horizontal = 1;
place = (-313, 26);
place = (-313, 26);
type = Stem;
},
{
place = (133, 25);
place = (133, 25);
type = Stem;
}
);
layerId = m01;
shapes = (
{
closed = 1;
nodes = (
(446,768,o),
(506,811,o),
(522,901,c),
(437,901,l),
(430,860,o),
(396,838,o),
(355,838,cs),
(316,838,o),
(287,858,o),
(295,901,c),
(210,901,l),
(195,815,o),
(235,768,o),
(343,768,cs)
);
},
{
closed = 1;
nodes = (
(532,0,l),
(377,697,l),
(283,697,l),
(-119,0,l),
(17,0,l),
(95,144,l),
(368,144,l),
(396,0,l)
);
},
{
closed = 1;
nodes = (
(159,259,l),
(298,513,l),
(347,259,l)
);
},
{
closed = 1;
nodes = (
(158,-41,o),
(120,-73,o),
(113,-115,cs),
(105,-157,o),
(133,-190,o),
(174,-190,cs),
(216,-190,o),
(253,-157,o),
(261,-115,cs),
(268,-73,o),
(242,-41,o),
(200,-41,cs)
);
}
);
width = 659;
}
);
note = uni1EB6.ss03;
},
{
glyphname = uni1EAC.ss03;
kernLeft = A;
kernRight = A;
lastChange = "2022-12-26 08:52:18 +0000";
layers = (
{
hints = (
{
horizontal = 1;
place = (-313, 26);
place = (-313, 26);
type = Stem;
},
{
horizontal = 1;
place = (-123, 21);
target = up;
type = BottomGhost;
},
{
horizontal = 1;
place = (21, -8);
place = (21, -8);
type = Stem;
},
{
horizontal = 1;
place = (574, -20);
target = down;
type = TopGhost;
},
{
place = (133, 25);
place = (133, 25);
type = Stem;
}
);
layerId = m01;
shapes = (
{
closed = 1;
nodes = (
(351,817,l),
(401,745,l),
(494,745,l),
(369,919,l),
(182,745,l),
(275,745,l)
);
},
{
closed = 1;
nodes = (
(532,0,l),
(377,697,l),
(283,697,l),
(-119,0,l),
(17,0,l),
(95,144,l),
(368,144,l),
(396,0,l)
);
},
{
closed = 1;
nodes = (
(159,259,l),
(298,513,l),
(347,259,l)
);
},
{
closed = 1;
nodes = (
(158,-41,o),
(120,-73,o),
(113,-115,cs),
(105,-157,o),
(133,-190,o),
(174,-190,cs),
(216,-190,o),
(253,-157,o),
(261,-115,cs),
(268,-73,o),
(242,-41,o),
(200,-41,cs)
);
}
);
width = 659;
}
);
note = uni1EAC.ss03;
},
{
glyphname = Adieresis.ss03;
kernLeft = A;
kernRight = A;
lastChange = "2022-12-26 08:52:18 +0000";
layers = (
{
hints = (
{
horizontal = 1;
place = (-123, 21);
target = up;
type = BottomGhost;
},
{
horizontal = 1;
place = (21, -8);
place = (21, -8);
type = Stem;
},
{
horizontal = 1;
place = (574, -20);
target = down;
type = TopGhost;
},
{
horizontal = 1;
place = (639, 26);
place = (639, 26);
type = Stem;
},
{
place = (35, 25);
place = (35, 25);
type = Stem;
},
{
place = (231, 25);
place = (231, 25);
type = Stem;
}
);
layerId = m01;
shapes = (
{
closed = 1;
nodes = (
(285,762,o),
(323,795,o),
(331,837,cs),
(338,879,o),
(312,911,o),
(270,911,cs),
(228,911,o),
(190,879,o),
(183,837,cs),
(175,795,o),
(202,762,o),
(243,762,cs)
);
},
{
closed = 1;
nodes = (
(481,762,o),
(519,795,o),
(527,837,cs),
(534,879,o),
(508,911,o),
(466,911,cs),
(424,911,o),
(386,879,o),
(379,837,cs),
(371,795,o),
(398,762,o),
(439,762,cs)
);
},
{
closed = 1;
nodes = (
(396,0,l),
(532,0,l),
(377,697,l),
(283,697,l),
(-119,0,l),
(17,0,l),
(95,144,l),
(368,144,l)
);
},
{
closed = 1;
nodes = (
(159,259,l),
(298,513,l),
(347,259,l)
);
}
);
width = 659;
}
);
note = Adieresis.ss03;
},
{
glyphname = uni1EA0.ss03;
kernLeft = A;
kernRight = A;
lastChange = "2022-12-26 08:52:18 +0000";
layers = (
{
hints = (
{
horizontal = 1;
place = (-313, 26);
place = (-313, 26);
type = Stem;
},
{
horizontal = 1;
place = (-123, 21);
target = up;
type = BottomGhost;
},
{
horizontal = 1;
place = (21, -8);
place = (21, -8);
type = Stem;
},
{
horizontal = 1;
place = (574, -20);
target = down;
type = TopGhost;
},
{
place = (133, 25);
place = (133, 25);
type = Stem;
}
);
layerId = m01;
shapes = (
{
closed = 1;
nodes = (
(532,0,l),
(377,697,l),
(283,697,l),
(-119,0,l),
(17,0,l),
(95,144,l),
(368,144,l),
(396,0,l)
);
},
{
closed = 1;
nodes = (
(159,259,l),
(298,513,l),
(347,259,l)
);
},
{
closed = 1;
nodes = (
(158,-41,o),
(120,-73,o),
(113,-115,cs),
(105,-157,o),
(133,-190,o),
(174,-190,cs),
(216,-190,o),
(253,-157,o),
(261,-115,cs),
(268,-73,o),
(242,-41,o),
(200,-41,cs)
);
}
);
width = 659;
}
);
note = uni1EA0.ss03;
},
{
glyphname = Cdotaccent.ss03;
kernLeft = C;
kernRight = C;
lastChange = "2022-12-26 08:52:18 +0000";
layers = (
{
hints = (
{
horizontal = 1;
place = (-138, -4);
place = (-138, -4);
type = Stem;
},
{
horizontal = 1;
place = (471, -4);
place = (471, -4);
type = Stem;
},
{
horizontal = 1;
place = (639, 26);
place = (639, 26);
type = Stem;
},
{
place = (-83, 2);
place = (-83, 2);
type = Stem;
},
{
place = (186, 25);
place = (186, 25);
type = Stem;
}
);
layerId = m01;
shapes = (
{
closed = 1;
nodes = (
(436,762,o),
(474,795,o),
(482,837,cs),
(489,879,o),
(463,911,o),
(421,911,cs),
(379,911,o),
(341,879,o),
(334,837,cs),
(326,795,o),
(353,762,o),
(394,762,cs)
);
},
{
closed = 1;
nodes = (
(401,-15,o),
(526,58,o),
(600,193,c),
(491,237,l),
(445,149,o),
(369,104,o),
(273,104,cs),
(139,104,o),
(76,193,o),
(104,350,cs),
(131,506,o),
(225,594,o),
(360,594,cs),
(455,594,o),
(515,551,o),
(531,464,c),
(654,509,l),
(626,642,o),
(528,713,o),
(381,713,cs),
(175,713,o),
(18,572,o),
(-21,349,cs),
(-61,126,o),
(46,-15,o),
(252,-15,cs)
);
}
);
width = 711;
}
);
note = Cdotaccent.ss03;
},
{
glyphname = uni1EC6.ss03;
lastChange = "2022-12-26 08:52:18 +0000";
layers = (
{
hints = (
{
horizontal = 1;
place = (-313, 26);
place = (-313, 26);
type = Stem;
},
{
horizontal = 1;
place = (-123, -8);
place = (-123, -8);
type = Stem;
},
{
horizontal = 1;
place = (178, -8);
place = (178, -8);
type = Stem;
},
{
horizontal = 1;
place = (459, -8);
place = (459, -8);
type = Stem;
},
{
place = (-35, 2);
place = (-35, 2);
type = Stem;
},
{
place = (123, 25);
place = (123, 25);
type = Stem;
}
);
layerId = m01;
shapes = (
{
closed = 1;
nodes = (
(172,745,l),
(265,745,l),
(341,817,l),
(391,745,l),
(484,745,l),
(359,919,l)
);
},
{
closed = 1;
nodes = (
(-35,0,l),
(429,0,l),
(449,115,l),
(110,115,l),
(143,301,l),
(458,301,l),
(478,416,l),
(163,416,l),
(193,582,l),
(532,582,l),
(552,697,l),
(88,697,l)
);
},
{
closed = 1;
nodes = (
(206,-190,o),
(243,-157,o),
(251,-115,cs),
(258,-73,o),
(232,-41,o),
(190,-41,cs),
(148,-41,o),
(110,-73,o),
(103,-115,cs),
(95,-157,o),
(123,-190,o),
(164,-190,cs)
);
}
);
width = 610;
}
);
note = uni1EC6.ss03;
},
{
glyphname = Edieresis.ss03;
lastChange = "2022-12-26 08:52:18 +0000";
layers = (
{
hints = (
{
horizontal = 1;
place = (-123, -8);
place = (-123, -8);
type = Stem;
},
{
horizontal = 1;
place = (178, -8);
place = (178, -8);
type = Stem;
},
{
horizontal = 1;
place = (459, -8);
place = (459, -8);
type = Stem;
},
{
horizontal = 1;
place = (639, 26);
place = (639, 26);
type = Stem;
},
{
place = (25, 25);
place = (25, 25);
type = Stem;
},
{
place = (221, 25);
place = (221, 25);
type = Stem;
},
{
place = (-35, 2);
place = (-35, 2);
type = Stem;
}
);
layerId = m01;
shapes = (
{
closed = 1;
nodes = (
(275,762,o),
(313,795,o),
(321,837,cs),
(328,879,o),
(302,911,o),
(260,911,cs),
(218,911,o),
(180,879,o),
(173,837,cs),
(165,795,o),
(192,762,o),
(233,762,cs)
);
},
{
closed = 1;
nodes = (
(471,762,o),
(509,795,o),
(517,837,cs),
(524,879,o),
(498,911,o),
(456,911,cs),
(414,911,o),
(376,879,o),
(369,837,cs),
(361,795,o),
(388,762,o),
(429,762,cs)
);
},
{
closed = 1;
nodes = (
(-35,0,l),
(429,0,l),
(449,115,l),
(110,115,l),
(143,301,l),
(458,301,l),
(478,416,l),
(163,416,l),
(193,582,l),
(532,582,l),
(552,697,l),
(88,697,l)
);
}
);
width = 610;
}
);
note = Edieresis.ss03;
},
{
glyphname = Edotaccent.ss03;
lastChange = "2022-12-26 08:52:18 +0000";
layers = (
{
hints = (
{
horizontal = 1;
place = (-123, -8);
place = (-123, -8);
type = Stem;
},
{
horizontal = 1;
place = (178, -8);
place = (178, -8);
type = Stem;
},
{
horizontal = 1;
place = (459, -8);
place = (459, -8);
type = Stem;
},
{
horizontal = 1;
place = (639, 26);
place = (639, 26);
type = Stem;
},
{
place = (-35, 2);
place = (-35, 2);
type = Stem;
},
{
place = (123, 25);
place = (123, 25);
type = Stem;
}
);
layerId = m01;
shapes = (
{
closed = 1;
nodes = (
(373,762,o),
(411,795,o),
(419,837,cs),
(426,879,o),
(400,911,o),
(358,911,cs),
(316,911,o),
(278,879,o),
(271,837,cs),
(263,795,o),
(290,762,o),
(331,762,cs)
);
},
{
closed = 1;
nodes = (
(-35,0,l),
(429,0,l),
(449,115,l),
(110,115,l),
(143,301,l),
(458,301,l),
(478,416,l),
(163,416,l),
(193,582,l),
(532,582,l),
(552,697,l),
(88,697,l)
);
}
);
width = 610;
}
);
note = Edotaccent.ss03;
},
{
glyphname = uni1EB8.ss03;
lastChange = "2022-12-26 08:52:18 +0000";
layers = (
{
hints = (
{
horizontal = 1;
place = (-313, 26);
place = (-313, 26);
type = Stem;
},
{
horizontal = 1;
place = (-123, -8);
place = (-123, -8);
type = Stem;
},
{
horizontal = 1;
place = (178, -8);
place = (178, -8);
type = Stem;
},
{
horizontal = 1;
place = (459, -8);
place = (459, -8);
type = Stem;
},
{
place = (-35, 2);
place = (-35, 2);
type = Stem;
},
{
place = (123, 25);
place = (123, 25);
type = Stem;
}
);
layerId = m01;
shapes = (
{
closed = 1;
nodes = (
(-35,0,l),
(429,0,l),
(449,115,l),
(110,115,l),
(143,301,l),
(458,301,l),
(478,416,l),
(163,416,l),
(193,582,l),
(532,582,l),
(552,697,l),
(88,697,l)
);
},
{
closed = 1;
nodes = (
(206,-190,o),
(243,-157,o),
(251,-115,cs),
(258,-73,o),
(232,-41,o),
(190,-41,cs),
(148,-41,o),
(110,-73,o),
(103,-115,cs),
(95,-157,o),
(123,-190,o),
(164,-190,cs)
);
}
);
width = 610;
}
);
note = uni1EB8.ss03;
},
{
glyphname = Gdotaccent.ss03;
kernRight = G;
lastChange = "2022-12-26 08:52:18 +0000";
layers = (
{
hints = (
{
horizontal = 1;
place = (-138, -4);
place = (-138, -4);
type = Stem;
},
{
horizontal = 1;
place = (139, -8);
place = (139, -8);
type = Stem;
},
{
horizontal = 1;
place = (471, -4);
place = (471, -4);
type = Stem;
},
{
horizontal = 1;
place = (639, 26);
place = (639, 26);
type = Stem;
},
{
place = (-85, 2);
place = (-85, 2);
type = Stem;
},
{
place = (179, 25);
place = (179, 25);
type = Stem;
},
{
place = (445, 1);
place = (445, 1);
type = Stem;
},
{
horizontal = 1;
place = (-123, 21);
target = up;
type = BottomGhost;
}
);
layerId = m01;
shapes = (
{
closed = 1;
nodes = (
(429,762,o),
(467,795,o),
(475,837,cs),
(482,879,o),
(456,911,o),
(414,911,cs),
(372,911,o),
(334,879,o),
(327,837,cs),
(319,795,o),
(346,762,o),
(387,762,cs)
);
},
{
closed = 1;
nodes = (
(356,377,l),
(335,262,l),
(491,262,l),
(490,253,ls),
(473,159,o),
(397,104,o),
(285,104,cs),
(143,104,o),
(74,192,o),
(102,351,cs),
(129,504,o),
(224,594,o),
(358,594,cs),
(452,594,o),
(513,550,o),
(529,464,c),
(652,509,l),
(624,641,o),
(523,713,o),
(381,713,cs),
(172,713,o),
(13,557,o),
(-23,350,cs),
(-62,129,o),
(61,-15,o),
(256,-15,cs),
(346,-15,o),
(427,16,o),
(478,72,c),
(480,0,l),
(569,0,l),
(636,377,l)
);
}
);
width = 755;
}
);
note = Gdotaccent.ss03;
},
{
glyphname = Idieresis.ss03;
lastChange = "2022-12-26 08:52:18 +0000";
layers = (
{
hints = (
{
horizontal = 1;
place = (-123, 21);
target = up;
type = BottomGhost;
},
{
horizontal = 1;
place = (574, -20);
target = down;
type = TopGhost;
},
{
horizontal = 1;
place = (639, 26);
place = (639, 26);
type = Stem;
},
{
place = (-144, 25);
place = (-144, 25);
type = Stem;
},
{
place = (52, 25);
place = (52, 25);
type = Stem;
},
{
place = (-35, 2);
place = (-35, 2);
type = Stem;
}
);
layerId = m01;
shapes = (
{
closed = 1;
nodes = (
(106,762,o),
(144,795,o),
(152,837,cs),
(159,879,o),
(133,911,o),
(91,911,cs),
(49,911,o),
(11,879,o),
(4,837,cs),
(-4,795,o),
(23,762,o),
(64,762,cs)
);
},
{
closed = 1;
nodes = (
(302,762,o),
(340,795,o),
(348,837,cs),
(355,879,o),
(329,911,o),
(287,911,cs),
(245,911,o),
(207,879,o),
(200,837,cs),
(192,795,o),
(219,762,o),
(260,762,cs)
);
},
{
closed = 1;
nodes = (
(-35,0,l),
(90,0,l),
(213,697,l),
(88,697,l)
);
}
);
width = 301;
}
);
note = Idieresis.ss03;
},
{
glyphname = uni1ECA.ss03;
lastChange = "2022-12-26 08:52:18 +0000";
layers = (
{
hints = (
{
horizontal = 1;
place = (-313, 26);
place = (-313, 26);
type = Stem;
},
{
horizontal = 1;
place = (-123, 21);
target = up;
type = BottomGhost;
},
{
horizontal = 1;
place = (574, -20);
target = down;
type = TopGhost;
},
{
place = (-35, 2);
place = (-35, 2);
type = Stem;
}
);
layerId = m01;
shapes = (
{
closed = 1;
nodes = (
(-35,0,l),
(90,0,l),
(213,697,l),
(88,697,l)
);
},
{
closed = 1;
nodes = (
(37,-190,o),
(74,-157,o),
(82,-115,cs),
(89,-73,o),
(63,-41,o),
(21,-41,cs),
(-21,-41,o),
(-59,-73,o),
(-66,-115,cs),
(-74,-157,o),
(-46,-190,o),
(-5,-190,cs)
);
}
);
width = 301;
}
);
note = uni1ECA.ss03;
},
{
glyphname = uni1ED8.ss03;
lastChange = "2022-12-26 08:52:18 +0000";
layers = (
{
hints = (
{
horizontal = 1;
place = (-138, -4);
place = (-138, -4);
type = Stem;
},
{
horizontal = 1;
place = (470, -4);
place = (470, -4);
type = Stem;
},
{
place = (-84, 2);
place = (-84, 2);
type = Stem;
},
{
place = (457, 2);
place = (457, 2);
type = Stem;
},
{
horizontal = 1;
place = (-313, 26);
place = (-313, 26);
type = Stem;
},
{
place = (175, 25);
place = (175, 25);
type = Stem;
}
);
layerId = m01;
shapes = (
{
closed = 1;
nodes = (
(224,745,l),
(317,745,l),
(393,817,l),
(443,745,l),
(536,745,l),
(411,919,l)
);
},
{
closed = 1;
nodes = (
(444,-15,o),
(605,130,o),
(643,348,cs),
(682,567,o),
(574,712,o),
(375,712,cs),
(177,712,o),
(16,567,o),
(-23,348,cs),
(-61,130,o),
(48,-15,o),
(246,-15,cs)
);
},
{
closed = 1;
nodes = (
(140,104,o),
(76,197,o),
(102,348,cs),
(129,500,o),
(227,593,o),
(354,593,cs),
(481,593,o),
(545,499,o),
(518,348,cs),
(492,198,o),
(394,104,o),
(267,104,cs)
);
},
{
closed = 1;
nodes = (
(258,-190,o),
(295,-157,o),
(303,-115,cs),
(310,-73,o),
(284,-41,o),
(242,-41,cs),
(200,-41,o),
(162,-73,o),
(155,-115,cs),
(147,-157,o),
(175,-190,o),
(216,-190,cs)
);
}
);
width = 744;
}
);
note = uni1ED8.ss03;
},
{
glyphname = Odieresis.ss03;
lastChange = "2022-12-26 08:52:18 +0000";
layers = (
{
hints = (
{
horizontal = 1;
place = (-138, -4);
place = (-138, -4);
type = Stem;
},
{
horizontal = 1;
place = (470, -4);
place = (470, -4);
type = Stem;
},
{
horizontal = 1;
place = (639, 26);
place = (639, 26);
type = Stem;
},
{
place = (-84, 2);
place = (-84, 2);
type = Stem;
},
{
place = (77, 25);
place = (77, 25);
type = Stem;
},
{
place = (273, 25);
place = (273, 25);
type = Stem;
},
{
place = (457, 2);
place = (457, 2);
type = Stem;
}
);
layerId = m01;
shapes = (
{
closed = 1;
nodes = (
(327,762,o),
(365,795,o),
(373,837,cs),
(380,879,o),
(354,911,o),
(312,911,cs),
(270,911,o),
(232,879,o),
(225,837,cs),
(217,795,o),
(244,762,o),
(285,762,cs)
);
},
{
closed = 1;
nodes = (
(523,762,o),
(561,795,o),
(569,837,cs),
(576,879,o),
(550,911,o),
(508,911,cs),
(466,911,o),
(428,879,o),
(421,837,cs),
(413,795,o),
(440,762,o),
(481,762,cs)
);
},
{
closed = 1;
nodes = (
(444,-15,o),
(605,130,o),
(643,348,cs),
(682,567,o),
(574,712,o),
(375,712,cs),
(177,712,o),
(16,567,o),
(-23,348,cs),
(-61,130,o),
(48,-15,o),
(246,-15,cs)
);
},
{
closed = 1;
nodes = (
(140,104,o),
(76,197,o),
(102,348,cs),
(129,500,o),
(227,593,o),
(354,593,cs),
(481,593,o),
(545,499,o),
(518,348,cs),
(492,198,o),
(394,104,o),
(267,104,cs)
);
}
);
width = 744;
}
);
note = Odieresis.ss03;
},
{
glyphname = uni1ECC.ss03;
lastChange = "2022-12-26 08:52:18 +0000";
layers = (
{
hints = (
{
horizontal = 1;
place = (-138, -4);
place = (-138, -4);
type = Stem;
},
{
horizontal = 1;
place = (470, -4);
place = (470, -4);
type = Stem;
},
{
place = (-84, 2);
place = (-84, 2);
type = Stem;
},
{
place = (457, 2);
place = (457, 2);
type = Stem;
},
{
horizontal = 1;
place = (-313, 26);
place = (-313, 26);
type = Stem;
},
{
place = (175, 25);
place = (175, 25);
type = Stem;
}
);
layerId = m01;
shapes = (
{
closed = 1;
nodes = (
(444,-15,o),
(605,130,o),
(643,348,cs),
(682,567,o),
(574,712,o),
(375,712,cs),
(177,712,o),
(16,567,o),
(-23,348,cs),
(-61,130,o),
(48,-15,o),
(246,-15,cs)
);
},
{
closed = 1;
nodes = (
(140,104,o),
(76,197,o),
(102,348,cs),
(129,500,o),
(227,593,o),
(354,593,cs),
(481,593,o),
(545,499,o),
(518,348,cs),
(492,198,o),
(394,104,o),
(267,104,cs)
);
},
{
closed = 1;
nodes = (
(258,-190,o),
(295,-157,o),
(303,-115,cs),
(310,-73,o),
(284,-41,o),
(242,-41,cs),
(200,-41,o),
(162,-73,o),
(155,-115,cs),
(147,-157,o),
(175,-190,o),
(216,-190,cs)
);
}
);
width = 744;
}
);
note = uni1ECC.ss03;
},
{
glyphname = uni1EE2.ss03;
lastChange = "2022-12-26 08:52:18 +0000";
layers = (
{
hints = (
{
horizontal = 1;
place = (-138, -4);
place = (-138, -4);
type = Stem;
},
{
horizontal = 1;
place = (382, -20);
target = down;
type = TopGhost;
},
{
horizontal = 1;
place = (574, -20);
target = down;
type = TopGhost;
},
{
place = (-84, 2);
place = (-84, 2);
type = Stem;
},
{
place = (551, -32);
place = (551, -32);
type = Stem;
},
{
horizontal = 1;
place = (470, -4);
place = (470, -4);
type = Stem;
},
{
place = (457, 2);
place = (457, 2);
type = Stem;
},
{
horizontal = 1;
place = (-313, 26);
place = (-313, 26);
type = Stem;
},
{
place = (175, 25);
place = (175, 25);
type = Stem;
}
);
layerId = m01;
shapes = (
{
closed = 1;
nodes = (
(674,697,l),
(665,648,ls),
(661,624,o),
(648,592,o),
(619,578,c),
(576,663,o),
(491,712,o),
(375,712,cs),
(177,712,o),
(16,567,o),
(-23,348,cs),
(-61,130,o),
(48,-15,o),
(246,-15,cs),
(444,-15,o),
(605,130,o),
(643,348,cs),
(654,406,o),
(654,459,o),
(644,505,c),
(711,530,o),
(746,590,o),
(758,658,cs),
(765,697,l)
);
},
{
closed = 1;
nodes = (
(140,104,o),
(76,197,o),
(102,348,cs),
(129,500,o),
(227,593,o),
(354,593,cs),
(481,593,o),
(545,499,o),
(518,348,cs),
(492,198,o),
(394,104,o),
(267,104,cs)
);
},
{
closed = 1;
nodes = (
(200,-41,o),
(162,-73,o),
(155,-115,cs),
(147,-157,o),
(175,-190,o),
(216,-190,cs),
(258,-190,o),
(295,-157,o),
(303,-115,cs),
(310,-73,o),
(284,-41,o),
(242,-41,cs)
);
}
);
width = 744;
}
);
note = uni1EE2.ss03;
},
{
glyphname = Udieresis.ss03;
kernLeft = U;
lastChange = "2022-12-26 08:52:18 +0000";
layers = (
{
hints = (
{
horizontal = 1;
place = (-138, -2);
place = (-138, -2);
type = Stem;
},
{
horizontal = 1;
place = (574, -20);
target = down;
type = TopGhost;
},
{
horizontal = 1;
place = (639, 26);
place = (639, 26);
type = Stem;
},
{
place = (46, 25);
place = (46, 25);
type = Stem;
},
{
place = (242, 25);
place = (242, 25);
type = Stem;
},
{
place = (-49, 2);
place = (-49, 2);
type = Stem;
},
{
place = (359, 2);
place = (359, 2);
type = Stem;
}
);
layerId = m01;
shapes = (
{
closed = 1;
nodes = (
(296,762,o),
(334,795,o),
(342,837,cs),
(349,879,o),
(323,911,o),
(281,911,cs),
(239,911,o),
(201,879,o),
(194,837,cs),
(186,795,o),
(213,762,o),
(254,762,cs)
);
},
{
closed = 1;
nodes = (
(492,762,o),
(530,795,o),
(538,837,cs),
(545,879,o),
(519,911,o),
(477,911,cs),
(435,911,o),
(397,879,o),
(390,837,cs),
(382,795,o),
(409,762,o),
(450,762,cs)
);
},
{
closed = 1;
nodes = (
(390,-15,o),
(498,76,o),
(529,257,cs),
(607,697,l),
(482,697,l),
(406,266,ls),
(385,149,o),
(339,106,o),
(236,106,cs),
(133,106,o),
(102,148,o),
(123,266,cs),
(199,697,l),
(74,697,l),
(-4,252,ls),
(-36,74,o),
(39,-15,o),
(214,-15,cs)
);
}
);
width = 681;
}
);
note = Udieresis.ss03;
},
{
glyphname = uni01D7.ss03;
kernLeft = U;
lastChange = "2022-12-26 08:52:18 +0000";
layers = (
{
hints = (
{
horizontal = 1;
place = (-138, -2);
place = (-138, -2);
type = Stem;
},
{
horizontal = 1;
place = (574, -20);
target = down;
type = TopGhost;
},
{
horizontal = 1;
place = (639, 26);
place = (639, 26);
type = Stem;
},
{
horizontal = 1;
place = (850, 19);
place = (850, 19);
type = Stem;
},
{
place = (-49, 2);
place = (-49, 2);
type = Stem;
},
{
place = (359, 2);
place = (359, 2);
type = Stem;
},
{
place = (46, 25);
place = (46, 25);
type = Stem;
},
{
place = (242, 25);
place = (242, 25);
type = Stem;
}
);
layerId = m01;
shapes = (
{
closed = 1;
nodes = (
(346,973,l),
(434,973,l),
(611,1115,l),
(482,1115,l)
);
},
{
closed = 1;
nodes = (
(296,762,o),
(334,795,o),
(342,837,cs),
(349,879,o),
(323,911,o),
(281,911,cs),
(239,911,o),
(201,879,o),
(194,837,cs),
(186,795,o),
(213,762,o),
(254,762,cs)
);
},
{
closed = 1;
nodes = (
(492,762,o),
(530,795,o),
(538,837,cs),
(545,879,o),
(519,911,o),
(477,911,cs),
(435,911,o),
(397,879,o),
(390,837,cs),
(382,795,o),
(409,762,o),
(450,762,cs)
);
},
{
closed = 1;
nodes = (
(390,-15,o),
(498,76,o),
(529,257,cs),
(607,697,l),
(482,697,l),
(406,266,ls),
(385,149,o),
(339,106,o),
(236,106,cs),
(133,106,o),
(102,148,o),
(123,266,cs),
(199,697,l),
(74,697,l),
(-4,252,ls),
(-36,74,o),
(39,-15,o),
(214,-15,cs)
);
}
);
width = 681;
}
);
note = uni01D7.ss03;
},
{
glyphname = uni01D9.ss03;
kernLeft = U;
lastChange = "2022-12-26 08:52:18 +0000";
layers = (
{
hints = (
{
horizontal = 1;
place = (-138, -2);
place = (-138, -2);
type = Stem;
},
{
horizontal = 1;
place = (574, -20);
target = down;
type = TopGhost;
},
{
horizontal = 1;
place = (639, 26);
place = (639, 26);
type = Stem;
},
{
place = (-49, 2);
place = (-49, 2);
type = Stem;
},
{
place = (359, 2);
place = (359, 2);
type = Stem;
},
{
place = (46, 25);
place = (46, 25);
type = Stem;
},
{
place = (242, 25);
place = (242, 25);
type = Stem;
}
);
layerId = m01;
shapes = (
{
closed = 1;
nodes = (
(386,951,l),
(571,1115,l),
(478,1115,l),
(403,1048,l),
(352,1115,l),
(259,1115,l)
);
},
{
closed = 1;
nodes = (
(296,762,o),
(334,795,o),
(342,837,cs),
(349,879,o),
(323,911,o),
(281,911,cs),
(239,911,o),
(201,879,o),
(194,837,cs),
(186,795,o),
(213,762,o),
(254,762,cs)
);
},
{
closed = 1;
nodes = (
(492,762,o),
(530,795,o),
(538,837,cs),
(545,879,o),
(519,911,o),
(477,911,cs),
(435,911,o),
(397,879,o),
(390,837,cs),
(382,795,o),
(409,762,o),
(450,762,cs)
);
},
{
closed = 1;
nodes = (
(390,-15,o),
(498,76,o),
(529,257,cs),
(607,697,l),
(482,697,l),
(406,266,ls),
(385,149,o),
(339,106,o),
(236,106,cs),
(133,106,o),
(102,148,o),
(123,266,cs),
(199,697,l),
(74,697,l),
(-4,252,ls),
(-36,74,o),
(39,-15,o),
(214,-15,cs)
);
}
);
width = 681;
}
);
note = uni01D9.ss03;
},
{
glyphname = uni01DB.ss03;
kernLeft = U;
lastChange = "2022-12-26 08:52:18 +0000";
layers = (
{
hints = (
{
horizontal = 1;
place = (-138, -2);
place = (-138, -2);
type = Stem;
},
{
horizontal = 1;
place = (574, -20);
target = down;
type = TopGhost;
},
{
horizontal = 1;
place = (639, 26);
place = (639, 26);
type = Stem;
},
{
horizontal = 1;
place = (850, 19);
place = (850, 19);
type = Stem;
},
{
place = (-49, 2);
place = (-49, 2);
type = Stem;
},
{
place = (359, 2);
place = (359, 2);
type = Stem;
},
{
place = (46, 25);
place = (46, 25);
type = Stem;
},
{
place = (242, 25);
place = (242, 25);
type = Stem;
}
);
layerId = m01;
shapes = (
{
closed = 1;
nodes = (
(345,973,l),
(435,973,l),
(356,1115,l),
(228,1115,l)
);
},
{
closed = 1;
nodes = (
(296,762,o),
(334,795,o),
(342,837,cs),
(349,879,o),
(323,911,o),
(281,911,cs),
(239,911,o),
(201,879,o),
(194,837,cs),
(186,795,o),
(213,762,o),
(254,762,cs)
);
},
{
closed = 1;
nodes = (
(492,762,o),
(530,795,o),
(538,837,cs),
(545,879,o),
(519,911,o),
(477,911,cs),
(435,911,o),
(397,879,o),
(390,837,cs),
(382,795,o),
(409,762,o),
(450,762,cs)
);
},
{
closed = 1;
nodes = (
(390,-15,o),
(498,76,o),
(529,257,cs),
(607,697,l),
(482,697,l),
(406,266,ls),
(385,149,o),
(339,106,o),
(236,106,cs),
(133,106,o),
(102,148,o),
(123,266,cs),
(199,697,l),
(74,697,l),
(-4,252,ls),
(-36,74,o),
(39,-15,o),
(214,-15,cs)
);
}
);
width = 681;
}
);
note = uni01DB.ss03;
},
{
glyphname = uni01D5.ss03;
kernLeft = U;
lastChange = "2022-12-26 08:52:18 +0000";
layers = (
{
hints = (
{
horizontal = 1;
place = (-138, -2);
place = (-138, -2);
type = Stem;
},
{
horizontal = 1;
place = (574, -20);
target = down;
type = TopGhost;
},
{
horizontal = 1;
place = (639, 26);
place = (639, 26);
type = Stem;
},
{
horizontal = 1;
place = (861, -53);
place = (861, -53);
type = Stem;
},
{
place = (80, 152);
place = (80, 152);
type = Stem;
},
{
place = (46, 25);
place = (46, 25);
type = Stem;
},
{
place = (242, 25);
place = (242, 25);
type = Stem;
},
{
place = (-49, 2);
place = (-49, 2);
type = Stem;
},
{
place = (359, 2);
place = (359, 2);
type = Stem;
}
);
layerId = m01;
shapes = (
{
closed = 1;
nodes = (
(254,984,l),
(529,984,l),
(541,1054,l),
(266,1054,l)
);
},
{
closed = 1;
nodes = (
(296,762,o),
(334,795,o),
(342,837,cs),
(349,879,o),
(323,911,o),
(281,911,cs),
(239,911,o),
(201,879,o),
(194,837,cs),
(186,795,o),
(213,762,o),
(254,762,cs)
);
},
{
closed = 1;
nodes = (
(492,762,o),
(530,795,o),
(538,837,cs),
(545,879,o),
(519,911,o),
(477,911,cs),
(435,911,o),
(397,879,o),
(390,837,cs),
(382,795,o),
(409,762,o),
(450,762,cs)
);
},
{
closed = 1;
nodes = (
(390,-15,o),
(498,76,o),
(529,257,cs),
(607,697,l),
(482,697,l),
(406,266,ls),
(385,149,o),
(339,106,o),
(236,106,cs),
(133,106,o),
(102,148,o),
(123,266,cs),
(199,697,l),
(74,697,l),
(-4,252,ls),
(-36,74,o),
(39,-15,o),
(214,-15,cs)
);
}
);
width = 681;
}
);
note = uni01D5.ss03;
},
{
glyphname = uni1EE4.ss03;
kernLeft = U;
lastChange = "2022-12-26 08:52:18 +0000";
layers = (
{
hints = (
{
horizontal = 1;
place = (-138, -2);
place = (-138, -2);
type = Stem;
},
{
horizontal = 1;
place = (574, -20);
target = down;
type = TopGhost;
},
{
place = (-49, 2);
place = (-49, 2);
type = Stem;
},
{
place = (359, 2);
place = (359, 2);
type = Stem;
},
{
horizontal = 1;
place = (-313, 26);
place = (-313, 26);
type = Stem;
},
{
place = (144, 25);
place = (144, 25);
type = Stem;
}
);
layerId = m01;
shapes = (
{
closed = 1;
nodes = (
(390,-15,o),
(498,76,o),
(529,257,cs),
(607,697,l),
(482,697,l),
(406,266,ls),
(385,149,o),
(339,106,o),
(236,106,cs),
(133,106,o),
(102,148,o),
(123,266,cs),
(199,697,l),
(74,697,l),
(-4,252,ls),
(-36,74,o),
(39,-15,o),
(214,-15,cs)
);
},
{
closed = 1;
nodes = (
(227,-190,o),
(264,-157,o),
(272,-115,cs),
(279,-73,o),
(253,-41,o),
(211,-41,cs),
(169,-41,o),
(131,-73,o),
(124,-115,cs),
(116,-157,o),
(144,-190,o),
(185,-190,cs)
);
}
);
width = 681;
}
);
note = uni1EE4.ss03;
},
{
glyphname = uni1EF0.ss03;
kernLeft = U;
lastChange = "2022-12-26 08:52:18 +0000";
layers = (
{
hints = (
{
horizontal = 1;
place = (-138, -2);
place = (-138, -2);
type = Stem;
},
{
horizontal = 1;
place = (574, -20);
target = down;
type = TopGhost;
},
{
place = (-49, 2);
place = (-49, 2);
type = Stem;
},
{
place = (359, 2);
place = (359, 2);
type = Stem;
},
{
place = (540, -32);
place = (540, -32);
type = Stem;
},
{
horizontal = 1;
place = (-313, 26);
place = (-313, 26);
type = Stem;
},
{
place = (144, 25);
place = (144, 25);
type = Stem;
}
);
layerId = m01;
shapes = (
{
closed = 1;
nodes = (
(663,697,l),
(654,648,ls),
(649,619,o),
(632,577,o),
(585,572,c),
(607,697,l),
(482,697,l),
(406,266,ls),
(385,149,o),
(339,106,o),
(236,106,cs),
(133,106,o),
(102,148,o),
(123,266,cs),
(199,697,l),
(74,697,l),
(-4,252,ls),
(-36,74,o),
(39,-15,o),
(214,-15,cs),
(390,-15,o),
(498,76,o),
(529,257,cs),
(571,493,l),
(677,497,o),
(732,570,o),
(747,658,cs),
(754,697,l)
);
},
{
closed = 1;
nodes = (
(169,-41,o),
(131,-73,o),
(124,-115,cs),
(116,-157,o),
(144,-190,o),
(185,-190,cs),
(227,-190,o),
(264,-157,o),
(272,-115,cs),
(279,-73,o),
(253,-41,o),
(211,-41,cs)
);
}
);
width = 681;
}
);
note = uni1EF0.ss03;
},
{
glyphname = Wdieresis.ss03;
kernLeft = W;
kernRight = W;
lastChange = "2022-12-26 08:52:18 +0000";
layers = (
{
hints = (
{
horizontal = 1;
place = (-123, 21);
target = up;
type = BottomGhost;
},
{
horizontal = 1;
place = (574, -20);
target = down;
type = TopGhost;
},
{
horizontal = 1;
place = (639, 26);
place = (639, 26);
type = Stem;
},
{
place = (198, 25);
place = (198, 25);
type = Stem;
},
{
place = (394, 25);
place = (394, 25);
type = Stem;
},
{
horizontal = 1;
place = (-123, 68);
place = (-123, 68);
type = Stem;
}
);
layerId = m01;
shapes = (
{
closed = 1;
nodes = (
(448,762,o),
(486,795,o),
(494,837,cs),
(501,879,o),
(475,911,o),
(433,911,cs),
(391,911,o),
(353,879,o),
(346,837,cs),
(338,795,o),
(365,762,o),
(406,762,cs)
);
},
{
closed = 1;
nodes = (
(644,762,o),
(682,795,o),
(690,837,cs),
(697,879,o),
(671,911,o),
(629,911,cs),
(587,911,o),
(549,879,o),
(542,837,cs),
(534,795,o),
(561,762,o),
(602,762,cs)
);
},
{
closed = 1;
nodes = (
(97,0,l),
(218,0,l),
(451,459,l),
(521,0,l),
(643,0,l),
(975,697,l),
(844,697,l),
(609,191,l),
(539,657,l),
(432,657,l),
(199,191,l),
(141,697,l),
(11,697,l)
);
}
);
width = 986;
}
);
note = Wdieresis.ss03;
},
{
glyphname = Ydieresis.ss03;
kernLeft = Y;
kernRight = Y;
lastChange = "2022-12-26 08:52:18 +0000";
layers = (
{
hints = (
{
horizontal = 1;
place = (-123, 21);
target = up;
type = BottomGhost;
},
{
horizontal = 1;
place = (574, -20);
target = down;
type = TopGhost;
},
{
horizontal = 1;
place = (639, 26);
place = (639, 26);
type = Stem;
},
{
place = (29, 25);
place = (29, 25);
type = Stem;
},
{
place = (225, 25);
place = (225, 25);
type = Stem;
},
{
place = (139, 2);
place = (139, 2);
type = Stem;
}
);
layerId = m01;
shapes = (
{
closed = 1;
nodes = (
(279,762,o),
(317,795,o),
(325,837,cs),
(332,879,o),
(306,911,o),
(264,911,cs),
(222,911,o),
(184,879,o),
(177,837,cs),
(169,795,o),
(196,762,o),
(237,762,cs)
);
},
{
closed = 1;
nodes = (
(475,762,o),
(513,795,o),
(521,837,cs),
(528,879,o),
(502,911,o),
(460,911,cs),
(418,911,o),
(380,879,o),
(373,837,cs),
(365,795,o),
(392,762,o),
(433,762,cs)
);
},
{
closed = 1;
nodes = (
(139,0,l),
(264,0,l),
(312,272,l),
(650,697,l),
(502,697,l),
(268,392,l),
(144,697,l),
(-3,697,l),
(187,272,l)
);
}
);
width = 647;
}
);
note = Ydieresis.ss03;
},
{
glyphname = uni1EF4.ss03;
kernLeft = Y;
kernRight = Y;
lastChange = "2022-12-26 08:52:18 +0000";
layers = (
{
hints = (
{
horizontal = 1;
place = (-313, 26);
place = (-313, 26);
type = Stem;
},
{
horizontal = 1;
place = (-123, 21);
target = up;
type = BottomGhost;
},
{
horizontal = 1;
place = (574, -20);
target = down;
type = TopGhost;
},
{
place = (139, 2);
place = (139, 2);
type = Stem;
},
{
place = (127, 25);
place = (127, 25);
type = Stem;
}
);
layerId = m01;
shapes = (
{
closed = 1;
nodes = (
(139,0,l),
(264,0,l),
(312,272,l),
(650,697,l),
(502,697,l),
(268,392,l),
(144,697,l),
(-3,697,l),
(187,272,l)
);
},
{
closed = 1;
nodes = (
(210,-190,o),
(247,-157,o),
(255,-115,cs),
(262,-73,o),
(236,-41,o),
(194,-41,cs),
(152,-41,o),
(114,-73,o),
(107,-115,cs),
(99,-157,o),
(127,-190,o),
(168,-190,cs)
);
}
);
width = 647;
}
);
note = uni1EF4.ss03;
},
{
glyphname = Zdotaccent.ss03;
kernLeft = Z;
kernRight = Z;
lastChange = "2022-12-26 08:52:18 +0000";
layers = (
{
hints = (
{
horizontal = 1;
place = (-123, -8);
place = (-123, -8);
type = Stem;
},
{
horizontal = 1;
place = (459, -8);
place = (459, -8);
type = Stem;
},
{
horizontal = 1;
place = (639, 26);
place = (639, 26);
type = Stem;
},
{
place = (115, 25);
place = (115, 25);
type = Stem;
}
);
layerId = m01;
shapes = (
{
closed = 1;
nodes = (
(365,762,o),
(403,795,o),
(411,837,cs),
(418,879,o),
(392,911,o),
(350,911,cs),
(308,911,o),
(270,879,o),
(263,837,cs),
(255,795,o),
(282,762,o),
(323,762,cs)
);
},
{
closed = 1;
nodes = (
(589,697,l),
(50,697,l),
(30,582,l),
(402,582,l),
(-81,87,l),
(-96,0,l),
(466,0,l),
(486,115,l),
(95,115,l),
(573,606,l)
);
}
);
width = 624;
}
);
note = Zdotaccent.ss03;
},
{
glyphname = a;
kernLeft = a;
kernRight = a;
lastChange = "2022-12-26 08:52:18 +0000";
layers = (
{
hints = (
{
horizontal = 1;
place = (-133, -21);
place = (-133, -21);
type = Stem;
},
{
horizontal = 1;
place = (84, -33);
place = (84, -33);
type = Stem;
},
{
horizontal = 1;
place = (275, -18);
place = (275, -18);
type = Stem;
},
{
place = (-99, -3);
place = (-99, -3);
type = Stem;
},
{
place = (229, -3);
place = (229, -3);
type = Stem;
},
{
horizontal = 1;
place = (-123, 21);
target = up;
type = BottomGhost;
}
);
layerId = m01;
shapes = (
{
closed = 1;
nodes = (
(142,503,o),
(67,472,o),
(-1,409,cs),
(-9,402,o),
(-10,393,o),
(-4,387,cs),
(60,324,l),
(105,372,o),
(156,398,o),
(206,398,cs),
(263,398,o),
(293,365,o),
(284,311,cs),
(281,297,l),
(158,297,ls),
(102,297,o),
(59,290,o),
(24,275,cs),
(-28,253,o),
(-62,209,o),
(-72,151,cs),
(-89,57,o),
(-27,-10,o),
(77,-10,cs),
(142,-10,o),
(203,18,o),
(240,64,c),
(243,0,l),
(298,0,l),
(359,57,l),
(404,311,ls),
(425,430,o),
(357,503,o),
(227,503,cs)
);
},
{
closed = 1;
nodes = (
(66,92,o),
(41,114,o),
(47,149,cs),
(51,167,o),
(60,181,o),
(75,190,cs),
(93,202,o),
(118,207,o),
(159,207,cs),
(266,207,l),
(254,143,o),
(186,92,o),
(114,92,cs)
);
}
);
width = 528;
}
);
note = a;
unicode = 97;
},
{
glyphname = aacute;
kernLeft = a;
kernRight = a;
lastChange = "2022-12-26 08:52:18 +0000";
layers = (
{
hints = (
{
horizontal = 1;
place = (-133, -21);
place = (-133, -21);
type = Stem;
},
{
horizontal = 1;
place = (84, -33);
place = (84, -33);
type = Stem;
},
{
horizontal = 1;
place = (275, -18);
place = (275, -18);
type = Stem;
},
{
horizontal = 1;
place = (432, 19);
place = (432, 19);
type = Stem;
},
{
place = (-99, -3);
place = (-99, -3);
type = Stem;
},
{
place = (229, -3);
place = (229, -3);
type = Stem;
},
{
horizontal = 1;
place = (-123, 21);
target = up;
type = BottomGhost;
}
);
layerId = m01;
shapes = (
{
closed = 1;
nodes = (
(454,697,l),
(325,697,l),
(189,555,l),
(277,555,l)
);
},
{
closed = 1;
nodes = (
(137,503,o),
(58,468,o),
(-14,397,c),
(60,324,l),
(105,372,o),
(156,398,o),
(206,398,cs),
(263,398,o),
(293,365,o),
(284,311,cs),
(281,297,l),
(158,297,ls),
(102,297,o),
(59,290,o),
(24,275,cs),
(-28,253,o),
(-62,209,o),
(-72,151,cs),
(-89,57,o),
(-27,-10,o),
(77,-10,cs),
(142,-10,o),
(203,18,o),
(240,64,c),
(239,0,l),
(349,0,l),
(404,311,ls),
(425,430,o),
(357,503,o),
(227,503,cs)
);
},
{
closed = 1;
nodes = (
(66,92,o),
(41,114,o),
(47,149,cs),
(51,167,o),
(60,181,o),
(75,190,cs),
(93,202,o),
(118,207,o),
(159,207,cs),
(266,207,l),
(254,143,o),
(186,92,o),
(114,92,cs)
);
}
);
width = 528;
}
);
note = aacute;
unicode = 225;
},
{
glyphname = abreve;
kernLeft = a;
kernRight = a;
lastChange = "2022-12-26 08:52:18 +0000";
layers = (
{
hints = (
{
horizontal = 1;
place = (-133, -21);
place = (-133, -21);
type = Stem;
},
{
horizontal = 1;
place = (84, -33);
place = (84, -33);
type = Stem;
},
{
horizontal = 1;
place = (275, -18);
place = (275, -18);
type = Stem;
},
{
horizontal = 1;
place = (441, 10);
place = (441, 10);
type = Stem;
},
{
place = (-21, -38);
place = (-21, -38);
type = Stem;
},
{
place = (206, -38);
place = (206, -38);
type = Stem;
},
{
horizontal = 1;
place = (441, -53);
place = (441, -53);
type = Stem;
},
{
place = (-99, -3);
place = (-99, -3);
type = Stem;
},
{
place = (229, -3);
place = (229, -3);
type = Stem;
},
{
horizontal = 1;
place = (-123, 21);
target = up;
type = BottomGhost;
}
);
layerId = m01;
shapes = (
{
closed = 1;
nodes = (
(338,564,o),
(398,607,o),
(414,697,c),
(329,697,l),
(322,656,o),
(288,634,o),
(247,634,cs),
(208,634,o),
(179,654,o),
(187,697,c),
(102,697,l),
(87,611,o),
(127,564,o),
(235,564,cs)
);
},
{
closed = 1;
nodes = (
(137,503,o),
(58,468,o),
(-14,397,c),
(60,324,l),
(105,372,o),
(156,398,o),
(206,398,cs),
(263,398,o),
(293,365,o),
(284,311,cs),
(281,297,l),
(158,297,ls),
(102,297,o),
(59,290,o),
(24,275,cs),
(-28,253,o),
(-62,209,o),
(-72,151,cs),
(-89,57,o),
(-27,-10,o),
(77,-10,cs),
(142,-10,o),
(203,18,o),
(240,64,c),
(239,0,l),
(349,0,l),
(404,311,ls),
(425,430,o),
(357,503,o),
(227,503,cs)
);
},
{
closed = 1;
nodes = (
(66,92,o),
(41,114,o),
(47,149,cs),
(51,167,o),
(60,181,o),
(75,190,cs),
(93,202,o),
(118,207,o),
(159,207,cs),
(266,207,l),
(254,143,o),
(186,92,o),
(114,92,cs)
);
}
);
width = 528;
}
);
note = abreve;
unicode = 259;
},
